<svg width="64" height="64" viewBox="0 0 64 64" fill="none" xmlns="http://www.w3.org/2000/svg">
<g clip-path="url(#clip0_17_209)">
<path d="M19.9007 21.5947L20.3274 21.5627C20.482 21.5483 20.6299 21.4996 20.7571 21.4213L20.754 21.424C21.1624 22.656 21.6622 23.952 22.287 25.3093C23.0885 27.0853 23.8779 28.544 24.7617 29.952L24.6398 29.7387C24.5666 30.7093 24.4782 31.7067 24.3624 32.672C24.3106 33.2414 24.1785 33.803 23.9693 34.344L23.9845 34.296C23.9479 34.3093 23.8961 39.8427 23.8961 39.8427C23.8983 41.5593 24.5601 43.2255 25.775 44.5734C26.9899 45.9213 28.6874 46.8727 30.5948 47.2747L30.6558 47.2853C30.739 47.092 30.8879 46.9255 31.0823 46.8082C31.2768 46.691 31.5076 46.6286 31.7438 46.6293H33.4931C33.7267 46.6321 33.9542 46.695 34.1472 46.8103C34.3401 46.9255 34.49 47.088 34.578 47.2773L34.5811 47.2853C36.5044 46.8948 38.221 45.9484 39.4537 44.5988C40.6863 43.2493 41.3629 41.5755 41.3742 39.848C41.3742 39.848 41.2676 34.336 41.2127 34.2987C41.0282 33.7839 40.9036 33.2541 40.8409 32.7173L40.8379 32.6773C40.7312 31.7067 40.6611 30.7333 40.5605 29.744C41.3133 28.5547 42.1026 27.0987 42.7975 25.5973L42.9133 25.3147C43.538 23.9573 44.0226 22.664 44.4462 21.4293C44.5716 21.5068 44.7173 21.5554 44.8699 21.5707H44.8729L45.3026 21.6027C45.8207 21.6507 46.2779 21.2773 46.3205 20.6987L46.7838 15.5493V15.544C46.7835 15.3368 46.6971 15.1367 46.5406 14.9812C46.3841 14.8256 46.1683 14.7252 45.9335 14.6987H45.8756C46.2855 12.0174 46.034 9.29039 45.138 6.70132L45.1777 6.83732C44.3181 5.16724 43.0107 3.70325 41.3665 2.5696C39.7223 1.43594 37.7899 0.666072 35.7331 0.325325L35.6539 0.314658C34.6563 0.141644 33.6441 0.0417419 32.6276 0.0159912H32.5636C31.5001 0.0328171 30.4408 0.138181 29.4001 0.330658L29.5099 0.314658C27.4546 0.649571 25.5208 1.40986 23.8699 2.53203C22.2189 3.65421 20.8987 5.1057 20.0196 6.76532L19.986 6.83732C19.1089 9.41712 18.8751 12.1316 19.3003 14.7973L19.2881 14.6987C19.0527 14.721 18.8348 14.8184 18.6763 14.9724C18.5177 15.1264 18.4296 15.3261 18.4287 15.5333V15.552L18.8919 20.7013C18.9346 21.2933 19.3979 21.6507 19.8977 21.6027L19.9007 21.5947Z" fill="#0FA958"/>
<path d="M65.2684 55.6746C65.055 47.568 64.1286 45.7333 63.6287 44.4906C63.4307 43.992 63.2691 40.6213 56.9057 38.4346C53.0047 37.0906 47.9701 37.064 43.7095 35.488V39.872C43.7063 42.1197 42.8091 44.2964 41.172 46.0286C39.5349 47.7608 37.2599 48.9405 34.7373 49.3653L34.6672 49.376C34.6216 49.6125 34.4824 49.8275 34.2741 49.9834C34.0658 50.1394 33.8015 50.2264 33.5274 50.2293H33.4726V53.536C33.4726 55.0877 34.177 56.5758 35.431 57.673C36.6849 58.7702 38.3857 59.3866 40.159 59.3866C41.9324 59.3866 43.6331 58.7702 44.8871 57.673C46.141 56.5758 46.8455 55.0877 46.8455 53.536V51.2266C45.9251 51.1085 45.0861 50.6994 44.4871 50.0766C43.8882 49.4537 43.5709 48.6605 43.5952 47.8468C43.6196 47.0331 43.9839 46.2554 44.6192 45.6608C45.2546 45.0663 46.1169 44.6961 47.0431 44.6203C47.9693 44.5445 48.8952 44.7683 49.6455 45.2495C50.3959 45.7306 50.9187 46.4357 51.1151 47.2313C51.3114 48.0269 51.1678 48.8579 50.7112 49.5671C50.2547 50.2763 49.5169 50.8146 48.6375 51.08L48.6101 51.088V53.6613C48.6101 55.6232 47.7194 57.5047 46.1339 58.892C44.5485 60.2793 42.3982 61.0586 40.156 61.0586C37.9138 61.0586 35.7635 60.2793 34.178 58.892C32.5926 57.5047 31.7019 55.6232 31.7019 53.6613V53.528V53.5333V50.1973C31.4407 50.1822 31.1931 50.0902 30.9994 49.9362C30.8057 49.7822 30.6774 49.5753 30.6352 49.3493V49.344C28.1104 48.9226 25.8316 47.7462 24.1891 46.0162C22.5467 44.2862 21.6429 42.1103 21.6326 39.8613V35.4426C17.3537 37.0506 12.2886 37.0826 8.36627 38.4293C1.98455 40.6133 1.83827 43.976 1.64322 44.4826C1.1556 45.7306 0.216936 47.5573 0.00360272 55.6693C-0.0329687 56.736 0.00360289 58.3706 3.67903 59.8C11.6821 62.5466 21.9922 63.4 32.156 64.0133H33.1312C43.3164 63.4053 53.6112 62.5546 61.6082 59.8C65.2684 58.3786 65.3019 56.752 65.2684 55.6746ZM20.5263 52.368H16.7289V55.704H14.0166V52.3786H10.2192V50.0053H14.0166V46.6826H16.7289V50.0053H20.5263V52.368Z" fill="#0FA958"/>
<path d="M49.4478 47.9067C49.4474 47.4309 49.231 46.972 48.8463 46.6357C48.4615 46.2994 47.9398 46.1105 47.396 46.1107C46.8522 46.1109 46.3307 46.3001 45.9462 46.6366C45.5617 46.9731 45.3457 47.4295 45.3457 47.9054C45.3457 48.3812 45.5617 48.8376 45.9462 49.1742C46.3307 49.5107 46.8522 49.6999 47.396 49.7001C47.9398 49.7002 48.4615 49.5114 48.8463 49.1751C49.231 48.8388 49.4474 48.3826 49.4478 47.9067Z" fill="#0FA958"/>
</g>
<defs>
<clipPath id="clip0_17_209">
<rect width="64" height="64" fill="white"/>
</clipPath>
</defs>
</svg>
