<svg width="24" height="27" viewBox="0 0 24 27" fill="none" xmlns="http://www.w3.org/2000/svg">
<g clip-path="url(#clip0_2030_915)">
<path d="M11.6719 7.45475C8.35938 7.45475 5.6875 10.1266 5.6875 13.4391C5.6875 16.7516 8.35938 19.4235 11.6719 19.4235C14.9844 19.4235 17.6563 16.7516 17.6563 13.4391C17.6563 10.1266 14.9844 7.45475 11.6719 7.45475ZM11.6719 17.3298C9.53125 17.3298 7.78125 15.585 7.78125 13.4391C7.78125 11.2933 9.52604 9.5485 11.6719 9.5485C13.8177 9.5485 15.5625 11.2933 15.5625 13.4391C15.5625 15.585 13.8125 17.3298 11.6719 17.3298ZM19.2969 7.20996C19.2969 7.986 18.6719 8.60579 17.901 8.60579C17.125 8.60579 16.5052 7.98079 16.5052 7.20996C16.5052 6.43913 17.1302 5.81413 17.901 5.81413C18.6719 5.81413 19.2969 6.43913 19.2969 7.20996ZM23.2604 8.62663C23.1719 6.75684 22.7448 5.10059 21.375 3.736C20.0104 2.37142 18.3542 1.94434 16.4844 1.85059C14.5573 1.74121 8.78125 1.74121 6.85417 1.85059C4.98958 1.93913 3.33333 2.36621 1.96354 3.73079C0.59375 5.09538 0.171875 6.75163 0.078125 8.62142C-0.03125 10.5485 -0.03125 16.3245 0.078125 18.2516C0.166667 20.1214 0.59375 21.7777 1.96354 23.1423C3.33333 24.5068 4.98438 24.9339 6.85417 25.0277C8.78125 25.137 14.5573 25.137 16.4844 25.0277C18.3542 24.9391 20.0104 24.512 21.375 23.1423C22.7396 21.7777 23.1667 20.1214 23.2604 18.2516C23.3698 16.3245 23.3698 10.5537 23.2604 8.62663ZM20.7708 20.3193C20.3646 21.3402 19.5781 22.1266 18.5521 22.5381C17.0156 23.1475 13.3698 23.0068 11.6719 23.0068C9.97396 23.0068 6.32292 23.1423 4.79167 22.5381C3.77083 22.1318 2.98438 21.3454 2.57292 20.3193C1.96354 18.7829 2.10417 15.137 2.10417 13.4391C2.10417 11.7412 1.96875 8.09017 2.57292 6.55892C2.97917 5.53809 3.76562 4.75163 4.79167 4.34017C6.32812 3.73079 9.97396 3.87142 11.6719 3.87142C13.3698 3.87142 17.0208 3.736 18.5521 4.34017C19.5729 4.74642 20.3594 5.53288 20.7708 6.55892C21.3802 8.09538 21.2396 11.7412 21.2396 13.4391C21.2396 15.137 21.3802 18.7881 20.7708 20.3193Z" fill="#FEFCFF"/>
</g>
<defs>
<clipPath id="clip0_2030_915">
<rect width="23.3333" height="26.6667" fill="white" transform="translate(0 0.111084)"/>
</clipPath>
</defs>
</svg>
