<svg width="64" height="64" viewBox="0 0 64 64" fill="none" xmlns="http://www.w3.org/2000/svg">
<path d="M18.6663 19.6214V16.9547C18.6663 14.833 19.5092 12.7981 21.0095 11.2979C22.5098 9.79757 24.5446 8.95471 26.6663 8.95471H37.333C39.4547 8.95471 41.4896 9.79757 42.9899 11.2979C44.4902 12.7981 45.333 14.833 45.333 16.9547V19.6214H50.6663C52.7881 19.6214 54.8229 20.4642 56.3232 21.9645C57.8235 23.4648 58.6663 25.4996 58.6663 27.6214V48.9547C58.6663 51.0764 57.8235 53.1113 56.3232 54.6116C54.8229 56.1119 52.7881 56.9547 50.6663 56.9547H13.333C11.2113 56.9547 9.17644 56.1119 7.67615 54.6116C6.17586 53.1113 5.33301 51.0764 5.33301 48.9547L5.33301 27.6214C5.33301 25.4996 6.17586 23.4648 7.67615 21.9645C9.17644 20.4642 11.2113 19.6214 13.333 19.6214H18.6663ZM34.6663 35.6214V30.288H29.333V35.6214H23.9997V40.9547H29.333V46.288H34.6663V40.9547H39.9997V35.6214H34.6663ZM23.9997 19.6214H39.9997V16.9547C39.9997 16.2475 39.7187 15.5692 39.2186 15.0691C38.7185 14.569 38.0402 14.288 37.333 14.288H26.6663C25.9591 14.288 25.2808 14.569 24.7807 15.0691C24.2806 15.5692 23.9997 16.2475 23.9997 16.9547V19.6214Z" fill="#F2283C"/>
</svg>
