<svg width="157" height="38" viewBox="0 0 157 38" fill="none" xmlns="http://www.w3.org/2000/svg">
<path d="M30.0772 6.79159V0.5H36.6837V9.31577H44.7961V15.2722H36.6837C35.4419 14.4051 36.4228 13.9317 34.6733 11.7579C33.8707 10.7602 32.883 9.87779 31.5398 9.39887C29.8398 8.79311 30.0767 9.22283 30.0767 6.79214L30.0772 6.79159Z" fill="#44C853"/>
<path d="M14.0609 22.5244C14.0609 20.2369 13.7605 18.6165 13.1618 17.6641C12.5632 16.7112 11.5349 16.2344 10.0768 16.2344C9.62313 16.2344 9.15383 16.2579 8.66836 16.3055C8.18234 16.3536 7.71248 16.4088 7.2599 16.4723V36.8374H0.0213985V16.2027C0.0213985 13.1471 -0.368757 11.6519 2.18286 11.1117C3.00832 10.9373 3.88283 10.7782 4.80582 10.635C5.72882 10.4918 6.67634 10.3813 7.64783 10.3015C8.61987 10.2222 9.5752 10.1823 10.5144 10.1823C12.3604 10.1823 13.8586 10.413 15.0084 10.8734C16.1577 11.3337 17.1052 11.882 17.8498 12.5173C18.886 11.7864 20.0765 11.2145 21.4203 10.8017C22.7641 10.389 24.0032 10.1823 25.1368 10.1823C27.1768 10.1823 28.8533 10.4606 30.1648 11.0166C31.4763 11.5726 32.5208 12.3588 33.2983 13.3757C34.0759 14.392 34.6109 15.5997 34.9019 16.9971C35.1928 18.394 35.3388 19.9521 35.3388 21.6671V36.8379H28.1003V22.5249C28.1003 20.2375 27.8005 18.6176 27.2019 17.6646C26.6027 16.7117 25.5744 16.235 24.1169 16.235C23.7284 16.235 23.1861 16.3301 22.4894 16.5209C21.7932 16.7112 21.218 16.9495 20.7649 17.2355C20.9917 17.9664 21.1383 18.7368 21.2018 19.547C21.2659 20.3561 21.2988 21.2238 21.2988 22.1439V36.8379H14.0609V22.5249V22.5244Z" fill="#3325B2"/>
<path d="M42.7137 36.1255L43.086 35.5192L43.2215 35.5969L43.358 35.6729L43.4963 35.7456L43.6362 35.8161L43.7777 35.8844L43.9204 35.95L44.0648 36.0135L44.2108 36.0742L44.358 36.1326L44.5068 36.1884L44.6578 36.242L44.81 36.2928L44.9638 36.3409L45.1193 36.3869L45.2759 36.4306L45.4348 36.4716L45.5953 36.5104L45.7569 36.5465L45.9202 36.5799L46.0852 36.611L46.2524 36.64L46.4208 36.6662L46.5908 36.6898L46.7619 36.7111L46.9352 36.7297L47.1102 36.7461L47.2864 36.7597L47.4647 36.7712L47.6442 36.78L47.8259 36.786L48.0093 36.7898L48.1937 36.7909V37.4983L47.9987 37.4972L47.8053 37.4934L47.6135 37.4869L47.4235 37.4776L47.2345 37.4655L47.0472 37.4508L46.8616 37.4333L46.6772 37.4136L46.4943 37.3906L46.3126 37.3649L46.1332 37.3371L45.9548 37.3064L45.7781 37.2731L45.6026 37.237L45.4287 37.1982L45.2564 37.1566L45.0859 37.1129L44.9164 37.0659L44.7492 37.0161L44.5831 36.9642L44.4187 36.909L44.256 36.851L44.0949 36.7909L43.9349 36.7275L43.7772 36.6613L43.6206 36.593L43.4662 36.5214L43.3129 36.4476L43.1607 36.371L43.0108 36.2917L42.8625 36.2097L42.716 36.125L42.7137 36.1255ZM39.112 32.4319L39.7474 32.0963L39.8221 32.2297L39.899 32.3614L39.9776 32.4915L40.0579 32.6195L40.1404 32.7463L40.2245 32.8709L40.3109 32.994L40.3984 33.1153L40.4887 33.2351L40.5807 33.3532L40.6743 33.4691L40.7702 33.5833L40.8677 33.6965L40.9669 33.8069L41.0684 33.9163L41.1715 34.024L41.2768 34.1295L41.3839 34.2339L41.4925 34.3361L41.6035 34.4373L41.716 34.5368L41.8309 34.6341L41.9479 34.7303L42.0666 34.8244L42.187 34.9168L42.3096 35.0081L42.4339 35.0972L42.5605 35.1846L42.6886 35.2705L42.8191 35.3547L42.9517 35.4372L43.086 35.5181L42.7137 36.1244L42.5699 36.0375L42.4278 35.9495L42.2879 35.8593L42.1497 35.7669L42.0137 35.6729L41.8794 35.5766L41.7473 35.4788L41.6174 35.3793L41.4892 35.2776L41.3632 35.1743L41.2389 35.0687L41.1169 34.9616L40.997 34.8522L40.8789 34.7413L40.7635 34.6286L40.6498 34.5138L40.5383 34.3974L40.4285 34.2793L40.321 34.1585L40.2156 34.0365L40.1125 33.9124L40.0111 33.7867L39.9119 33.6593L39.8149 33.5303L39.7196 33.3991L39.6265 33.2662L39.5356 33.1312L39.4465 32.9945L39.3601 32.8562L39.2753 32.7162L39.1928 32.5741L39.1126 32.4303L39.112 32.4319ZM37.8424 27.3131H38.5636L38.5647 27.4776L38.568 27.6411L38.5736 27.8035L38.582 27.9647L38.5926 28.1249L38.6054 28.2846L38.6204 28.4431L38.6377 28.6006L38.6572 28.7569L38.679 28.9127L38.7035 29.0675L38.7302 29.2211L38.7592 29.3736L38.7904 29.5251L38.8239 29.6765L38.8595 29.8257L38.8974 29.9745L38.9381 30.1226L38.9811 30.2691L39.0262 30.4151L39.0736 30.5605L39.1232 30.7049L39.175 30.8481L39.2291 30.9903L39.2859 31.1313L39.3445 31.2718L39.4058 31.4112L39.4693 31.5501L39.5351 31.6884L39.6031 31.8251L39.6739 31.9612L39.7469 32.0963L39.1115 32.4319L39.0334 32.2865L38.9576 32.1405L38.8846 31.9929L38.8138 31.8448L38.7458 31.6961L38.6801 31.5457L38.6165 31.3948L38.5558 31.2428L38.4973 31.0898L38.441 30.9356L38.388 30.7803L38.3373 30.6245L38.2888 30.4676L38.2431 30.3096L38.1996 30.151L38.1584 29.9914L38.1199 29.8307L38.0842 29.6694L38.0508 29.507L38.0196 29.3435L37.9912 29.179L37.9655 29.0139L37.9416 28.8477L37.9209 28.6804L37.902 28.5125L37.8858 28.3436L37.8725 28.1736L37.8613 28.003L37.8529 27.8313L37.8468 27.6591L37.8429 27.4858L37.8418 27.3114L37.8424 27.3131ZM39.1689 22.1182L39.7954 22.4686L39.7196 22.6015L39.6465 22.7354L39.5758 22.8704L39.5072 23.0071L39.4414 23.1444L39.3779 23.2832L39.3166 23.4226L39.2581 23.5637L39.2018 23.7058L39.1477 23.8491L39.0959 23.9934L39.0468 24.1388L39 24.2859L38.9554 24.4341L38.9136 24.5833L38.874 24.7342L38.8367 24.8862L38.8016 25.0387L38.7693 25.1929L38.7392 25.3487L38.7113 25.5051L38.6862 25.6631L38.6634 25.8222L38.6427 25.9829L38.6243 26.1447L38.6087 26.3076L38.5954 26.4717L38.5842 26.6373L38.5758 26.8041L38.5697 26.9719L38.5664 27.1414L38.5653 27.312H37.844L37.8451 27.1315L37.849 26.9522L37.8552 26.774L37.8641 26.5969L37.8758 26.4208L37.8897 26.2459L37.9064 26.072L37.926 25.8998L37.9477 25.7287L37.9722 25.5581L37.9995 25.3892L38.0296 25.2213L38.062 25.0546L38.0971 24.8889L38.1344 24.7244L38.1745 24.5614L38.2175 24.3996L38.2626 24.2389L38.3105 24.0792L38.3607 23.9212L38.4137 23.7638L38.4694 23.608L38.5279 23.4532L38.5887 23.3002L38.6522 23.1476L38.7185 22.9962L38.7876 22.8469L38.859 22.6988L38.9331 22.5512L39.0095 22.4052L39.0886 22.2603L39.17 22.1171L39.1689 22.1182ZM42.75 18.5175L43.1195 19.1249L42.9896 19.2025L42.8614 19.2818L42.7349 19.3627L42.6101 19.4453L42.4869 19.5295L42.3654 19.6153L42.2455 19.7033L42.1274 19.793L42.0109 19.8843L41.8961 19.9772L41.7829 20.0724L41.6715 20.1686L41.5617 20.2664L41.4541 20.3665L41.3476 20.4682L41.2434 20.5715L41.1403 20.677L41.0388 20.7836L40.9396 20.8919L40.8415 21.0023L40.7451 21.1149L40.6504 21.2292L40.5573 21.3451L40.4664 21.4627L40.3767 21.5818L40.2886 21.7032L40.2022 21.8262L40.1175 21.9509L40.0339 22.0777L39.9525 22.2056L39.8728 22.3358L39.7948 22.4675L39.1683 22.1171L39.2519 21.976L39.3372 21.8366L39.4247 21.6988L39.5139 21.5633L39.6047 21.4293L39.6978 21.297L39.7926 21.1669L39.889 21.0379L39.9877 20.911L40.088 20.7864L40.19 20.6634L40.2936 20.5425L40.3995 20.4234L40.5071 20.3058L40.6169 20.1905L40.7278 20.0767L40.8404 19.9652L40.9552 19.8553L41.0717 19.7476L41.1899 19.6416L41.3097 19.5371L41.4318 19.4349L41.5555 19.3348L41.6809 19.2364L41.808 19.1397L41.9373 19.0451L42.0683 18.9521L42.201 18.8614L42.3353 18.7723L42.4718 18.6853L42.6095 18.6001L42.7494 18.517L42.75 18.5175ZM47.842 17.195V17.9025L47.6771 17.9035L47.5132 17.9068L47.3504 17.9128L47.1888 17.921L47.0283 17.932L46.8689 17.9451L46.7112 17.9604L46.554 17.9784L46.3979 17.9987L46.2435 18.0211L46.0902 18.0462L45.9381 18.0741L45.7865 18.1042L45.6365 18.1364L45.4877 18.1709L45.3395 18.2081L45.1929 18.2474L45.0474 18.2895L44.9025 18.3338L44.7593 18.3797L44.6166 18.4289L44.475 18.4803L44.3351 18.5339L44.1958 18.5902L44.0575 18.6487L43.9204 18.7094L43.7844 18.7728L43.6495 18.8384L43.5158 18.9062L43.3826 18.9767L43.2505 19.0495L43.1195 19.1244L42.75 18.517L42.8915 18.4355L43.0342 18.3568L43.178 18.2802L43.3235 18.2064L43.4701 18.1354L43.6178 18.067L43.7666 18.0009L43.9165 17.9374L44.0676 17.8768L44.2197 17.8183L44.373 17.763L44.5274 17.71L44.6829 17.6597L44.8395 17.6121L44.9973 17.5668L45.1561 17.5241L45.3161 17.4842L45.4771 17.4465L45.6388 17.4115L45.8015 17.3792L45.966 17.3497L46.1315 17.3224L46.2976 17.2978L46.4648 17.2759L46.6331 17.2562L46.8026 17.2393L46.9731 17.2251L47.1448 17.2136L47.317 17.2048L47.4909 17.1983L47.6654 17.1945L47.8409 17.1934L47.842 17.195ZM52.0095 17.9271L51.7358 18.5815L51.6305 18.5399L51.524 18.4995L51.4164 18.4606L51.3077 18.4229L51.1985 18.3868L51.0881 18.3519L50.9767 18.318L50.8641 18.2857L50.7498 18.2545L50.635 18.225L50.5191 18.1966L50.4026 18.1693L50.2844 18.1436L50.1657 18.119L50.0459 18.096L49.9244 18.0736L49.8023 18.0533L49.6791 18.0342L49.5543 18.0162L49.4289 17.9992L49.3023 17.9839L49.1753 17.9702L49.0465 17.9577L48.9166 17.9462L48.7862 17.9363L48.6547 17.9276L48.5215 17.9205L48.3877 17.9145L48.2528 17.9101L48.1163 17.9068L47.9792 17.9046L47.8409 17.9041V17.1966L47.9864 17.1972L48.1308 17.1994L48.274 17.2027L48.4167 17.2076L48.5583 17.2136L48.6987 17.2212L48.8386 17.2305L48.9774 17.2415L49.1151 17.2535L49.2516 17.2666L49.3882 17.2819L49.5225 17.2983L49.6563 17.3158L49.7889 17.335L49.9205 17.3552L50.0514 17.3776L50.1813 17.4011L50.3101 17.4257L50.4377 17.4525L50.5642 17.4804L50.6907 17.5099L50.8156 17.5405L50.9393 17.5728L51.0619 17.6061L51.184 17.6411L51.305 17.6778L51.4248 17.7155L51.5435 17.7554L51.6611 17.7964L51.7782 17.8385L51.8941 17.8822L52.0089 17.9276L52.0095 17.9271ZM55.0984 19.9898L54.5706 20.472L54.4975 20.3966L54.424 20.3222L54.3493 20.249L54.2735 20.1768L54.1971 20.1057L54.1191 20.0357L54.0405 19.9668L53.9608 19.8985L53.88 19.8318L53.798 19.7657L53.7156 19.7011L53.632 19.6377L53.5472 19.5754L53.4614 19.5136L53.3745 19.4529L53.2864 19.3933L53.1972 19.3348L53.1075 19.2774L53.0166 19.2211L52.9241 19.1654L52.831 19.1112L52.7368 19.0582L52.6415 19.0057L52.5457 18.9543L52.4481 18.904L52.3495 18.8548L52.2502 18.8067L52.1494 18.7597L52.0474 18.7138L51.9448 18.6689L51.8411 18.6252L51.7358 18.582L52.0095 17.9276L52.1226 17.9735L52.2346 18.0205L52.3461 18.0692L52.4559 18.1195L52.5646 18.1703L52.6727 18.2223L52.7792 18.2753L52.8851 18.3294L52.9899 18.3852L53.093 18.4421L53.1955 18.5L53.297 18.5596L53.3973 18.6197L53.4965 18.681L53.5952 18.7438L53.6922 18.8078L53.788 18.8729L53.8828 18.939L53.9764 19.0063L54.0695 19.0746L54.1615 19.144L54.2523 19.2151L54.342 19.2873L54.4301 19.3605L54.5176 19.4349L54.604 19.5109L54.6887 19.5874L54.7734 19.6651L54.8559 19.7443L54.9379 19.8242L55.0187 19.9056L55.0978 19.9882L55.0984 19.9898ZM57.0129 23.0476L56.3369 23.2942L56.2984 23.1941L56.2588 23.0946L56.2181 22.9962L56.1763 22.8989L56.1334 22.8016L56.0894 22.7053L56.0448 22.6102L55.9991 22.5156L55.9523 22.4221L55.9038 22.3292L55.8547 22.2374L55.8046 22.1461L55.7533 22.0553L55.7009 21.9656L55.6474 21.8765L55.5922 21.788L55.5365 21.6999L55.4796 21.613L55.4217 21.5266L55.3631 21.4413L55.3035 21.3566L55.2422 21.2724L55.1798 21.1888L55.1168 21.1062L55.0521 21.0242L54.9864 20.9427L54.92 20.8629L54.852 20.7831L54.7835 20.7044L54.7138 20.6262L54.643 20.5491L54.5711 20.4726L55.0989 19.9904L55.177 20.0735L55.2539 20.1577L55.3297 20.2424L55.4038 20.3277L55.4768 20.4141L55.5493 20.5015L55.6201 20.5896L55.6897 20.6781L55.7589 20.7678L55.8263 20.858L55.8926 20.9493L55.9584 21.0417L56.0225 21.1346L56.0849 21.2281L56.1462 21.3222L56.207 21.4173L56.2661 21.513L56.3246 21.6097L56.382 21.7076L56.4372 21.806L56.4918 21.9055L56.5453 22.0055L56.5971 22.1061L56.6484 22.2073L56.6986 22.3095L56.7476 22.4128L56.795 22.5167L56.8413 22.6211L56.8864 22.7267L56.9304 22.8327L56.9728 22.9399L57.0146 23.0476H57.0129ZM57.6667 26.798H56.9455L56.9449 26.6794L56.9433 26.5613L56.9405 26.4443L56.9366 26.3273L56.931 26.2109L56.9243 26.095L56.9165 25.9796L56.9076 25.8653L56.897 25.7516L56.8859 25.6385L56.8736 25.5258L56.8602 25.4132L56.8452 25.3022L56.829 25.1913L56.8117 25.0808L56.7933 24.9715L56.7733 24.8621L56.7526 24.7528L56.7309 24.6451L56.7075 24.5374L56.6835 24.4308L56.6579 24.3247L56.6311 24.2186L56.6033 24.1137L56.5743 24.0093L56.5442 23.9054L56.513 23.802L56.4806 23.6998L56.4472 23.5976L56.4115 23.4959L56.3759 23.3947L56.3385 23.2947L57.0146 23.0481L57.0553 23.1569L57.0943 23.2657L57.1317 23.3751L57.1684 23.4855L57.2036 23.5965L57.237 23.708L57.2693 23.8195L57.3005 23.9322L57.3306 24.0453L57.3596 24.1591L57.3869 24.2733L57.4131 24.3881L57.4382 24.5035L57.4616 24.6199L57.4839 24.7358L57.5051 24.8528L57.5252 24.9704L57.5435 25.0885L57.5608 25.2071L57.5764 25.3268L57.5909 25.4466L57.6043 25.5668L57.6166 25.6877L57.6272 25.809L57.6366 25.9315L57.645 26.054L57.6522 26.177L57.6578 26.3005L57.6623 26.4246L57.6656 26.5493L57.6673 26.6745L57.6678 26.8002L57.6667 26.798ZM57.6121 27.915L56.8942 27.8472V27.8466L56.8976 27.8149L56.9009 27.7827L56.9037 27.7504L56.9065 27.7182L56.9093 27.6848L56.9121 27.6526L56.9148 27.6208L56.9171 27.5886L56.9193 27.5552L56.9215 27.5224L56.9238 27.4907L56.926 27.4585L56.9282 27.4246L56.9304 27.3918L56.9321 27.359L56.9338 27.3262L56.9355 27.2934L56.9371 27.2606L56.9382 27.2278L56.9394 27.1939L56.9405 27.1611L56.9416 27.1294L56.9427 27.0965L56.9438 27.0627L56.9449 27.0299L56.9455 26.9976L56.9461 26.9648L56.9466 26.9303L56.9472 26.8975V26.8642V26.8308V26.7975H57.6684V26.833V26.8686V26.9041L57.6678 26.9396L57.6673 26.9741L57.6667 27.0091L57.6656 27.0457L57.6645 27.0812L57.6634 27.1151L57.6623 27.1501L57.6612 27.1862L57.66 27.2212L57.6589 27.2551L57.6572 27.2901L57.6556 27.3251L57.6539 27.3601L57.6522 27.3951L57.65 27.43L57.6478 27.465L57.6455 27.4989L57.6433 27.5339L57.6411 27.57L57.6389 27.605L57.6366 27.6389L57.6338 27.6733L57.6311 27.7094L57.6277 27.7444L57.6249 27.7778L57.6221 27.8122L57.6188 27.8472L57.6154 27.8816L57.6121 27.9161V27.9155V27.915ZM57.0603 29.1462V28.4387L56.7214 28.6722L56.7287 28.652L56.7365 28.6306L56.7432 28.6104L56.7504 28.5891L56.7577 28.5667L56.7649 28.5437L56.7716 28.5218L56.7777 28.4994L56.7839 28.477L56.7905 28.4529L56.7967 28.4283L56.8028 28.4048L56.8084 28.3808L56.8145 28.3545L56.8206 28.3288L56.8262 28.3037L56.8312 28.2785L56.8362 28.2512L56.8413 28.225L56.8463 28.1982L56.8513 28.1703L56.8563 28.1419L56.8608 28.1145L56.8652 28.0867L56.8691 28.0577L56.873 28.0292L56.8769 28.0008L56.8808 27.9702L56.8847 27.9396L56.8881 27.9095L56.8914 27.8794L56.8948 27.8477L57.6127 27.9155L57.6093 27.9505L57.6054 27.9861L57.6015 28.021L57.5976 28.0549L57.5937 28.0888L57.5893 28.1233L57.5848 28.1577L57.5798 28.1905L57.5748 28.2244L57.5692 28.2578L57.5642 28.2895L57.5586 28.3212L57.553 28.354L57.5469 28.3862L57.5408 28.4174L57.5341 28.4491L57.5274 28.4808L57.5207 28.5109L57.514 28.5404L57.5068 28.571L57.499 28.6017L57.4912 28.6306L57.4839 28.6596L57.4755 28.6891L57.4672 28.7187L57.4583 28.7476L57.4499 28.7755L57.441 28.8028L57.4315 28.8313L57.4215 28.8597L57.412 28.8865L57.4025 28.9133L57.0637 29.1467L57.0603 29.1462ZM57.3992 28.9127C57.3312 29.0964 57.1244 29.191 56.9371 29.1249C56.7499 29.0582 56.6534 28.8553 56.7209 28.6716L57.3992 28.9127ZM42.7243 28.4382H57.0603V29.1456H42.7243L42.3637 28.7919L42.7243 28.4382ZM42.7243 29.1456C42.5253 29.1456 42.3637 28.9871 42.3637 28.7919C42.3637 28.5967 42.5253 28.4382 42.7243 28.4382V29.1456ZM43.0849 25.0097V28.7914H42.3637V25.0097L42.7243 24.656L43.0849 25.0097ZM42.3637 25.0097C42.3637 24.8146 42.5253 24.656 42.7243 24.656C42.9233 24.656 43.0849 24.8146 43.0849 25.0097H42.3637ZM54.0812 25.3635H42.7243V24.656H54.0812L54.2941 25.2951L54.0812 25.3635ZM54.0812 24.656C54.2802 24.656 54.4418 24.8146 54.4418 25.0097C54.4418 25.2049 54.2802 25.3635 54.0812 25.3635V24.656ZM51.3796 26.5121L53.8683 24.7244L54.2947 25.2951L51.806 27.0829L51.2414 26.7171L51.3796 26.5121ZM51.806 27.0829C51.6455 27.1982 51.4198 27.1638 51.3022 27.0063C51.1846 26.8489 51.2197 26.6275 51.3802 26.5121L51.8066 27.0829H51.806ZM51.2152 24.2777L51.9008 24.0574L51.9264 24.1366L51.9504 24.2165L51.9727 24.2968L51.9933 24.3777L52.0123 24.4592L52.0301 24.5418L52.0463 24.6249L52.0607 24.7085L52.0736 24.7927L52.0847 24.8774L52.0942 24.9622L52.1025 25.048L52.1092 25.1344L52.1143 25.2213L52.1176 25.3088L52.1198 25.3968L52.1204 25.4854L52.1193 25.5745L52.117 25.6642L52.1126 25.7549L52.107 25.8457L52.0998 25.9364L52.0914 26.0283L52.0808 26.1212L52.0691 26.2142L52.0557 26.3076L52.0412 26.4017L52.0251 26.4957L52.0072 26.5914L51.9877 26.6871L51.9671 26.7827L51.9448 26.8795L51.2425 26.7188L51.2626 26.6313L51.2815 26.5438L51.2988 26.458L51.3144 26.3732L51.3289 26.2885L51.3423 26.2043L51.354 26.1212L51.3646 26.0387L51.3735 25.9572L51.3813 25.8763L51.3874 25.7954L51.3925 25.7161L51.3958 25.6379L51.398 25.5603L51.3992 25.4832L51.3986 25.4067L51.3969 25.3307L51.3936 25.2558L51.3897 25.1814L51.3841 25.1081L51.3769 25.0354L51.3685 24.9627L51.359 24.8917L51.3484 24.8211L51.3362 24.7511L51.3228 24.6817L51.3083 24.6134L51.2921 24.545L51.2749 24.4778L51.2565 24.4111L51.2364 24.3449L51.2152 24.2793V24.2777ZM49.9996 22.6337L50.4165 22.0564L50.4817 22.1029L50.5464 22.1504L50.6099 22.1991L50.6712 22.2488L50.7314 22.2991L50.7916 22.3516L50.8501 22.4046L50.907 22.4582L50.9633 22.5134L51.0179 22.5698L51.0709 22.6266L51.1227 22.6846L51.174 22.7442L51.2236 22.8048L51.2721 22.8661L51.3189 22.9284L51.3646 22.9913L51.4092 23.0558L51.4527 23.1214L51.4945 23.1875L51.5357 23.2553L51.5753 23.3237L51.6132 23.392L51.6505 23.4625L51.6862 23.5342L51.7202 23.6063L51.7531 23.679L51.7854 23.7528L51.8155 23.8277L51.8445 23.9037L51.8729 23.9808L51.8997 24.0585L51.2141 24.2788L51.1913 24.2132L51.1678 24.1492L51.1428 24.0858L51.1171 24.0235L51.0909 23.9622L51.0631 23.901L51.0346 23.8414L51.0057 23.7829L50.975 23.725L50.9432 23.6676L50.9109 23.6118L50.8775 23.5571L50.8429 23.503L50.8072 23.45L50.771 23.398L50.7337 23.3461L50.6952 23.2952L50.6556 23.2455L50.6155 23.1968L50.5743 23.1493L50.5313 23.1017L50.4879 23.0552L50.4433 23.0093L50.3987 22.965L50.3519 22.9207L50.3045 22.8776L50.2566 22.836L50.2064 22.7945L50.1551 22.7535L50.1038 22.7135L50.0509 22.6742L49.9968 22.6359L49.9996 22.6337ZM47.8426 22.028V21.3205L47.9351 21.3211L48.0271 21.3232L48.1185 21.3265L48.2094 21.3314L48.2985 21.3375L48.3883 21.3451L48.4769 21.3544L48.5638 21.3648L48.6502 21.3768L48.7366 21.3905L48.8219 21.4053L48.9066 21.4217L48.9902 21.4397L49.0727 21.4588L49.1546 21.4796L49.236 21.502L49.3163 21.5255L49.3965 21.5507L49.4751 21.5775L49.5526 21.6053L49.6295 21.6349L49.7059 21.6655L49.7817 21.6983L49.8558 21.7322L49.9294 21.7672L50.0024 21.8044L50.0743 21.8426L50.1445 21.8825L50.2142 21.9235L50.2833 21.9667L50.3513 22.0105L50.4182 22.0558L50.0013 22.6332L49.9467 22.5965L49.892 22.5605L49.8363 22.526L49.7794 22.4921L49.722 22.4599L49.6641 22.4287L49.6055 22.3992L49.5459 22.3707L49.4846 22.3429L49.4238 22.3161L49.3614 22.2909L49.2979 22.2663L49.2338 22.2434L49.1691 22.2215L49.1039 22.2007L49.037 22.181L48.9696 22.1625L48.901 22.145L48.8314 22.1286L48.7617 22.1138L48.6904 22.1001L48.6179 22.0876L48.5454 22.0761L48.4713 22.0657L48.3961 22.0564L48.3208 22.0482L48.2445 22.0416L48.1659 22.0362L48.0873 22.0318L48.0081 22.0285L47.9273 22.0269L47.8459 22.0263L47.8426 22.028ZM45.6967 22.6206L45.2915 22.0351L45.3595 21.9913L45.4281 21.9481L45.4978 21.9071L45.568 21.8672L45.6393 21.8284L45.7112 21.7918L45.7837 21.7562L45.8578 21.7218L45.932 21.689L46.0072 21.6573L46.083 21.6272L46.1599 21.5982L46.2379 21.5709L46.3154 21.5452L46.394 21.5206L46.4743 21.4971L46.5545 21.4758L46.6354 21.4556L46.7173 21.437L46.7998 21.4195L46.8834 21.4036L46.9675 21.3889L47.0517 21.3757L47.137 21.3637L47.2234 21.3533L47.3098 21.3446L47.3967 21.3369L47.4853 21.3309L47.574 21.3265L47.6626 21.3232L47.7523 21.3211L47.8432 21.3205V22.028L47.764 22.0285L47.6854 22.0301L47.6074 22.0334L47.5305 22.0373L47.4547 22.0427L47.3789 22.0493L47.3042 22.0569L47.2312 22.0657L47.1587 22.0761L47.0863 22.0876L47.0155 22.0996L46.9452 22.1132L46.8756 22.1275L46.8065 22.1433L46.7385 22.1603L46.671 22.1783L46.6053 22.1974L46.5395 22.2177L46.4737 22.239L46.4102 22.2614L46.3472 22.2849L46.2842 22.3095L46.2229 22.3352L46.1616 22.3625L46.1014 22.3904L46.0412 22.42L45.9821 22.4506L45.9242 22.4817L45.8662 22.5145L45.8093 22.5484L45.753 22.5834L45.6973 22.6195L45.6967 22.6206ZM44.3591 24.3783L43.6841 24.1279L43.7175 24.0437L43.7515 23.9611L43.7872 23.8791L43.824 23.7982L43.8613 23.7189L43.9004 23.6408L43.9399 23.5637L43.9806 23.4882L44.0224 23.4133L44.0659 23.339L44.1099 23.2668L44.1545 23.1963L44.2013 23.1258L44.2487 23.0569L44.2966 22.9896L44.3468 22.9229L44.3975 22.8579L44.4494 22.7945L44.5023 22.7316L44.5564 22.6704L44.6116 22.6108L44.6678 22.5523L44.7253 22.4949L44.7843 22.438L44.844 22.3828L44.9047 22.3297L44.966 22.2773L45.029 22.2259L45.0931 22.1761L45.1578 22.128L45.2235 22.081L45.291 22.0351L45.6962 22.6206L45.6416 22.6578L45.5881 22.696L45.5351 22.7354L45.4827 22.7759L45.432 22.8169L45.3813 22.8601L45.3317 22.9038L45.2832 22.9486L45.2358 22.994L45.189 23.041L45.1427 23.0891L45.097 23.1389L45.0524 23.1892L45.009 23.2406L44.966 23.2936L44.9237 23.3477L44.883 23.4024L44.8423 23.4593L44.8022 23.5167L44.7637 23.5752L44.7253 23.6358L44.6879 23.6971L44.6517 23.7594L44.616 23.8234L44.5809 23.8884L44.5463 23.9546L44.5129 24.0224L44.4806 24.0907L44.4488 24.1607L44.4181 24.2318L44.3881 24.3045L44.3591 24.3783ZM43.9962 27.3781L43.2772 27.3169L43.2767 27.3677L43.2705 27.2507L43.2655 27.1354L43.2616 27.0206L43.2588 26.9068L43.2577 26.7937V26.6821L43.2588 26.5717L43.2611 26.4618L43.2644 26.353L43.2689 26.2459L43.2744 26.1393L43.2817 26.0326L43.29 25.9282L43.2995 25.8249L43.3101 25.7221L43.3218 25.6204L43.3352 25.5193L43.3497 25.4192L43.3653 25.3208L43.382 25.223L43.4004 25.1256L43.4199 25.03L43.4405 24.9354L43.4623 24.8414L43.4857 24.7484L43.5102 24.6571L43.5358 24.5658L43.5632 24.4761L43.5916 24.3876L43.6211 24.3001L43.6518 24.2132L43.6841 24.1273L44.3591 24.3777L44.3312 24.4521L44.3044 24.5275L44.2783 24.6046L44.2532 24.6823L44.2292 24.761L44.2064 24.8408L44.1846 24.9223L44.164 25.0043L44.1445 25.0879L44.1261 25.1727L44.1083 25.2585L44.0921 25.3454L44.077 25.4334L44.0626 25.5231L44.0492 25.6133L44.0375 25.7046L44.0263 25.7976L44.0163 25.8916L44.0079 25.9867L44.0001 26.0829L43.9934 26.1797L43.9884 26.2781L43.9845 26.3782L43.9812 26.4788L43.9795 26.5805L43.9784 26.6838V26.7877L43.9795 26.8932L43.9817 26.9998L43.9856 27.1075L43.9901 27.2163L43.9957 27.3262L43.9951 27.377L43.9962 27.3781ZM44.3535 29.993L43.6908 30.2724V30.2719L43.6562 30.1904L43.6228 30.1084L43.591 30.0248L43.5609 29.9417L43.5319 29.8575L43.5041 29.7722L43.4779 29.6863L43.4528 29.5994L43.4294 29.5119L43.4076 29.4239L43.387 29.3353L43.3681 29.2462L43.3502 29.156L43.3341 29.0653L43.319 28.974L43.3056 28.881L43.2939 28.7881L43.2834 28.6951L43.2739 28.6011L43.2661 28.5065L43.2594 28.4114L43.2544 28.3152L43.2505 28.2179L43.2482 28.1205L43.2471 28.0221L43.2477 27.9232L43.2494 27.8237L43.2527 27.7236L43.2572 27.6236L43.2627 27.5219L43.27 27.4197L43.2783 27.3169L43.9973 27.3781L43.9895 27.4721L43.9834 27.5656L43.9784 27.658L43.9745 27.7499L43.9711 27.8406L43.97 27.9308L43.9695 28.02L43.9706 28.108L43.9728 28.196L43.9762 28.2824L43.9812 28.3682L43.9867 28.4535L43.994 28.5377L44.0024 28.6213L44.0118 28.7044L44.0224 28.7864L44.0341 28.8674L44.0475 28.9483L44.062 29.0281L44.0776 29.1068L44.0943 29.185L44.1122 29.2621L44.1311 29.3386L44.1512 29.4146L44.1724 29.4895L44.1952 29.5633L44.2192 29.6366L44.2443 29.7093L44.2705 29.782L44.2978 29.8531L44.3262 29.9236L44.3557 29.9936V29.993H44.3535ZM45.8266 31.7064L45.4426 32.3051L45.3696 32.2592L45.2982 32.2127L45.2274 32.1646L45.1578 32.1148L45.0892 32.0645L45.0218 32.0126L44.9555 31.9596L44.8908 31.9055L44.8273 31.8502L44.7648 31.7939L44.7035 31.7365L44.6433 31.678L44.5837 31.6179L44.5263 31.5572L44.4694 31.4949L44.4142 31.4315L44.3596 31.3669L44.3067 31.3013L44.2548 31.2352L44.2036 31.1668L44.1545 31.0985L44.1066 31.0291L44.0592 30.9585L44.0135 30.8864L43.9689 30.8131L43.9254 30.7393L43.8836 30.6644L43.8429 30.5879L43.8034 30.5108L43.7649 30.4326L43.7276 30.3539L43.6919 30.2735L44.3546 29.9941L44.3858 30.063L44.4176 30.1314L44.4505 30.1986L44.4839 30.2648L44.5185 30.3293L44.5547 30.3932L44.5909 30.4561L44.6283 30.5173L44.6667 30.578L44.7063 30.6376L44.747 30.6967L44.7888 30.7546L44.8312 30.8109L44.8746 30.8667L44.9192 30.9219L44.9644 30.9755L45.0106 31.028L45.058 31.0799L45.1065 31.1308L45.1555 31.1805L45.2057 31.2292L45.2575 31.2773L45.3099 31.3243L45.3634 31.3702L45.4175 31.4156L45.4727 31.4593L45.5295 31.5031L45.5869 31.5457L45.6455 31.5867L45.7051 31.6272L45.7659 31.6671L45.8272 31.7059L45.8266 31.7064ZM48.2634 32.3226V33.03L48.1625 33.0295L48.0622 33.0273L47.9624 33.024L47.8638 33.0191L47.7668 33.0131L47.6693 33.0054L47.5728 32.9961L47.4781 32.9858L47.3839 32.9743L47.2897 32.9612L47.1966 32.9464L47.1047 32.93L47.0132 32.9125L46.9229 32.8939L46.8332 32.8737L46.7446 32.8518L46.6571 32.8289L46.5696 32.8043L46.4832 32.778L46.3979 32.7507L46.3132 32.7217L46.2296 32.6911L46.1465 32.6588L46.0652 32.6255L45.9843 32.5905L45.9041 32.5539L45.8249 32.5161L45.7469 32.4768L45.6694 32.4363L45.5931 32.3942L45.5178 32.351L45.4431 32.3062L45.8272 31.7075L45.889 31.7447L45.952 31.7813L46.0161 31.8163L46.0808 31.8502L46.1465 31.883L46.2129 31.9147L46.2798 31.9454L46.3477 31.9743L46.4174 32.0028L46.4871 32.0296L46.5579 32.0553L46.6298 32.0799L46.7028 32.1034L46.7764 32.1258L46.8505 32.1466L46.9257 32.1668L47.0021 32.1854L47.0796 32.2029L47.1576 32.2193L47.2367 32.2346L47.317 32.2488L47.3984 32.2619L47.4803 32.2734L47.5639 32.2838L47.6486 32.2931L47.7334 32.3013L47.8192 32.3078L47.9067 32.3133L47.9948 32.3177L48.0834 32.321L48.1731 32.3226L48.264 32.3231L48.2634 32.3226ZM50.4879 31.8174L50.8412 32.4347L50.7727 32.4713L50.703 32.5074L50.6322 32.5424L50.5614 32.5757L50.4895 32.608L50.4165 32.6391L50.3429 32.6687L50.2688 32.6971L50.1941 32.7244L50.1183 32.7512L50.0414 32.7764L49.9639 32.8004L49.8859 32.8228L49.8068 32.8442L49.7276 32.8644L49.6474 32.8835L49.5654 32.9016L49.4835 32.918L49.4016 32.9333L49.318 32.9475L49.2338 32.9606L49.1491 32.9726L49.0632 32.9836L48.9774 32.9929L48.8904 33.0016L48.8029 33.0087L48.7149 33.0147L48.6257 33.0197L48.536 33.0235L48.4457 33.0262L48.3548 33.0284L48.2629 33.0289V32.3215L48.3453 32.321L48.4273 32.3193L48.5081 32.3166L48.5884 32.3128L48.6675 32.3084L48.7461 32.3024L48.8236 32.2958L48.9005 32.2882L48.9768 32.2794L49.051 32.2701L49.1251 32.2592L49.1981 32.2477L49.2706 32.2351L49.3425 32.222L49.4133 32.2078L49.4824 32.1925L49.5515 32.1761L49.62 32.1586L49.6869 32.14L49.7538 32.1209L49.819 32.1006L49.8831 32.0793L49.9472 32.0569L50.0108 32.0334L50.0732 32.0093L50.1345 31.9842L50.1952 31.9585L50.2554 31.9317L50.3145 31.9038L50.3725 31.8754L50.4299 31.8459L50.4873 31.8152L50.4879 31.8174ZM52.3784 30.2937L52.0691 30.9328L52.5367 30.7885L52.4983 30.853L52.4587 30.917L52.418 30.9804L52.3762 31.0427L52.3344 31.104L52.2909 31.1647L52.2469 31.2242L52.2023 31.2827L52.1561 31.3412L52.1087 31.3986L52.0607 31.455L52.0117 31.5107L51.9615 31.5648L51.9103 31.619L51.8579 31.672L51.8055 31.7234L51.752 31.7748L51.6973 31.8251L51.6422 31.8743L51.5859 31.9229L51.5285 31.9705L51.4699 32.0175L51.4109 32.0629L51.3507 32.1077L51.2899 32.1515L51.228 32.1947L51.1656 32.2368L51.1026 32.2778L51.038 32.3182L50.9728 32.3576L50.9064 32.3964L50.8396 32.4341L50.4862 31.8169L50.5436 31.7852L50.5993 31.7524L50.6545 31.719L50.7086 31.6851L50.7626 31.6501L50.8156 31.6146L50.8669 31.5785L50.9181 31.5419L50.9683 31.5042L51.0179 31.4659L51.0664 31.4271L51.1143 31.3872L51.1612 31.3473L51.2074 31.3057L51.2531 31.2636L51.2977 31.221L51.3423 31.1772L51.3852 31.1335L51.4276 31.0887L51.4694 31.0427L51.5101 30.9968L51.5502 30.9498L51.5898 30.9022L51.6277 30.8541L51.6656 30.8044L51.7029 30.7541L51.7391 30.7032L51.7748 30.6513L51.8094 30.5993L51.8434 30.5463L51.8768 30.4922L51.9091 30.4375L52.3768 30.2932L52.3784 30.2937ZM51.9108 30.4381C52.0095 30.2686 52.2302 30.2095 52.403 30.3063C52.5757 30.4031 52.6359 30.6196 52.5373 30.7891L51.9108 30.4381ZM56.2755 32.8923L52.0697 30.9328L52.379 30.2937L56.5849 32.2532L56.7655 32.7042L56.2761 32.8923H56.2755ZM56.5849 32.2532C56.7643 32.3368 56.8413 32.5478 56.756 32.7244C56.6707 32.9005 56.4556 32.9759 56.2755 32.8923L56.5849 32.2532ZM54.8966 35.2459L54.4234 34.7123L54.4948 34.6511L54.565 34.5887L54.6341 34.5259L54.7015 34.4624L54.7673 34.399L54.8325 34.334L54.8961 34.2689L54.9585 34.2033L55.0198 34.1366L55.08 34.0693L55.1385 34.0021L55.1959 33.9338L55.2528 33.8649L55.308 33.7954L55.362 33.7255L55.4144 33.6555L55.4657 33.5844L55.5164 33.5122L55.5655 33.4395L55.6134 33.3668L55.6602 33.293L55.7059 33.2187L55.7499 33.1438L55.7929 33.0683L55.8352 32.9918L55.8759 32.9152L55.9155 32.8376L55.9539 32.76L55.9913 32.6807L56.0275 32.6014L56.0621 32.5216L56.0955 32.4407L56.7655 32.7037L56.7276 32.7939L56.6885 32.8841L56.6479 32.9732L56.6061 33.0612L56.5631 33.1492L56.5186 33.2367L56.4723 33.3231L56.4255 33.4084L56.377 33.4931L56.3268 33.5779L56.2755 33.661L56.2231 33.7441L56.1691 33.8266L56.1139 33.9075L56.0576 33.9879L55.9996 34.0683L55.94 34.1481L55.8798 34.2263L55.8179 34.3039L55.755 34.381L55.6903 34.457L55.6245 34.533L55.5577 34.6073L55.4897 34.6811L55.42 34.7549L55.3486 34.8276L55.2767 34.8993L55.2032 34.9703L55.1279 35.0409L55.0521 35.1103L54.9747 35.1792L54.8961 35.247L54.8966 35.2459ZM51.9225 36.9117L51.6834 36.2442L51.7826 36.2092L51.8807 36.1737L51.9777 36.137L52.0741 36.0998L52.1689 36.0621L52.2636 36.0228L52.3573 35.9829L52.4498 35.9424L52.5417 35.9008L52.6326 35.8587L52.7235 35.8156L52.8126 35.7718L52.9013 35.727L52.9888 35.6811L53.0757 35.634L53.1621 35.5865L53.2468 35.5384L53.331 35.4892L53.4146 35.4389L53.4971 35.388L53.5785 35.3366L53.6587 35.2841L53.739 35.2306L53.8181 35.1764L53.8961 35.1212L53.9742 35.0649L54.0505 35.0081L54.1269 34.9501L54.2021 34.8916L54.2757 34.8326L54.3493 34.7724L54.4223 34.7112L54.8955 35.2448L54.8164 35.3115L54.7361 35.3776L54.6547 35.4432L54.5722 35.5072L54.4897 35.5701L54.4056 35.6324L54.3209 35.6931L54.235 35.7532L54.1481 35.8128L54.0611 35.8708L53.9725 35.9282L53.8828 35.9845L53.793 36.0397L53.7022 36.0938L53.6102 36.1474L53.5171 36.2004L53.4241 36.2518L53.3299 36.3027L53.2346 36.3524L53.1381 36.4011L53.0412 36.4486L52.9436 36.4957L52.845 36.5416L52.7457 36.5864L52.6454 36.6302L52.544 36.6728L52.4425 36.7149L52.3394 36.7559L52.2358 36.7958L52.1315 36.8346L52.0256 36.8729L51.9197 36.9095L51.9225 36.9117ZM48.1932 37.4994V36.792L48.3119 36.7914L48.4306 36.7898L48.5482 36.7871L48.6653 36.7832L48.7812 36.7783L48.8971 36.7723L49.0125 36.7652L49.1268 36.757L49.2405 36.7477L49.3531 36.7373L49.4657 36.7258L49.5771 36.7138L49.6886 36.7001L49.7995 36.6859L49.9093 36.6706L50.0186 36.6542L50.1272 36.6367L50.2354 36.6181L50.3429 36.5984L50.4494 36.5777L50.5559 36.5553L50.6612 36.5323L50.7665 36.5082L50.8708 36.4831L50.9739 36.4569L51.077 36.4295L51.179 36.4011L51.281 36.3716L51.3819 36.3409L51.4828 36.3092L51.5831 36.277L51.6823 36.2436L51.9214 36.9112L51.8138 36.9478L51.7063 36.9828L51.5981 37.0167L51.4894 37.0495L51.3796 37.0812L51.2693 37.1118L51.1589 37.1413L51.0475 37.1698L50.9354 37.1966L50.8228 37.2223L50.7097 37.2469L50.596 37.2704L50.4812 37.2928L50.3664 37.3141L50.2504 37.3343L50.1339 37.3535L50.0169 37.3715L49.8993 37.3879L49.7817 37.4032L49.663 37.4174L49.5437 37.4305L49.4238 37.4426L49.3029 37.4535L49.182 37.4628L49.0604 37.4716L48.9384 37.4787L48.8158 37.4852L48.692 37.4901L48.5683 37.494L48.4434 37.4972L48.318 37.4989L48.1926 37.4994H48.1932ZM64.2002 36.1419L64.5725 35.5362L64.7057 35.6133L64.84 35.6882L64.9755 35.7609L65.1115 35.8309L65.2491 35.8981L65.3879 35.9632L65.5278 36.0255L65.6688 36.0856L65.8109 36.143L65.9536 36.1983L66.0985 36.2507L66.244 36.301L66.3906 36.3491L66.5378 36.3945L66.6866 36.4377L66.8365 36.4782L66.9875 36.5159L67.1397 36.552L67.293 36.5848L67.4479 36.6154L67.6034 36.6438L67.7612 36.6695L67.9195 36.693L68.0789 36.7138L68.2394 36.7324L68.401 36.7483L68.5638 36.7619L68.7282 36.7729L68.8937 36.7816L69.0609 36.7876L69.2293 36.7914L69.3981 36.7925V37.5L69.2181 37.4989L69.0392 37.4951L68.8614 37.4885L68.6847 37.4792L68.5092 37.4672L68.3341 37.453L68.1608 37.4355L67.9886 37.4158L67.8175 37.3934L67.6475 37.3677L67.4786 37.3398L67.3108 37.3092L67.1447 37.2764L66.9786 37.2403L66.8142 37.202L66.6509 37.161L66.4893 37.1173L66.3282 37.0708L66.1688 37.0216L66.0099 36.9697L65.8527 36.9155L65.6967 36.8587L65.5417 36.7991L65.3879 36.7368L65.2352 36.6717L65.0841 36.6039L64.9342 36.5339L64.7848 36.4607L64.6366 36.3847L64.4906 36.3065L64.3451 36.2256L64.2013 36.1419H64.2002ZM60.5845 32.4713L61.2138 32.1247L61.2918 32.2586L61.3715 32.3909L61.4529 32.5211L61.5365 32.6495L61.6212 32.7764L61.7082 32.9016L61.7968 33.0251L61.8865 33.1465L61.9785 33.2662L62.0721 33.3843L62.1674 33.5002L62.2644 33.615L62.3631 33.7277L62.464 33.8386L62.566 33.948L62.6702 34.0551L62.7761 34.1612L62.8831 34.2645L62.9924 34.3668L63.1033 34.4668L63.2159 34.5652L63.3307 34.6625L63.4472 34.7577L63.5653 34.8512L63.6852 34.943L63.8067 35.0332L63.9298 35.1218L64.0547 35.2082L64.1818 35.2929L64.3105 35.376L64.4409 35.4575L64.573 35.5373L64.2007 36.143L64.0586 36.0572L63.9187 35.9703L63.7805 35.8812L63.6439 35.7899L63.5096 35.6969L63.3769 35.6018L63.246 35.505L63.1166 35.4061L62.9896 35.3055L62.8642 35.2032L62.741 35.0988L62.6195 34.9922L62.4996 34.884L62.3815 34.7735L62.2655 34.6614L62.1518 34.5477L62.0393 34.4318L61.9289 34.3143L61.8208 34.1945L61.7143 34.0732L61.6095 33.9502L61.507 33.825L61.4061 33.6981L61.3069 33.5691L61.2099 33.4384L61.1151 33.3061L61.0221 33.1722L60.9307 33.0361L60.8415 32.8977L60.754 32.7578L60.6681 32.6162L60.5845 32.4729V32.4713ZM59.2591 27.3475H59.9803L59.9815 27.5115L59.9848 27.675L59.9909 27.8368L59.9993 27.9975L60.0099 28.1583L60.0233 28.3174L60.0389 28.4748L60.0573 28.6323L60.0779 28.7886L60.1007 28.9439L60.1258 29.0986L60.1537 29.2517L60.1838 29.4042L60.2161 29.5557L60.2512 29.706L60.2886 29.8553L60.3287 30.004L60.3705 30.1516L60.4151 30.2981L60.4619 30.4441L60.511 30.589L60.5628 30.7327L60.6169 30.876L60.6732 31.0181L60.7322 31.1592L60.7935 31.2997L60.8571 31.4391L60.9229 31.578L60.9914 31.7157L61.0622 31.853L61.1358 31.9891L61.2116 32.1241L60.5823 32.4708L60.5009 32.3253L60.4223 32.1788L60.346 32.0317L60.2719 31.8836L60.2005 31.7343L60.132 31.5845L60.0656 31.4331L60.0021 31.2806L59.9413 31.1275L59.8828 30.9733L59.8271 30.818L59.7741 30.6622L59.724 30.5053L59.676 30.3473L59.6309 30.1882L59.588 30.0286L59.5478 29.8678L59.5105 29.706L59.4759 29.5431L59.4436 29.3796L59.4135 29.2151L59.3862 29.05L59.3617 28.8838L59.3399 28.7165L59.3204 28.5486L59.3037 28.3791L59.2898 28.2091L59.2781 28.038L59.2691 27.8663L59.263 27.6936L59.2591 27.5203L59.258 27.3459L59.2591 27.3475ZM60.6035 22.2035L61.2294 22.5555L61.1525 22.6895L61.0784 22.8245L61.0065 22.9607L60.9368 23.0979L60.8699 23.2357L60.8052 23.3745L60.7428 23.5145L60.6832 23.655L60.6258 23.7966L60.5712 23.9398L60.5188 24.0836L60.4686 24.2285L60.4207 24.3739L60.3755 24.521L60.3332 24.6686L60.293 24.8178L60.2551 24.9682L60.2195 25.1191L60.1866 25.2711L60.1559 25.4247L60.1281 25.5789L60.1024 25.7347L60.079 25.891L60.0584 26.0485L60.04 26.207L60.0238 26.3667L60.0104 26.5274L59.9993 26.6892L59.9909 26.8522L59.9848 27.0162L59.9815 27.1813L59.9803 27.3475H59.2591L59.2602 27.1709L59.2641 26.9954L59.2708 26.821L59.2797 26.6472L59.2914 26.4744L59.3059 26.3027L59.3227 26.1321L59.3422 25.9627L59.3645 25.7937L59.3895 25.6259L59.4169 25.4597L59.4469 25.294L59.4798 25.1295L59.5155 24.966L59.5534 24.8031L59.5941 24.6418L59.6376 24.4816L59.6833 24.322L59.7318 24.1634L59.783 24.006L59.8371 23.8496L59.8934 23.6943L59.9525 23.5402L60.0138 23.3871L60.0784 23.2351L60.1453 23.0842L60.215 22.9344L60.2875 22.7857L60.3621 22.6381L60.4396 22.4916L60.5199 22.3461L60.6029 22.2018L60.6035 22.2035ZM64.2353 18.5525L64.6076 19.1583L64.4749 19.2381L64.344 19.3195L64.2158 19.4026L64.0887 19.4874L63.9633 19.5738L63.8401 19.6618L63.718 19.7514L63.5982 19.8427L63.48 19.9357L63.363 20.0308L63.2482 20.1276L63.135 20.226L63.0236 20.326L62.9138 20.4283L62.8051 20.5316L62.6992 20.6366L62.5944 20.7437L62.4918 20.852L62.3904 20.9624L62.2906 21.0745L62.1931 21.1882L62.0972 21.3041L62.0025 21.4217L61.9099 21.5403L61.8191 21.6611L61.7294 21.7836L61.6419 21.9082L61.556 22.034L61.4719 22.1619L61.3894 22.2915L61.3085 22.4227L61.2294 22.5555L60.6035 22.2035L60.6882 22.0613L60.7746 21.9208L60.8632 21.7819L60.9535 21.6447L61.0455 21.5097L61.1397 21.3768L61.2355 21.2451L61.3336 21.1149L61.4334 20.987L61.5348 20.8613L61.638 20.7372L61.7433 20.6142L61.8503 20.4933L61.959 20.3747L62.0699 20.2577L62.1825 20.1423L62.2973 20.0286L62.4138 19.9171L62.532 19.8078L62.6518 19.6995L62.7739 19.5934L62.8976 19.4896L63.023 19.3873L63.1506 19.2867L63.2799 19.1883L63.4109 19.0916L63.5441 18.997L63.6785 18.904L63.815 18.8127L63.9538 18.7236L64.0937 18.6367L64.2353 18.5514V18.5525ZM69.3636 17.1945V17.9019L69.1986 17.903L69.0347 17.9068L68.872 17.9128L68.7104 17.9216L68.5498 17.9325L68.3904 17.9462L68.2321 17.962L68.0744 17.9806L67.9183 18.0014L67.7634 18.0249L67.609 18.0506L67.4563 18.079L67.3041 18.1097L67.1531 18.1425L67.0032 18.178L66.8543 18.2157L66.7066 18.2562L66.5595 18.2994L66.4135 18.3447L66.2685 18.3923L66.1247 18.4426L65.9821 18.4951L65.8399 18.5503L65.6989 18.6077L65.559 18.6679L65.4202 18.7302L65.282 18.7952L65.1449 18.863L65.0089 18.9325L64.874 19.0046L64.7397 19.0795L64.6065 19.1572L64.2342 18.5514L64.378 18.4678L64.5229 18.3868L64.6689 18.3087L64.8161 18.2327L64.9643 18.16L65.1137 18.0894L65.2642 18.0216L65.4158 17.9566L65.5685 17.8943L65.7223 17.8347L65.8767 17.7778L66.0328 17.7231L66.1894 17.6717L66.3471 17.6225L66.506 17.5761L66.6659 17.5323L66.827 17.4913L66.9887 17.4525L67.152 17.417L67.3158 17.3836L67.4808 17.353L67.6469 17.3251L67.8141 17.3L67.9819 17.2776L68.1508 17.2579L68.3208 17.2404L68.4919 17.2262L68.6641 17.2141L68.8374 17.2048L69.0113 17.1983L69.1864 17.1945L69.3625 17.1934L69.3636 17.1945ZM73.2534 18.0036L72.9397 18.6405L72.8427 18.5951L72.7446 18.5514L72.6454 18.5088L72.5456 18.4678L72.4447 18.4284L72.3427 18.3901L72.2402 18.3535L72.1365 18.3185L72.0323 18.2846L71.9269 18.2524L71.8205 18.2212L71.7134 18.1917L71.6048 18.1638L71.495 18.137L71.3852 18.1113L71.2742 18.0878L71.1622 18.0654L71.0491 18.0446L70.9354 18.0249L70.8205 18.0069L70.7046 17.9899L70.5876 17.9746L70.4694 17.961L70.3507 17.9484L70.2309 17.9374L70.1099 17.9276L69.9884 17.9199L69.8652 17.9134L69.7415 17.9085L69.6166 17.9046L69.4907 17.9025L69.3642 17.9014V17.1939L69.499 17.195L69.6334 17.1972L69.7671 17.201L69.8998 17.2065L70.0313 17.2136L70.1623 17.2223L70.2927 17.2327L70.422 17.2442L70.5502 17.2573L70.6779 17.2721L70.8049 17.2885L70.9303 17.3065L71.0552 17.3262L71.1795 17.3475L71.3021 17.37L71.4242 17.3946L71.5451 17.4203L71.6655 17.4481L71.7848 17.4777L71.9035 17.5083L72.0217 17.5411L72.1382 17.575L72.2541 17.6105L72.3689 17.6477L72.4826 17.6865L72.5963 17.727L72.7078 17.7691L72.8193 17.8128L72.9296 17.8582L73.0383 17.9052L73.147 17.9533L73.2546 18.0036H73.2534ZM75.9589 20.7202L75.3865 20.2894L75.3714 20.6994L75.3151 20.6169L75.2577 20.5354L75.1987 20.4556L75.1385 20.3769L75.0771 20.2992L75.0147 20.2227L74.9506 20.1473L74.8854 20.0729L74.8191 20.0002L74.7516 19.9286L74.6825 19.8581L74.6123 19.7886L74.541 19.7203L74.4685 19.653L74.3949 19.5874L74.3191 19.5224L74.2428 19.4584L74.1653 19.3961L74.0861 19.3348L74.0059 19.2747L73.924 19.2157L73.8409 19.1572L73.7568 19.1003L73.6709 19.0445L73.584 18.9899L73.4959 18.9368L73.4062 18.8849L73.3148 18.8335L73.2228 18.7832L73.1292 18.7346L73.0344 18.6864L72.9385 18.64L73.2523 18.003L73.3588 18.0544L73.4636 18.1069L73.5672 18.161L73.6692 18.2168L73.7696 18.2731L73.8693 18.3311L73.968 18.3907L74.0644 18.4514L74.1597 18.5137L74.2545 18.5771L74.347 18.6416L74.4384 18.7078L74.5287 18.7756L74.6173 18.8444L74.7048 18.9144L74.7907 18.986L74.8754 19.0588L74.959 19.1331L75.0404 19.2086L75.1206 19.2851L75.1998 19.3633L75.2772 19.4425L75.353 19.5235L75.4283 19.6055L75.5013 19.6891L75.5732 19.7739L75.6434 19.8597L75.7125 19.9472L75.78 20.0357L75.8458 20.1259L75.9104 20.2172L75.9734 20.3096L75.9583 20.7197L75.9589 20.7202ZM75.9739 20.3102C76.0837 20.4731 76.0375 20.6929 75.8714 20.8C75.7053 20.9077 75.4812 20.8624 75.372 20.6994L75.9739 20.3102ZM74.58 21.3211L75.3865 20.2894L75.9589 20.7202L75.1524 21.7519L74.5053 21.5365L74.58 21.3211ZM75.1524 21.7519C75.0314 21.9066 74.8046 21.9361 74.6469 21.8175C74.4891 21.6988 74.459 21.4763 74.58 21.3216L75.1524 21.7524V21.7519ZM75.2271 10.7066V21.5365H74.5058V10.7066L74.8665 10.3529L75.2271 10.7066ZM74.5058 10.7066C74.5058 10.5114 74.6675 10.3529 74.8665 10.3529C75.0654 10.3529 75.2271 10.5114 75.2271 10.7066H74.5058ZM80.1241 11.0603H74.8665V10.3529H80.1241L80.4847 10.7066L80.1241 11.0603ZM80.1241 10.3529C80.3231 10.3529 80.4847 10.5114 80.4847 10.7066C80.4847 10.9018 80.3231 11.0603 80.1241 11.0603V10.3529ZM79.7635 36.7329V10.7066H80.4847V36.7329L80.1241 37.0867L79.7635 36.7329ZM80.4847 36.7329C80.4847 36.9281 80.3231 37.0867 80.1241 37.0867C79.9251 37.0867 79.7635 36.9281 79.7635 36.7329H80.4847ZM75.217 36.3792H80.1241V37.0867H75.217L74.8564 36.7329L75.217 36.3792ZM75.217 37.0867C75.0181 37.0867 74.8564 36.9281 74.8564 36.7329C74.8564 36.5378 75.0181 36.3792 75.217 36.3792V37.0867ZM75.5777 33.2947V36.7329H74.8564V33.2947L75.5459 33.1492L75.5782 33.2947H75.5777ZM74.8564 33.2947C74.8564 33.0995 75.0181 32.9409 75.217 32.9409C75.416 32.9409 75.5777 33.0995 75.5777 33.2947H74.8564ZM75.3792 34.5062L74.8882 33.4401L75.5453 33.1487L76.0364 34.2148L76.0029 34.5636L75.3787 34.5062H75.3792ZM76.0364 34.2148C76.1183 34.393 76.0375 34.6024 75.8563 34.6828C75.6746 34.7631 75.4612 34.6839 75.3792 34.5062L76.0364 34.2148ZM73.1855 36.7652L72.9023 36.1146L73.0015 36.072L73.0991 36.0282L73.1955 35.9834L73.2908 35.9375L73.3844 35.8905L73.477 35.8418L73.5684 35.792L73.6581 35.7412L73.7462 35.6893L73.8331 35.6362L73.9189 35.5821L74.0031 35.5263L74.0861 35.4695L74.1675 35.4115L74.2478 35.3519L74.3269 35.2918L74.4044 35.2306L74.4808 35.1677L74.556 35.1037L74.6296 35.0381L74.702 34.9714L74.7728 34.9036L74.8425 34.8342L74.9111 34.7642L74.9779 34.6926L75.0437 34.6199L75.1084 34.5461L75.1719 34.4712L75.2338 34.3946L75.2945 34.317L75.3542 34.2383L75.4127 34.1579L76.0035 34.5641L75.9377 34.6543L75.8703 34.7434L75.8012 34.8315L75.7315 34.9173L75.6596 35.002L75.5866 35.0857L75.5119 35.1677L75.4361 35.2486L75.3586 35.3279L75.28 35.4055L75.1998 35.4826L75.1178 35.5575L75.0342 35.6313L74.9495 35.7035L74.8637 35.7745L74.7762 35.844L74.687 35.9123L74.5973 35.979L74.5053 36.0446L74.4122 36.1086L74.318 36.1709L74.2221 36.2322L74.1252 36.2917L74.026 36.3502L73.9256 36.4071L73.8242 36.4623L73.7211 36.5164L73.6169 36.5689L73.5115 36.6198L73.405 36.6695L73.2964 36.7176L73.1866 36.7647L73.1855 36.7652ZM69.3981 37.4989V36.7914L69.5163 36.7909L69.6339 36.7887L69.7515 36.7854L69.868 36.7811L69.9839 36.775L70.0993 36.7679L70.2141 36.7597L70.3278 36.7499L70.4415 36.7384L70.5547 36.7258L70.6667 36.7116L70.7782 36.6963L70.8897 36.6799L71.0006 36.6619L71.1109 36.6427L71.2202 36.6225L71.3294 36.6006L71.4381 36.5777L71.5462 36.5531L71.6538 36.5274L71.7608 36.5006L71.8673 36.4722L71.9732 36.4426L72.0785 36.4115L72.1833 36.3792L72.2875 36.3453L72.3912 36.3103L72.4943 36.2737L72.5969 36.236L72.6989 36.1972L72.8003 36.1572L72.9017 36.1157L73.1849 36.7663L73.0751 36.8111L72.9647 36.8549L72.8538 36.897L72.7429 36.938L72.6303 36.9773L72.5177 37.015L72.4046 37.0517L72.2909 37.0867L72.1766 37.12L72.0618 37.1523L71.9464 37.1829L71.8305 37.2124L71.7146 37.2403L71.5975 37.2671L71.4799 37.2922L71.3617 37.3157L71.243 37.3382L71.1237 37.3589L71.0045 37.3781L70.8846 37.3961L70.7637 37.4125L70.6416 37.4273L70.5201 37.4404L70.3981 37.4524L70.2749 37.4634L70.1517 37.4726L70.028 37.4803L69.9031 37.4869L69.7783 37.4918L69.6529 37.4951L69.5263 37.4972L69.3998 37.4978L69.3981 37.4989ZM72.3644 31.5484L72.7412 32.1515L72.6671 32.1947L72.5919 32.2373L72.5166 32.2778L72.4408 32.3171L72.3633 32.3554L72.2859 32.392L72.2078 32.427L72.1287 32.4609L72.049 32.4932L71.9687 32.5243L71.8873 32.5539L71.8054 32.5823L71.7218 32.6096L71.6388 32.6348L71.5552 32.6588L71.4699 32.6818L71.3846 32.7031L71.2988 32.7228L71.2118 32.7414L71.1243 32.7589L71.0362 32.7747L70.9476 32.7889L70.8585 32.8021L70.7687 32.8135L70.6779 32.8239L70.587 32.8327L70.4956 32.8403L70.4025 32.8463L70.3094 32.8507L70.2164 32.854L70.1222 32.8562L70.0274 32.8567V32.1493L70.1116 32.1487L70.1952 32.1471L70.2782 32.1438L70.3602 32.14L70.4404 32.1345L70.5212 32.128L70.6015 32.1203L70.6795 32.1116L70.7576 32.1012L70.835 32.0897L70.9114 32.0771L70.9878 32.0635L71.063 32.0487L71.1377 32.0328L71.2118 32.0153L71.2848 31.9973L71.3567 31.9782L71.4286 31.9574L71.5 31.9355L71.5696 31.9131L71.6393 31.8891L71.7084 31.8634L71.7764 31.8371L71.8439 31.8092L71.9113 31.7808L71.9776 31.7507L72.0434 31.7201L72.1081 31.6884L72.1727 31.6551L72.2368 31.6206L72.2998 31.5851L72.3622 31.5484H72.3644ZM73.9318 29.8657L74.5733 30.1899L74.532 30.2675L74.4897 30.344L74.4462 30.4195L74.4016 30.4933L74.3565 30.5665L74.3097 30.6393L74.2617 30.7109L74.2132 30.7809L74.1636 30.8503L74.1129 30.9181L74.0611 30.9859L74.0081 31.0526L73.9546 31.1176L73.9 31.1816L73.8437 31.245L73.7868 31.3068L73.7294 31.3675L73.6704 31.4276L73.6107 31.4861L73.55 31.5441L73.4881 31.6009L73.4251 31.6567L73.361 31.7108L73.2964 31.7639L73.23 31.8163L73.1632 31.8677L73.0957 31.918L73.0266 31.9672L72.9569 32.0153L72.8867 32.0618L72.8148 32.1077L72.7418 32.152L72.365 31.549L72.4274 31.5113L72.4887 31.4719L72.5495 31.432L72.6091 31.391L72.6677 31.3494L72.7256 31.3068L72.7825 31.2636L72.8382 31.2193L72.8939 31.1734L72.948 31.1275L73.001 31.0805L73.0539 31.0323L73.1057 30.9831L73.157 30.9328L73.2072 30.882L73.2562 30.8301L73.3053 30.777L73.3527 30.7235L73.3995 30.6682L73.4457 30.6125L73.4909 30.5562L73.5349 30.4988L73.5784 30.4397L73.6213 30.3801L73.6637 30.3189L73.7044 30.2577L73.7445 30.1953L73.7841 30.1314L73.8225 30.0663L73.8604 30.0007L73.8978 29.934L73.934 29.8662L73.9318 29.8657ZM74.5053 27.3464H75.2265L75.226 27.4454L75.2237 27.5427L75.2209 27.6405L75.2165 27.7373L75.2109 27.833L75.2042 27.9286L75.1959 28.0238L75.1864 28.1189L75.1752 28.2124L75.1635 28.3048L75.1502 28.3977L75.1357 28.4896L75.1201 28.5809L75.1028 28.6716L75.0844 28.7613L75.0649 28.8504L75.0443 28.9395L75.022 29.0275L74.998 29.115L74.9729 29.2019L74.9467 29.2878L74.9194 29.3736L74.8904 29.4584L74.8603 29.542L74.8291 29.6257L74.7968 29.7082L74.7628 29.7908L74.7277 29.8717L74.6909 29.9526L74.653 30.0324L74.614 30.1117L74.5733 30.1904L73.9318 29.8662L73.9669 29.7984L74.0009 29.7295L74.0338 29.6601L74.0655 29.5901L74.0962 29.5196L74.1252 29.4485L74.1536 29.3764L74.1809 29.3036L74.2071 29.2298L74.2322 29.156L74.2561 29.0811L74.279 29.0057L74.3007 28.9297L74.3214 28.8531L74.3409 28.7755L74.3598 28.6973L74.3771 28.6186L74.3933 28.5388L74.4089 28.4584L74.4228 28.3775L74.4356 28.296L74.4473 28.214L74.4579 28.1304L74.4674 28.0462L74.4757 27.962L74.483 27.8767L74.4891 27.7909L74.4941 27.704L74.498 27.6165L74.5008 27.5285L74.5025 27.4393L74.5031 27.3497L74.5053 27.3464ZM73.9318 24.8266L74.5733 24.5029L74.614 24.5817L74.653 24.6609L74.6909 24.7408L74.7277 24.8217L74.7628 24.9026L74.7968 24.9851L74.8291 25.0677L74.8603 25.1513L74.8904 25.235L74.9194 25.3197L74.9467 25.4056L74.9729 25.4914L74.998 25.5783L75.0214 25.6658L75.0437 25.7538L75.0643 25.8429L75.0838 25.932L75.1022 26.0217L75.1195 26.1125L75.1351 26.2038L75.1496 26.2956L75.163 26.3886L75.1747 26.481L75.1858 26.5744L75.1953 26.6696L75.2037 26.7647L75.2109 26.8604L75.2165 26.956L75.2209 27.0528L75.2237 27.1507L75.226 27.248L75.2265 27.3469H74.5053L74.5047 27.2573L74.5031 27.1682L74.5003 27.0801L74.4964 26.9927L74.4914 26.9052L74.4852 26.8194L74.478 26.7341L74.4696 26.6499L74.4601 26.5657L74.4496 26.482L74.4379 26.4L74.425 26.318L74.4111 26.2371L74.3955 26.1567L74.3793 26.0769L74.362 25.9982L74.3431 25.92L74.3236 25.8424L74.303 25.7658L74.2812 25.6899L74.2584 25.6144L74.2344 25.5395L74.2093 25.4657L74.1831 25.3919L74.1558 25.3192L74.1274 25.247L74.0984 25.1759L74.0678 25.1054L74.036 25.0354L74.0031 24.966L73.9691 24.8971L73.934 24.8293L73.9318 24.8266ZM72.3644 23.1444L72.7412 22.5413L72.8142 22.5856L72.8861 22.6315L72.9564 22.678L73.026 22.7261L73.0951 22.7753L73.1626 22.8256L73.2295 22.877L73.2958 22.9295L73.3605 22.9825L73.4246 23.0366L73.4875 23.0924L73.5494 23.1493L73.6102 23.2072L73.6698 23.2657L73.7289 23.3259L73.7863 23.3865L73.8431 23.4483L73.8994 23.5117L73.9541 23.5757L74.0076 23.6408L74.0605 23.7075L74.1123 23.7753L74.1631 23.8431L74.2127 23.9125L74.2612 23.9825L74.3091 24.0541L74.3559 24.1268L74.4011 24.2001L74.4457 24.2739L74.4891 24.3493L74.5315 24.4259L74.5727 24.5035L73.9312 24.8271L73.895 24.7593L73.8576 24.6926L73.8197 24.627L73.7813 24.562L73.7417 24.498L73.7016 24.4357L73.6609 24.3745L73.6185 24.3132L73.5756 24.2536L73.5321 24.1946L73.4881 24.1372L73.443 24.0809L73.3967 24.0251L73.3499 23.9699L73.3025 23.9163L73.2534 23.8633L73.2044 23.8113L73.1542 23.7605L73.103 23.7102L73.0511 23.661L72.9982 23.6129L72.9452 23.5659L72.8912 23.5199L72.8354 23.474L72.7797 23.4297L72.7228 23.3865L72.6649 23.3439L72.6063 23.3024L72.5467 23.2613L72.486 23.2214L72.4246 23.1821L72.3622 23.1444H72.3644ZM70.0291 22.543V21.8355L70.1238 21.8361L70.218 21.8383L70.3111 21.8415L70.4042 21.8459L70.4973 21.8519L70.5887 21.8596L70.6795 21.8683L70.7704 21.8787L70.8601 21.8902L70.9493 21.9033L71.0379 21.9175L71.126 21.9334L71.2135 21.9509L71.3004 21.9695L71.3863 21.9891L71.4716 22.0105L71.5568 22.0334L71.6404 22.0575L71.7235 22.0826L71.8071 22.11L71.889 22.1384L71.9704 22.1679L72.0506 22.1991L72.1304 22.2313L72.2095 22.2652L72.2875 22.3002L72.365 22.3369L72.4425 22.3751L72.5183 22.4145L72.5935 22.4549L72.6688 22.4976L72.7429 22.5408L72.3661 23.1438L72.3037 23.1072L72.2407 23.0716L72.1766 23.0372L72.112 23.0038L72.0473 22.9721L71.9815 22.9415L71.9152 22.9115L71.8478 22.883L71.7803 22.8551L71.7123 22.8289L71.6432 22.8032L71.5735 22.7791L71.5039 22.7567L71.4325 22.7349L71.3606 22.7141L71.2887 22.695L71.2157 22.6769L71.1416 22.6594L71.0669 22.6436L70.9917 22.6288L70.9153 22.6151L70.8389 22.6026L70.7615 22.5911L70.6834 22.5807L70.6054 22.5719L70.5251 22.5643L70.4443 22.5577L70.3641 22.5523L70.2821 22.5484L70.1991 22.5452L70.1155 22.5435L70.0313 22.543H70.0291ZM67.6385 23.1629L67.2673 22.5561L67.3443 22.5118L67.4217 22.4686L67.4998 22.4271L67.5789 22.3866L67.6581 22.3478L67.7383 22.3106L67.8197 22.2745L67.9011 22.2401L67.9824 22.2073L68.0655 22.1756L68.1491 22.1455L68.2327 22.1165L68.3174 22.0892L68.4021 22.0635L68.488 22.0389L68.5744 22.0154L68.6608 21.9935L68.7483 21.9733L68.8363 21.9547L68.9249 21.9372L69.0147 21.9208L69.1044 21.906L69.1942 21.8929L69.285 21.8809L69.3759 21.8705L69.4678 21.8612L69.5609 21.8536L69.6534 21.8475L69.7465 21.8426L69.8407 21.8393L69.9349 21.8372L70.0296 21.8366V22.5441L69.9455 22.5446L69.8619 22.5462L69.7794 22.5495L69.6969 22.5539L69.6144 22.5594L69.5342 22.5659L69.4539 22.5741L69.3742 22.5834L69.2956 22.5938L69.217 22.6058L69.139 22.6184L69.0621 22.6326L68.9857 22.6479L68.9093 22.6643L68.8341 22.6818L68.7594 22.7004L68.6853 22.7201L68.6117 22.7414L68.5381 22.7638L68.4657 22.7873L68.3938 22.8119L68.3224 22.8376L68.2522 22.865L68.1814 22.8934L68.1118 22.9229L68.0426 22.9535L67.9741 22.9858L67.9055 23.0192L67.8381 23.0536L67.7712 23.0891L67.7043 23.1263L67.638 23.1646L67.6385 23.1629ZM66.0005 24.849L65.3651 24.5144L65.408 24.4379L65.452 24.363L65.4966 24.2881L65.5429 24.2143L65.5897 24.1416L65.6382 24.0699L65.6872 23.9994L65.7374 23.93L65.7887 23.8611L65.841 23.7933L65.8946 23.7266L65.9492 23.6605L66.0049 23.5954L66.0618 23.5314L66.1197 23.4686L66.1788 23.4068L66.239 23.3461L66.3003 23.286L66.3627 23.2269L66.4257 23.1695L66.4898 23.1132L66.555 23.0574L66.6214 23.0028L66.6888 22.9492L66.7574 22.8967L66.827 22.8448L66.8984 22.7939L66.9697 22.7447L67.0416 22.696L67.1157 22.6485L67.1904 22.602L67.2657 22.5566L67.6369 23.1635L67.5711 23.2028L67.5065 23.2433L67.4429 23.2843L67.3799 23.3264L67.3175 23.3696L67.2573 23.4128L67.1977 23.4571L67.1386 23.5024L67.0806 23.5484L67.0232 23.5954L66.9669 23.6435L66.9117 23.6922L66.8577 23.7414L66.8047 23.7917L66.7523 23.8431L66.7005 23.895L66.6498 23.948L66.6002 24.0016L66.5517 24.0563L66.5038 24.1115L66.4569 24.1678L66.4107 24.2252L66.3655 24.2832L66.3209 24.3427L66.2775 24.4029L66.2345 24.4636L66.1933 24.5254L66.1526 24.5882L66.113 24.6516L66.074 24.7162L66.0361 24.7823L65.9988 24.849H66.0005ZM65.413 27.3464H64.6918L64.6923 27.2474L64.6945 27.1496L64.6979 27.0517L64.7023 26.955L64.7085 26.8587L64.7157 26.7636L64.7241 26.669L64.7341 26.5744L64.7453 26.481L64.7575 26.388L64.7709 26.2956L64.786 26.2043L64.8021 26.113L64.82 26.0228L64.8389 25.9337L64.859 25.8446L64.8807 25.7555L64.9036 25.6685L64.9275 25.5816L64.9532 25.4952L64.9799 25.4099L65.0083 25.3246L65.0379 25.241L65.0691 25.1568L65.1014 25.0743L65.1349 24.9922L65.17 24.9102L65.2062 24.8299L65.2435 24.7501L65.2826 24.6708L65.3227 24.5926L65.3645 24.515L65.9999 24.8496L65.9642 24.9163L65.9291 24.984L65.8951 25.0524L65.8628 25.1213L65.8316 25.1913L65.8015 25.2612L65.7725 25.3323L65.7441 25.4045L65.7173 25.4761L65.6911 25.5499L65.6666 25.6237L65.6432 25.6986L65.6203 25.774L65.5991 25.8495L65.5791 25.9266L65.5601 26.0037L65.5423 26.0813L65.5256 26.1611L65.51 26.2409L65.4955 26.3213L65.4821 26.4022L65.4698 26.4842L65.4587 26.5673L65.4487 26.651L65.4403 26.7352L65.4331 26.8205L65.4264 26.9063L65.4213 26.9932L65.4174 27.0807L65.4141 27.1687L65.4124 27.2578L65.4119 27.3475L65.413 27.3464ZM66.0016 29.8624L65.3639 30.1931L65.3221 30.1144L65.282 30.0357L65.2424 29.9553L65.2051 29.8744L65.1689 29.7935L65.1337 29.7109L65.1003 29.6284L65.068 29.5447L65.0373 29.4605L65.0078 29.3758L64.9794 29.29L64.9526 29.2041L64.9264 29.1172L64.9024 29.0292L64.8796 28.9412L64.8579 28.852L64.8378 28.7624L64.8188 28.6727L64.801 28.582L64.7848 28.4907L64.7698 28.3988L64.7559 28.3064L64.7436 28.2135L64.7324 28.1195L64.7224 28.0249L64.714 27.9297L64.7068 27.8341L64.7007 27.7378L64.6962 27.6411L64.6929 27.5432L64.6906 27.4454L64.6901 27.3464H65.4113L65.4119 27.4361L65.4135 27.5252L65.4169 27.6132L65.4208 27.7007L65.4258 27.7876L65.4325 27.8734L65.4397 27.9587L65.4481 28.0429L65.4581 28.1271L65.4693 28.2102L65.4815 28.2928L65.4949 28.3742L65.5094 28.4551L65.525 28.5355L65.5417 28.6153L65.5596 28.6941L65.5785 28.7717L65.5986 28.8493L65.6198 28.9259L65.6421 29.0019L65.6655 29.0773L65.69 29.1522L65.7162 29.2266L65.743 29.2998L65.7714 29.3725L65.8004 29.4447L65.8305 29.5158L65.8622 29.5868L65.8946 29.6568L65.928 29.7257L65.9631 29.7951L65.9988 29.8629L66.0016 29.8624ZM67.6352 31.5446L67.2712 32.1558L67.1949 32.1116L67.1202 32.0662L67.0461 32.0197L66.9731 31.9716L66.9012 31.9229L66.8304 31.8726L66.7607 31.8213L66.6916 31.7688L66.6241 31.7157L66.5573 31.6616L66.4915 31.6059L66.4268 31.549L66.3633 31.4916L66.3009 31.4331L66.2396 31.373L66.1794 31.3117L66.1203 31.2499L66.0618 31.1865L66.0049 31.122L65.9492 31.0569L65.894 30.9903L65.8405 30.923L65.7881 30.8547L65.7363 30.7852L65.6861 30.7147L65.637 30.6431L65.5886 30.5704L65.5417 30.4966L65.4955 30.4217L65.4509 30.3457L65.4074 30.2691L65.3645 30.1915L66.0021 29.8607L66.0395 29.928L66.0779 29.9947L66.1164 30.0603L66.156 30.1248L66.1966 30.1882L66.2379 30.2505L66.2808 30.3118L66.3243 30.3725L66.3683 30.4321L66.4135 30.4906L66.4597 30.5485L66.5065 30.6048L66.5545 30.6606L66.603 30.7153L66.6526 30.7688L66.7027 30.8219L66.754 30.8738L66.8064 30.9246L66.8594 30.9749L66.9134 31.0241L66.9686 31.0723L67.0243 31.1193L67.0812 31.1657L67.1391 31.2117L67.1977 31.2565L67.2573 31.2997L67.3181 31.3423L67.3799 31.3844L67.4418 31.4254L67.5053 31.4653L67.57 31.5047L67.6352 31.5424V31.5446ZM70.0291 32.1498V32.8573L69.9343 32.8567L69.8401 32.8545L69.7465 32.8513L69.6534 32.8469L69.5603 32.8409L69.4684 32.8332L69.377 32.8245L69.2856 32.8141L69.1947 32.8021L69.105 32.7895L69.0152 32.7753L68.9261 32.7594L68.8374 32.7425L68.7494 32.7239L68.6624 32.7042L68.576 32.6834L68.4896 32.6605L68.4044 32.6364L68.3196 32.6113L68.2349 32.5845L68.1513 32.556L68.0683 32.5265L67.9858 32.4959L67.9039 32.4636L67.8225 32.4298L67.7422 32.3948L67.662 32.3587L67.5823 32.321L67.5037 32.2816L67.4256 32.2411L67.3482 32.199L67.2712 32.1558L67.6352 31.5446L67.701 31.5818L67.7679 31.6179L67.8347 31.6529L67.9027 31.6868L67.9707 31.719L68.0393 31.7502L68.109 31.7803L68.1786 31.8092L68.2494 31.8371L68.3202 31.8639L68.3921 31.8896L68.464 31.9137L68.5359 31.9366L68.6095 31.9585L68.6836 31.9793L68.7577 31.9989L68.8324 32.0175L68.9082 32.035L68.9846 32.0509L69.0609 32.0656L69.1384 32.0793L69.2164 32.0913L69.2956 32.1028L69.3747 32.1132L69.4539 32.1219L69.5347 32.1296L69.6161 32.1362L69.6975 32.1416L69.7799 32.1455L69.8635 32.1487L69.9472 32.1504L70.0313 32.1509L70.0291 32.1498ZM84.34 10.706V36.7324H83.6188V10.706L83.9794 10.3523L84.34 10.706ZM83.6188 10.706C83.6188 10.5109 83.7804 10.3523 83.9794 10.3523C84.1784 10.3523 84.34 10.5109 84.34 10.706H83.6188ZM89.2376 11.0598H83.9799V10.3523H89.2376L89.5982 10.706L89.2376 11.0598ZM89.2376 10.3523C89.4366 10.3523 89.5982 10.5109 89.5982 10.706C89.5982 10.9012 89.4366 11.0598 89.2376 11.0598V10.3523ZM88.877 36.7324V10.706H89.5982V36.7324L89.2376 37.0861L88.877 36.7324ZM89.5982 36.7324C89.5982 36.9276 89.4366 37.0861 89.2376 37.0861C89.0386 37.0861 88.877 36.9276 88.877 36.7324H89.5982ZM83.9794 36.3787H89.237V37.0861H83.9794L83.6188 36.7324L83.9794 36.3787ZM83.9794 37.0861C83.7804 37.0861 83.6188 36.9276 83.6188 36.7324C83.6188 36.5372 83.7804 36.3787 83.9794 36.3787V37.0861ZM97.2458 36.1819L97.5964 35.5635L97.7374 35.639L97.8795 35.7122L98.0222 35.7828L98.166 35.8511L98.3109 35.9167L98.4564 35.9801L98.603 36.0408L98.7507 36.0993L98.8989 36.1556L99.0483 36.2092L99.1988 36.2606L99.3504 36.3098L99.5026 36.3568L99.6558 36.4011L99.8102 36.4432L99.9657 36.4831L100.122 36.5203L100.28 36.5553L100.438 36.5875L100.597 36.6176L100.758 36.6455L100.919 36.6706L101.082 36.693L101.245 36.7133L101.41 36.7313L101.575 36.7472L101.742 36.7603L101.91 36.7712L102.078 36.7794L102.248 36.7854L102.419 36.7887L102.591 36.7898V37.4972L102.409 37.4962L102.228 37.4923L102.047 37.4858L101.867 37.477L101.689 37.4655L101.512 37.4513L101.336 37.4349L101.16 37.4152L100.986 37.3934L100.812 37.3688L100.64 37.342L100.468 37.3125L100.298 37.2802L100.128 37.2458L99.959 37.2086L99.7913 37.1687L99.6252 37.1266L99.4591 37.0817L99.2941 37.0342L99.1308 36.9839L98.9681 36.9314L98.8064 36.8762L98.6459 36.8182L98.4859 36.7581L98.3276 36.6952L98.1699 36.6296L98.0133 36.5613L97.8583 36.4907L97.7034 36.4175L97.5501 36.3415L97.398 36.2633L97.2469 36.1824L97.2458 36.1819ZM93.3977 32.5675L94.0131 32.1979L94.0978 32.3308L94.1842 32.462L94.2723 32.591L94.362 32.7184L94.454 32.8442L94.547 32.9683L94.6423 33.0902L94.7393 33.2105L94.838 33.3291L94.9383 33.4455L95.0403 33.5604L95.144 33.6735L95.2499 33.7851L95.3569 33.8944L95.4661 34.0021L95.577 34.1082L95.6896 34.212L95.8044 34.3143L95.9204 34.4149L96.0385 34.5138L96.1584 34.6111L96.2804 34.7068L96.4036 34.8003L96.529 34.8922L96.6561 34.9824L96.7849 35.0704L96.9153 35.1568L97.0479 35.2415L97.1823 35.3246L97.3183 35.4055L97.4565 35.4848L97.5964 35.5624L97.2458 36.1808L97.0964 36.0977L96.9487 36.0129L96.8027 35.926L96.6589 35.8369L96.5168 35.7461L96.3763 35.6532L96.2381 35.5586L96.1015 35.4618L95.9666 35.3634L95.834 35.2628L95.7036 35.1606L95.5748 35.0562L95.4477 34.9501L95.3223 34.8419L95.1992 34.7314L95.0776 34.6193L94.9589 34.5056L94.8413 34.3897L94.7254 34.2716L94.6117 34.1519L94.5002 34.0305L94.3904 33.907L94.2828 33.7812L94.1769 33.6538L94.0733 33.5248L93.9713 33.3936L93.8709 33.2608L93.7729 33.1263L93.6764 32.9896L93.5822 32.8507L93.4897 32.7102L93.3994 32.5681L93.3977 32.5675ZM91.9609 27.3464H92.6821L92.6832 27.5164L92.6871 27.6854L92.6932 27.8532L92.7027 28.0194L92.7144 28.1851L92.7289 28.3491L92.7456 28.512L92.7651 28.6738L92.7874 28.834L92.812 28.9937L92.8393 29.1511L92.8694 29.308L92.9017 29.4638L92.9368 29.618L92.9747 29.7716L93.0148 29.9236L93.0578 30.0745L93.1029 30.2243L93.1508 30.3725L93.2016 30.5195L93.2545 30.6661L93.3102 30.8109L93.3688 30.9547L93.4295 31.0974L93.4931 31.239L93.5588 31.3795L93.6279 31.5189L93.6993 31.6572L93.7734 31.7939L93.8503 31.9301L93.9295 32.0651L94.0114 32.199L93.3961 32.5686L93.3074 32.4243L93.2216 32.2783L93.1386 32.1312L93.0583 31.9831L92.9808 31.8338L92.9061 31.6829L92.8342 31.531L92.7657 31.3779L92.6994 31.2232L92.6358 31.0673L92.5756 30.9104L92.5182 30.753L92.4636 30.5933L92.4118 30.4326L92.3627 30.2708L92.3165 30.1079L92.273 29.9438L92.2323 29.7787L92.1944 29.612L92.1598 29.4447L92.1275 29.2758L92.098 29.1057L92.0718 28.9352L92.0478 28.7629L92.0272 28.5896L92.0088 28.4152L91.9937 28.2397L91.9809 28.0637L91.9714 27.8855L91.9648 27.7067L91.9603 27.5268L91.9592 27.3459L91.9609 27.3464ZM93.3989 22.1061L94.0125 22.4779L93.9311 22.6102L93.852 22.7442L93.7751 22.8792L93.7015 23.0153L93.6302 23.1531L93.5611 23.2914L93.4953 23.4314L93.4317 23.5724L93.3704 23.7151L93.3119 23.8584L93.2562 24.0032L93.2032 24.1498L93.1525 24.2974L93.1046 24.4455L93.0589 24.5959L93.0159 24.7473L92.9758 24.8999L92.9379 25.0535L92.9028 25.2082L92.8705 25.3646L92.8404 25.5226L92.8131 25.6811L92.7885 25.8418L92.7663 26.0037L92.7467 26.1666L92.73 26.3312L92.7155 26.4968L92.7038 26.6641L92.6943 26.8319L92.6882 27.002L92.6843 27.1731L92.6832 27.3453H91.962L91.9631 27.1622L91.9675 26.9806L91.9742 26.8002L91.9837 26.6204L91.9965 26.4421L92.0116 26.265L92.03 26.0895L92.0506 25.9146L92.0746 25.7418L92.1008 25.5696L92.1303 25.3985L92.1626 25.229L92.1972 25.0606L92.2351 24.8933L92.2758 24.7276L92.3192 24.5631L92.3655 24.3996L92.4146 24.2372L92.4664 24.0765L92.5216 23.9169L92.579 23.7589L92.6392 23.6014L92.7027 23.4456L92.7685 23.2914L92.8376 23.1383L92.9095 22.9869L92.9842 22.8366L93.0617 22.6878L93.1419 22.5402L93.225 22.3937L93.3108 22.2488L93.3994 22.105L93.3989 22.1061ZM97.2458 18.5104L97.5964 19.1287L97.4565 19.2064L97.3183 19.2856L97.1823 19.3666L97.0479 19.4497L96.9153 19.5344L96.7849 19.6208L96.6561 19.7088L96.529 19.799L96.4036 19.8903L96.2804 19.9832L96.1584 20.0784L96.0385 20.1751L95.9204 20.2736L95.8039 20.3736L95.6891 20.4758L95.5765 20.5797L95.4656 20.6852L95.3563 20.7924L95.2493 20.9012L95.1434 21.0122L95.0397 21.1248L94.9377 21.2391L94.8374 21.355L94.7388 21.4725L94.6418 21.5922L94.5465 21.7136L94.4534 21.8366L94.3614 21.9613L94.2717 22.0881L94.1836 22.216L94.0972 22.3461L94.0125 22.4779L93.3989 22.1061L93.4892 21.9651L93.5817 21.8257L93.6759 21.6879L93.7723 21.5523L93.8704 21.4184L93.9707 21.2866L94.0727 21.1565L94.1764 21.028L94.2823 20.9012L94.3904 20.7765L94.5002 20.6541L94.6117 20.5332L94.7254 20.4141L94.8408 20.2965L94.9584 20.1812L95.0771 20.068L95.1986 19.9565L95.3218 19.8466L95.4472 19.7389L95.5743 19.6328L95.703 19.5289L95.8334 19.4267L95.9661 19.3266L96.1004 19.2282L96.237 19.132L96.3752 19.0374L96.5156 18.9445L96.6578 18.8537L96.8016 18.7652L96.9476 18.6782L97.0953 18.5935L97.2447 18.5104H97.2458ZM102.591 17.1934V17.9008L102.419 17.9019L102.248 17.9052L102.078 17.9112L101.91 17.9194L101.742 17.9303L101.575 17.9435L101.41 17.9593L101.245 17.9774L101.082 17.9976L100.919 18.02L100.758 18.0451L100.597 18.073L100.438 18.1031L100.28 18.1354L100.122 18.1703L99.9657 18.2075L99.8102 18.2474L99.6558 18.2895L99.502 18.3338L99.3499 18.3803L99.1982 18.4295L99.0478 18.4809L98.8984 18.5345L98.7501 18.5908L98.6024 18.6493L98.4553 18.7105L98.3098 18.7739L98.1649 18.8401L98.0211 18.9084L97.8784 18.9789L97.7363 19.0522L97.5953 19.1276L97.2447 18.5093L97.3957 18.4284L97.5479 18.3502L97.7012 18.2742L97.8556 18.201L98.0111 18.1304L98.1677 18.0621L98.3254 17.9965L98.4843 17.9336L98.6442 17.8735L98.8047 17.8155L98.9664 17.7603L99.1291 17.7073L99.293 17.657L99.458 17.6094L99.6241 17.5646L99.7907 17.5225L99.9585 17.4826L100.127 17.4454L100.297 17.411L100.467 17.3787L100.639 17.3492L100.812 17.3224L100.985 17.2978L101.16 17.2759L101.335 17.2562L101.511 17.2398L101.689 17.2256L101.867 17.2141L102.046 17.2054L102.227 17.1988L102.408 17.195L102.59 17.1939L102.591 17.1934ZM107.92 18.5109L107.567 19.1282L107.427 19.0527L107.286 18.98L107.145 18.9095L107.002 18.8412L106.858 18.7756L106.713 18.7121L106.568 18.6509L106.421 18.5924L106.273 18.5361L106.125 18.4825L105.975 18.4311L105.824 18.3819L105.673 18.3355L105.519 18.2912L105.365 18.2491L105.211 18.2097L105.054 18.1725L104.898 18.1375L104.74 18.1053L104.581 18.0752L104.421 18.0473L104.26 18.0222L104.098 17.9998L103.935 17.9795L103.77 17.9615L103.605 17.9456L103.439 17.9325L103.271 17.9216L103.103 17.9134L102.933 17.9074L102.763 17.9041L102.591 17.903V17.1956L102.773 17.1966L102.954 17.2005L103.134 17.207L103.314 17.2158L103.492 17.2273L103.669 17.2415L103.846 17.2579L104.022 17.2776L104.196 17.2994L104.369 17.324L104.542 17.3508L104.713 17.3803L104.883 17.4126L105.052 17.4476L105.221 17.4848L105.388 17.5247L105.554 17.5673L105.719 17.6121L105.883 17.6597L106.046 17.71L106.208 17.763L106.369 17.8183L106.529 17.8762L106.688 17.9363L106.846 17.9998L107.002 18.0654L107.158 18.1332L107.313 18.2042L107.466 18.2775L107.619 18.3535L107.77 18.4322L107.92 18.5131L107.92 18.5109ZM111.748 22.1061L111.135 22.4779L111.05 22.3461L110.964 22.216L110.876 22.0881L110.786 21.9613L110.695 21.8366L110.602 21.7136L110.507 21.5922L110.411 21.4725L110.313 21.355L110.212 21.2391L110.11 21.1248L110.007 21.0122L109.901 20.9017L109.795 20.7929L109.686 20.6858L109.576 20.5803L109.464 20.4764L109.35 20.3741L109.235 20.2741L109.117 20.1757L108.997 20.0789L108.876 19.9838L108.753 19.8909L108.629 19.799L108.502 19.7093L108.374 19.6213L108.244 19.5349L108.113 19.4502L107.98 19.3671L107.844 19.2862L107.706 19.2064L107.568 19.1287L107.92 18.5115L108.069 18.5946L108.215 18.6793L108.36 18.7663L108.502 18.8548L108.643 18.9456L108.783 19.0385L108.92 19.1326L109.056 19.2293L109.19 19.3277L109.321 19.4278L109.452 19.53L109.58 19.6339L109.706 19.7394L109.831 19.8477L109.954 19.9576L110.074 20.0691L110.193 20.1823L110.31 20.2976L110.425 20.4152L110.538 20.5343L110.649 20.6552L110.759 20.7776L110.866 20.9023L110.972 21.0291L111.076 21.1576L111.177 21.2877L111.277 21.4195L111.376 21.5534L111.471 21.689L111.566 21.8268L111.658 21.9662L111.748 22.1072L111.748 22.1061ZM113.186 27.3464H112.465L112.464 27.1742L112.46 27.0031L112.454 26.833L112.445 26.6652L112.433 26.4979L112.418 26.3322L112.402 26.1677L112.382 26.0048L112.36 25.8429L112.335 25.6822L112.307 25.5231L112.278 25.3657L112.245 25.2093L112.21 25.054L112.173 24.9004L112.132 24.7479L112.09 24.5964L112.044 24.4466L111.996 24.2985L111.946 24.1509L111.893 24.0043L111.837 23.8595L111.779 23.7162L111.718 23.5741L111.654 23.4325L111.588 23.2925L111.519 23.1542L111.448 23.0164L111.374 22.8803L111.298 22.7452L111.218 22.6113L111.137 22.479L111.751 22.1072L111.839 22.251L111.925 22.3959L112.008 22.5424L112.088 22.69L112.166 22.8387L112.241 22.9891L112.312 23.1405L112.382 23.2931L112.448 23.4478L112.511 23.6036L112.571 23.7605L112.629 23.9185L112.683 24.0776L112.736 24.2383L112.785 24.4007L112.831 24.5642L112.874 24.7287L112.915 24.8944L112.953 25.0611L112.988 25.2295L113.02 25.3995L113.049 25.5701L113.076 25.7423L113.1 25.9156L113.121 26.0906L113.139 26.2661L113.154 26.4432L113.167 26.6215L113.176 26.8013L113.183 26.9817L113.188 27.1632L113.189 27.3464H113.186ZM111.749 32.5675L111.134 32.1979L111.216 32.064L111.295 31.929L111.372 31.7928L111.446 31.6562L111.517 31.5178L111.586 31.3784L111.653 31.2379L111.716 31.0963L111.777 30.9542L111.835 30.8104L111.891 30.665L111.944 30.5184L111.995 30.3714L112.043 30.2232L112.088 30.0734L112.131 29.9225L112.171 29.7711L112.209 29.6175L112.244 29.4627L112.276 29.3075L112.306 29.1506L112.334 28.9926L112.359 28.8329L112.381 28.6727L112.401 28.5109L112.417 28.348L112.432 28.184L112.443 28.0183L112.453 27.8521L112.459 27.6843L112.463 27.5153L112.464 27.3453H113.185L113.184 27.5263L113.18 27.7061L113.173 27.8849L113.164 28.0631L113.151 28.2392L113.136 28.4147L113.117 28.5891L113.097 28.7624L113.073 28.9346L113.046 29.1052L113.016 29.2747L112.984 29.4436L112.949 29.6109L112.911 29.7771L112.87 29.9422L112.827 30.1062L112.781 30.2691L112.732 30.431L112.679 30.5917L112.625 30.7508L112.567 30.9082L112.507 31.0652L112.444 31.221L112.378 31.3757L112.309 31.5288L112.237 31.6808L112.163 31.8316L112.085 31.9809L112.005 32.1291L111.922 32.2761L111.836 32.4221L111.747 32.5664L111.749 32.5675ZM107.92 36.1813L107.567 35.5641L107.706 35.4864L107.843 35.4072L107.978 35.3262L108.111 35.2431L108.243 35.1584L108.373 35.072L108.501 34.984L108.628 34.8938L108.752 34.8019L108.875 34.7085L108.996 34.6128L109.115 34.5155L109.232 34.4165L109.348 34.3165L109.462 34.2142L109.574 34.1104L109.684 34.0043L109.793 33.8966L109.899 33.7872L110.004 33.6757L110.108 33.5625L110.21 33.4477L110.31 33.3313L110.409 33.2126L110.505 33.0924L110.6 32.9705L110.693 32.8463L110.784 32.7206L110.874 32.5932L110.961 32.4642L111.048 32.333L111.133 32.2001L111.748 32.5697L111.657 32.7119L111.565 32.8524L111.471 32.9912L111.374 33.1279L111.277 33.2624L111.177 33.3953L111.075 33.5265L110.971 33.6555L110.866 33.7829L110.758 33.9081L110.649 34.0316L110.538 34.153L110.425 34.2727L110.31 34.3908L110.193 34.5067L110.074 34.6204L109.954 34.7325L109.831 34.8429L109.706 34.9512L109.58 35.0573L109.452 35.1617L109.322 35.2639L109.19 35.3645L109.056 35.4629L108.92 35.5597L108.783 35.6548L108.643 35.7472L108.502 35.838L108.36 35.9271L108.215 36.014L108.068 36.0988L107.92 36.1819V36.1813ZM102.591 37.4983V36.7909L102.763 36.7898L102.933 36.7865L103.103 36.7805L103.271 36.7723L103.439 36.7614L103.605 36.7483L103.77 36.7324L103.935 36.7144L104.098 36.6941L104.26 36.6717L104.421 36.6466L104.581 36.6187L104.74 36.5886L104.898 36.5564L105.054 36.5214L105.211 36.4842L105.365 36.4443L105.519 36.4027L105.672 36.3584L105.824 36.3114L105.974 36.2622L106.124 36.2108L106.272 36.1572L106.42 36.1009L106.567 36.0424L106.713 35.9818L106.858 35.9178L107.001 35.8522L107.144 35.7844L107.286 35.7139L107.427 35.6412L107.567 35.5652L107.919 36.1824L107.769 36.2633L107.618 36.342L107.465 36.418L107.311 36.4918L107.157 36.5624L107.001 36.6307L106.845 36.6963L106.687 36.7592L106.528 36.8193L106.368 36.8773L106.207 36.9325L106.045 36.985L105.882 37.0353L105.718 37.0828L105.553 37.1277L105.387 37.1698L105.219 37.2097L105.051 37.2469L104.882 37.2818L104.712 37.3141L104.541 37.3436L104.368 37.3704L104.194 37.395L104.021 37.4169L103.845 37.4366L103.668 37.453L103.491 37.4672L103.313 37.4787L103.133 37.4874L102.953 37.494L102.772 37.4978L102.59 37.4989L102.591 37.4983ZM104.907 31.549L105.287 32.1498L105.214 32.1936L105.14 32.2362L105.066 32.2772L104.99 32.3166L104.914 32.3549L104.837 32.3915L104.76 32.427L104.681 32.4609L104.602 32.4937L104.522 32.5249L104.441 32.5544L104.36 32.5828L104.278 32.6096L104.195 32.6353L104.112 32.6594L104.027 32.6823L103.942 32.7037L103.857 32.7233L103.77 32.7419L103.683 32.7589L103.596 32.7747L103.507 32.7889L103.419 32.8021L103.329 32.8135L103.238 32.8239L103.147 32.8327L103.056 32.8403L102.963 32.8463L102.87 32.8507L102.777 32.854L102.683 32.8562L102.588 32.8567V32.1493L102.672 32.1487L102.755 32.1471L102.838 32.1438L102.92 32.14L103.001 32.1345L103.081 32.128L103.161 32.1203L103.239 32.1116L103.317 32.1012L103.394 32.0897L103.47 32.0777L103.546 32.064L103.62 32.0492L103.695 32.0334L103.768 32.0159L103.841 31.9978L103.912 31.9782L103.984 31.9574L104.054 31.9361L104.123 31.9137L104.192 31.8896L104.261 31.8644L104.328 31.8382L104.395 31.8109L104.461 31.7824L104.527 31.7529L104.591 31.7223L104.655 31.6906L104.718 31.6572L104.781 31.6228L104.843 31.5873L104.904 31.5506L104.907 31.549ZM106.459 29.8651L107.101 30.1888L107.059 30.2664L107.017 30.3429L106.974 30.4178L106.929 30.4927L106.884 30.566L106.838 30.6382L106.79 30.7098L106.742 30.7798L106.693 30.8492L106.642 30.9175L106.591 30.9848L106.539 31.0509L106.486 31.116L106.432 31.1805L106.377 31.2439L106.32 31.3057L106.263 31.3664L106.204 31.4265L106.145 31.485L106.085 31.5424L106.024 31.5993L105.961 31.6551L105.898 31.7092L105.835 31.7622L105.77 31.8152L105.703 31.8666L105.636 31.9169L105.568 31.9661L105.499 32.0142L105.43 32.0607L105.359 32.1066L105.287 32.1509L104.906 31.5501L104.968 31.5124L105.028 31.4735L105.087 31.4336L105.146 31.3926L105.203 31.3511L105.26 31.3084L105.316 31.2652L105.371 31.221L105.426 31.175L105.48 31.1286L105.533 31.0816L105.585 31.0334L105.636 30.9837L105.687 30.9334L105.736 30.8825L105.785 30.8306L105.833 30.7776L105.879 30.724L105.926 30.6693L105.971 30.6136L106.016 30.5567L106.061 30.4988L106.103 30.4403L106.146 30.3807L106.188 30.3194L106.229 30.2582L106.269 30.1953L106.309 30.1314L106.347 30.0669L106.385 30.0007L106.422 29.934L106.458 29.8662L106.459 29.8651ZM107.033 27.3453H107.754L107.754 27.4443L107.752 27.5421L107.748 27.6394L107.744 27.7357L107.738 27.8319L107.732 27.9281L107.723 28.0232L107.714 28.1173L107.703 28.2113L107.691 28.3042L107.677 28.3966L107.663 28.4885L107.647 28.5798L107.63 28.6705L107.612 28.7602L107.592 28.8493L107.571 28.9384L107.549 29.0265L107.525 29.1134L107.5 29.2003L107.474 29.2861L107.447 29.372L107.418 29.4567L107.388 29.5404L107.356 29.624L107.324 29.7071L107.29 29.7891L107.254 29.87L107.218 29.9509L107.18 30.0308L107.141 30.1106L107.1 30.1893L106.458 29.8657L106.494 29.7973L106.527 29.7284L106.56 29.659L106.592 29.589L106.622 29.5185L106.652 29.4469L106.68 29.3753L106.708 29.3025L106.734 29.2287L106.759 29.1549L106.783 29.08L106.806 29.0046L106.827 28.9286L106.848 28.8515L106.868 28.7739L106.887 28.6962L106.904 28.6175L106.92 28.5377L106.936 28.4573L106.95 28.3764L106.962 28.2949L106.974 28.2124L106.985 28.1293L106.994 28.0451L107.002 27.9604L107.01 27.8751L107.016 27.7892L107.021 27.7023L107.025 27.6143L107.028 27.5257L107.03 27.4366L107.03 27.3469L107.033 27.3453ZM106.46 24.8446L107.1 24.5172L107.141 24.5948L107.18 24.6735L107.218 24.7522L107.254 24.8321L107.29 24.913L107.324 24.9939L107.356 25.0764L107.388 25.159L107.418 25.2421L107.447 25.3263L107.474 25.411L107.5 25.4963L107.525 25.5827L107.549 25.6691L107.572 25.7566L107.593 25.8451L107.612 25.9342L107.631 26.0233L107.648 26.1136L107.664 26.2043L107.678 26.2956L107.691 26.388L107.704 26.481L107.714 26.5744L107.724 26.6685L107.732 26.7631L107.739 26.8587L107.744 26.955L107.749 27.0512L107.752 27.1485L107.754 27.2464L107.755 27.3453H107.034L107.033 27.2556L107.031 27.1665L107.028 27.0785L107.024 26.9905L107.019 26.9036L107.013 26.8183L107.006 26.733L106.997 26.6482L106.988 26.5646L106.977 26.4815L106.966 26.3995L106.953 26.3186L106.939 26.2377L106.923 26.1578L106.907 26.078L106.89 25.9998L106.871 25.9222L106.852 25.8457L106.831 25.7691L106.81 25.6937L106.787 25.6188L106.763 25.545L106.738 25.4717L106.712 25.399L106.684 25.3268L106.656 25.2563L106.626 25.1858L106.596 25.1164L106.564 25.0469L106.531 24.978L106.498 24.9108L106.463 24.8435L106.46 24.8446ZM104.903 23.1569L105.292 22.561L105.364 22.6064L105.435 22.6534L105.504 22.701L105.572 22.7491L105.639 22.7988L105.706 22.8497L105.772 22.9016L105.836 22.9541L105.9 23.0077L105.963 23.0623L106.025 23.1181L106.086 23.1744L106.145 23.2318L106.205 23.2909L106.263 23.351L106.32 23.4117L106.376 23.4735L106.431 23.5363L106.485 23.6003L106.538 23.6648L106.591 23.7304L106.642 23.7971L106.693 23.8649L106.742 23.9338L106.79 24.0027L106.837 24.0738L106.884 24.1454L106.929 24.2176L106.973 24.2914L107.016 24.3652L107.059 24.4406L107.1 24.5172L106.46 24.8446L106.424 24.7779L106.387 24.7123L106.349 24.6467L106.31 24.5833L106.271 24.5199L106.231 24.4576L106.19 24.3969L106.147 24.3362L106.105 24.2766L106.062 24.2186L106.018 24.1607L105.972 24.1038L105.927 24.0481L105.881 23.9934L105.833 23.9398L105.785 23.8868L105.736 23.8343L105.686 23.7829L105.636 23.7326L105.584 23.6829L105.532 23.6342L105.479 23.5866L105.425 23.5396L105.37 23.4937L105.315 23.4483L105.258 23.404L105.202 23.3609L105.144 23.3188L105.084 23.2767L105.024 23.2357L104.964 23.1957L104.903 23.1564L104.903 23.1569ZM102.591 22.5419V21.8344L102.686 21.835L102.78 21.8372L102.874 21.8404L102.967 21.8454L103.059 21.8514L103.151 21.859L103.242 21.8683L103.333 21.8787L103.423 21.8907L103.511 21.9039L103.6 21.9186L103.687 21.935L103.774 21.9525L103.861 21.9716L103.946 21.9919L104.032 22.0137L104.116 22.0373L104.2 22.0624L104.283 22.0886L104.365 22.1165L104.446 22.1461L104.527 22.1767L104.607 22.2089L104.686 22.2423L104.764 22.2767L104.843 22.3133L104.919 22.3511L104.995 22.3899L105.071 22.4303L105.145 22.4724L105.219 22.5162L105.292 22.561L104.903 23.1569L104.842 23.1192L104.78 23.0826L104.718 23.0476L104.655 23.0137L104.591 22.9809L104.526 22.9492L104.461 22.9191L104.395 22.8896L104.328 22.8612L104.261 22.8344L104.193 22.8087L104.124 22.7841L104.055 22.7606L103.984 22.7381L103.914 22.7168L103.842 22.6971L103.77 22.6786L103.697 22.6611L103.623 22.6447L103.548 22.6293L103.473 22.6151L103.396 22.6026L103.319 22.5911L103.241 22.5807L103.163 22.5714L103.084 22.5632L103.004 22.5566L102.923 22.5512L102.841 22.5468L102.759 22.5435L102.676 22.5419L102.591 22.5413V22.5419ZM100.26 23.158L99.876 22.5594L99.9501 22.5145L100.025 22.4713L100.101 22.4292L100.177 22.3888L100.254 22.35L100.331 22.3123L100.411 22.2756L100.49 22.2412L100.569 22.2078L100.65 22.1756L100.732 22.145L100.813 22.116L100.897 22.0881L100.98 22.0624L101.064 22.0378L101.149 22.0143L101.234 21.9924L101.32 21.9722L101.407 21.9531L101.494 21.9356L101.583 21.9192L101.671 21.905L101.76 21.8918L101.85 21.8798L101.941 21.8694L102.032 21.8601L102.124 21.8525L102.216 21.8465L102.309 21.8415L102.403 21.8383L102.497 21.8361L102.592 21.8355V22.543L102.508 22.5435L102.425 22.5452L102.342 22.5484L102.26 22.5528L102.179 22.5583L102.099 22.5648L102.02 22.573L101.941 22.5823L101.864 22.5927L101.786 22.6042L101.709 22.6168L101.634 22.6304L101.559 22.6457L101.485 22.6621L101.411 22.6796L101.338 22.6982L101.266 22.7179L101.194 22.7392L101.123 22.7617L101.053 22.7846L100.983 22.8092L100.914 22.8349L100.847 22.8617L100.779 22.8901L100.711 22.9197L100.646 22.9503L100.581 22.982L100.515 23.0153L100.451 23.0492L100.387 23.0842L100.324 23.1208L100.261 23.1586L100.26 23.158ZM98.6877 24.8446L98.0484 24.5172L98.0896 24.4406L98.1326 24.3646L98.176 24.2903L98.2206 24.217L98.2658 24.1448L98.3126 24.0727L98.3605 24.0021L98.409 23.9327L98.4586 23.8638L98.5093 23.796L98.5606 23.7293L98.6136 23.6637L98.6671 23.5992L98.7223 23.5347L98.778 23.4718L98.8343 23.4106L98.8917 23.3499L98.9502 23.2898L99.011 23.2302L99.0717 23.1728L99.133 23.1165L99.196 23.0607L99.2596 23.006L99.3242 22.9525L99.3894 22.9L99.4563 22.848L99.5249 22.7966L99.5929 22.7474L99.6625 22.6988L99.7333 22.6512L99.8047 22.6047L99.8771 22.5594L100.261 23.158L100.199 23.1974L100.137 23.2373L100.077 23.2783L100.017 23.3204L99.9574 23.363L99.9 23.4062L99.8431 23.4505L99.7868 23.4959L99.7316 23.5418L99.677 23.5888L99.6235 23.6369L99.5706 23.6856L99.5182 23.7348L99.468 23.7846L99.4179 23.8359L99.3682 23.8884L99.3192 23.9415L99.2713 23.995L99.225 24.0492L99.1793 24.1049L99.1341 24.1618L99.0896 24.2192L99.0461 24.2777L99.0032 24.3373L98.9608 24.398L98.9201 24.4587L98.88 24.5204L98.8404 24.5839L98.802 24.6478L98.7641 24.7129L98.7273 24.7785L98.691 24.8452L98.6877 24.8446ZM98.1153 27.3453H97.3941L97.3946 27.2464L97.3968 27.1485L97.4002 27.0512L97.4046 26.955L97.4102 26.8587L97.4169 26.7636L97.4253 26.669L97.4347 26.5744L97.4459 26.4815L97.4576 26.3886L97.471 26.2962L97.4855 26.2049L97.5011 26.1136L97.5183 26.0233L97.5367 25.9342L97.5563 25.8451L97.5774 25.7566L97.5997 25.6691L97.6231 25.5827L97.6482 25.4963L97.6744 25.4116L97.7023 25.3263L97.7313 25.2421L97.7614 25.159L97.7926 25.0764L97.8255 24.9939L97.8595 24.913L97.8946 24.8321L97.9314 24.7522L97.9687 24.6735L98.0083 24.5948L98.049 24.5172L98.6883 24.8446L98.6531 24.9119L98.6197 24.9791L98.5868 25.048L98.555 25.1174L98.5249 25.1869L98.4954 25.2574L98.467 25.3279L98.4397 25.4001L98.4135 25.4728L98.3884 25.5461L98.3644 25.6199L98.3416 25.6948L98.3198 25.7702L98.2992 25.8462L98.2792 25.9233L98.2608 26.0009L98.2435 26.0791L98.2273 26.1589L98.2117 26.2388L98.1978 26.3191L98.185 26.4006L98.1727 26.4826L98.1621 26.5657L98.1526 26.6499L98.1443 26.7341L98.137 26.8194L98.1309 26.9052L98.1259 26.9921L98.122 27.0801L98.1186 27.1682L98.117 27.2573L98.1164 27.3469L98.1153 27.3453ZM98.6888 29.8651L98.0473 30.1888L98.0066 30.11L97.967 30.0302L97.9297 29.9504L97.8929 29.8695L97.8578 29.7886L97.8238 29.7066L97.7909 29.6235L97.7597 29.5398L97.7296 29.4562L97.7006 29.3714L97.6733 29.2856L97.6471 29.2003L97.622 29.1134L97.5986 29.0259L97.5763 28.9384L97.5551 28.8493L97.5356 28.7602L97.5172 28.6705L97.5 28.5798L97.4838 28.4885L97.4693 28.3972L97.4559 28.3048L97.4442 28.2118L97.4331 28.1184L97.4236 28.0232L97.4152 27.9281L97.4085 27.8324L97.403 27.7362L97.3985 27.64L97.3952 27.5427L97.3929 27.4448L97.3924 27.3459H98.1136L98.1142 27.4355L98.1158 27.5246L98.1192 27.6132L98.1231 27.7012L98.1281 27.7881L98.1342 27.874L98.1415 27.9593L98.1498 28.0435L98.1593 28.1277L98.1699 28.2108L98.1822 28.2933L98.195 28.3753L98.2089 28.4562L98.2245 28.5366L98.2407 28.6164L98.258 28.6951L98.2764 28.7728L98.2964 28.851L98.3171 28.9275L98.3388 29.0035L98.3616 29.0795L98.3856 29.1538L98.4107 29.2276L98.4369 29.3015L98.4642 29.3742L98.4926 29.4458L98.5222 29.5174L98.5528 29.5879L98.5846 29.6579L98.6175 29.7273L98.6509 29.7962L98.686 29.8646L98.6888 29.8651ZM100.257 31.5474L99.8799 32.1504L99.8069 32.1055L99.7355 32.0596L99.6648 32.0132L99.5945 31.965L99.5254 31.9164L99.4574 31.8661L99.3905 31.8147L99.3248 31.7622L99.2601 31.7092L99.1966 31.6551L99.133 31.5993L99.0712 31.5424L99.0104 31.485L98.9502 31.426L98.8917 31.3658L98.8337 31.3052L98.7774 31.2434L98.7211 31.1805L98.666 31.116L98.6125 31.0509L98.5595 30.9848L98.5077 30.917L98.457 30.8492L98.4073 30.7798L98.3589 30.7098L98.3109 30.6382L98.2641 30.5655L98.219 30.4922L98.1744 30.4184L98.1309 30.3429L98.0885 30.2664L98.0473 30.1888L98.6888 29.8651L98.725 29.9329L98.7624 29.9996L98.8003 30.0652L98.8387 30.1303L98.8783 30.1942L98.9185 30.2566L98.9591 30.3178L99.0015 30.379L99.0444 30.4386L99.0879 30.4977L99.1319 30.5551L99.1771 30.6119L99.2228 30.6677L99.269 30.7218L99.317 30.7759L99.3655 30.829L99.4151 30.8809L99.4652 30.9318L99.5159 30.9815L99.5683 31.0307L99.6207 31.0788L99.6737 31.1258L99.7283 31.1723L99.784 31.2182L99.8398 31.2631L99.8961 31.3063L99.954 31.3489L100.013 31.391L100.072 31.432L100.132 31.4719L100.194 31.5113L100.256 31.549L100.257 31.5474ZM102.591 32.1487V32.8562L102.497 32.8556L102.403 32.8535L102.309 32.8502L102.216 32.8458L102.123 32.8398L102.032 32.8321L101.941 32.8234L101.85 32.813L101.76 32.8015L101.672 32.7884L101.583 32.7742L101.496 32.7583L101.408 32.7408L101.322 32.7222L101.236 32.7026L101.151 32.6812L101.065 32.6583L100.982 32.6342L100.899 32.6091L100.815 32.5817L100.733 32.5533L100.652 32.5238L100.572 32.4926L100.492 32.4604L100.413 32.4265L100.334 32.3909L100.257 32.3543L100.179 32.316L100.103 32.2767L100.028 32.2362L99.9529 32.1936L99.8788 32.1504L100.256 31.5474L100.318 31.584L100.382 31.6195L100.445 31.654L100.51 31.6873L100.574 31.7196L100.64 31.7502L100.706 31.7797L100.774 31.8081L100.841 31.836L100.909 31.8623L100.978 31.888L101.048 31.912L101.118 31.9344L101.189 31.9563L101.261 31.9771L101.333 31.9962L101.406 32.0142L101.48 32.0317L101.554 32.0476L101.629 32.0624L101.705 32.076L101.782 32.0886L101.86 32.1001L101.938 32.1105L102.016 32.1192L102.096 32.1269L102.177 32.1334L102.257 32.1389L102.339 32.1427L102.422 32.146L102.505 32.1476L102.589 32.1482L102.591 32.1487ZM116.271 17.9593V36.7313H115.55V17.9593L115.911 17.6056L116.271 17.9593ZM115.55 17.9593C115.55 17.7641 115.712 17.6056 115.911 17.6056C116.11 17.6056 116.271 17.7641 116.271 17.9593H115.55ZM120.818 18.313H115.911V17.6056H120.818L121.179 17.9593L120.818 18.313ZM120.818 17.6056C121.017 17.6056 121.179 17.7641 121.179 17.9593C121.179 18.1545 121.017 18.313 120.818 18.313V17.6056ZM120.458 22.4637V17.9593H121.179V22.4637L120.499 22.6283L120.457 22.4637H120.458ZM121.179 22.4637C121.179 22.6589 121.017 22.8174 120.818 22.8174C120.619 22.8174 120.458 22.6589 120.458 22.4637H121.179ZM120.787 21.6453L121.137 22.2986L120.499 22.6283L120.148 21.9749L120.118 21.7207L120.787 21.6453ZM120.148 21.9749C120.056 21.8022 120.123 21.5879 120.3 21.4971C120.476 21.4063 120.694 21.4725 120.787 21.6453L120.148 21.9749ZM122.37 18.2912L122.737 18.9002L122.657 18.9483L122.577 18.9992L122.5 19.0527L122.424 19.1091L122.348 19.1681L122.275 19.2299L122.203 19.2944L122.132 19.3622L122.062 19.4327L121.994 19.5065L121.926 19.5831L121.86 19.6623L121.795 19.7454L121.731 19.8307L121.669 19.9187L121.608 20.0106L121.548 20.1052L121.49 20.203L121.432 20.3036L121.376 20.4075L121.322 20.5147L121.269 20.6245L121.217 20.7383L121.167 20.8547L121.118 20.9744L121.07 21.0975L121.024 21.2232L120.979 21.3522L120.936 21.4845L120.894 21.6196L120.854 21.7579L120.815 21.8995L120.117 21.7207L120.159 21.5687L120.203 21.4195L120.248 21.2729L120.295 21.1297L120.343 20.9892L120.394 20.8514L120.446 20.7169L120.5 20.5846L120.556 20.4556L120.613 20.3293L120.673 20.2052L120.734 20.0844L120.797 19.9663L120.863 19.8515L120.93 19.74L120.999 19.6306L121.07 19.524L121.143 19.4201L121.218 19.3201L121.294 19.2228L121.374 19.1282L121.454 19.0369L121.536 18.9483L121.621 18.8625L121.707 18.7799L121.796 18.7007L121.887 18.6241L121.979 18.5514L122.074 18.4814L122.171 18.4147L122.269 18.3513L122.369 18.2912H122.37ZM126.006 17.3995V18.1069L125.887 18.108L125.768 18.1102L125.651 18.114L125.535 18.1195L125.42 18.1266L125.307 18.1354L125.194 18.1457L125.083 18.1572L124.972 18.1703L124.863 18.1851L124.756 18.2015L124.649 18.2195L124.542 18.2392L124.438 18.2606L124.334 18.283L124.232 18.307L124.13 18.3327L124.03 18.3601L123.931 18.3885L123.833 18.4186L123.736 18.4503L123.64 18.4836L123.545 18.5186L123.451 18.5547L123.358 18.5924L123.266 18.6318L123.176 18.6722L123.086 18.7149L122.998 18.7586L122.911 18.804L122.824 18.851L122.739 18.8997L122.372 18.2906L122.469 18.2354L122.567 18.1818L122.667 18.1299L122.768 18.0801L122.869 18.032L122.972 17.9856L123.076 17.9413L123.181 17.8986L123.287 17.8576L123.394 17.8183L123.503 17.7805L123.612 17.745L123.722 17.7111L123.833 17.6788L123.945 17.6488L124.058 17.6203L124.173 17.5936L124.288 17.5684L124.405 17.5449L124.522 17.5236L124.64 17.5039L124.76 17.4853L124.88 17.4689L125.001 17.4541L125.124 17.441L125.247 17.4295L125.372 17.4203L125.497 17.4126L125.623 17.4066L125.751 17.4022L125.879 17.3995L126.009 17.3984L126.006 17.3995ZM127.127 18.1069H126.006V17.3995H127.127L127.488 17.7532L127.127 18.1069ZM127.127 17.3995C127.326 17.3995 127.488 17.558 127.488 17.7532C127.488 17.9484 127.326 18.1069 127.127 18.1069V17.3995ZM126.767 22.2226V17.7532H127.488V22.2226L127.127 22.5763L126.767 22.2226ZM127.488 22.2226C127.488 22.4178 127.326 22.5763 127.127 22.5763C126.928 22.5763 126.767 22.4178 126.767 22.2226H127.488ZM125.48 21.8689H127.127V22.5763H125.48V21.8689ZM122.613 23.626L122.107 23.1219L122.189 23.0448L122.273 22.9705L122.358 22.8978L122.444 22.8278L122.533 22.76L122.623 22.695L122.715 22.6326L122.808 22.5725L122.903 22.5145L122.999 22.4593L123.097 22.4068L123.197 22.3565L123.298 22.309L123.4 22.2636L123.504 22.2204L123.61 22.1799L123.716 22.1422L123.824 22.1067L123.934 22.0739L124.045 22.0433L124.157 22.0154L124.271 21.9897L124.386 21.9667L124.502 21.9465L124.62 21.9279L124.738 21.9126L124.858 21.8995L124.98 21.8885L125.103 21.8803L125.228 21.8743L125.353 21.8705L125.48 21.8694V22.5769L125.368 22.578L125.257 22.5812L125.147 22.5862L125.039 22.5933L124.933 22.6026L124.828 22.6146L124.724 22.6277L124.622 22.6436L124.522 22.6611L124.424 22.6807L124.327 22.7026L124.231 22.7267L124.138 22.7524L124.045 22.7802L123.954 22.8098L123.864 22.8415L123.776 22.8754L123.689 22.9115L123.604 22.9492L123.519 22.9891L123.437 23.0312L123.356 23.0749L123.275 23.1208L123.197 23.1684L123.12 23.2187L123.043 23.2706L122.969 23.3248L122.896 23.3811L122.824 23.4396L122.753 23.4997L122.683 23.5626L122.614 23.6271L122.613 23.626ZM121.529 26.6231H120.808L120.809 26.487L120.813 26.3519L120.819 26.2191L120.827 26.0879L120.838 25.9583L120.851 25.8304L120.868 25.7041L120.886 25.5794L120.907 25.4559L120.931 25.335L120.957 25.2153L120.986 25.0978L121.017 24.9813L121.051 24.867L121.088 24.7544L121.127 24.6429L121.168 24.5341L121.213 24.4269L121.259 24.3214L121.309 24.2176L121.361 24.1159L121.415 24.0158L121.473 23.9174L121.533 23.8212L121.595 23.7271L121.661 23.6348L121.728 23.5445L121.799 23.456L121.872 23.3696L121.947 23.2854L122.025 23.2034L122.105 23.123L122.612 23.6271L122.546 23.6927L122.482 23.7605L122.42 23.8299L122.36 23.9005L122.303 23.9726L122.247 24.0464L122.193 24.1224L122.142 24.2001L122.093 24.2793L122.046 24.3597L122.001 24.4428L121.957 24.5275L121.916 24.6139L121.877 24.7019L121.84 24.7921L121.804 24.884L121.772 24.9775L121.74 25.0732L121.711 25.171L121.685 25.2711L121.66 25.3728L121.637 25.4766L121.616 25.5827L121.598 25.6904L121.581 25.8003L121.567 25.9118L121.555 26.0255L121.545 26.1414L121.537 26.2595L121.532 26.3793L121.529 26.5012L121.527 26.6253L121.529 26.6231ZM120.808 36.7313V26.6231H121.529V36.7313L121.168 37.085L120.808 36.7313ZM121.529 36.7313C121.529 36.9265 121.367 37.085 121.168 37.085C120.969 37.085 120.808 36.9265 120.808 36.7313H121.529ZM115.91 36.3776H121.168V37.085H115.91L115.55 36.7313L115.91 36.3776ZM115.91 37.085C115.711 37.085 115.55 36.9265 115.55 36.7313C115.55 36.5361 115.711 36.3776 115.91 36.3776V37.085ZM129.8 17.9588V36.7308H129.079V17.9588L129.44 17.605L129.8 17.9588ZM129.079 17.9588C129.079 17.7636 129.241 17.605 129.44 17.605C129.639 17.605 129.8 17.7636 129.8 17.9588H129.079ZM134.698 18.3125H129.44V17.605H134.698L135.059 17.9588L134.698 18.3125ZM134.698 17.605C134.897 17.605 135.059 17.7636 135.059 17.9588C135.059 18.1539 134.897 18.3125 134.698 18.3125V17.605ZM134.337 36.7313V17.9593H135.059V36.7313L134.698 37.085L134.337 36.7313ZM135.059 36.7313C135.059 36.9265 134.897 37.085 134.698 37.085C134.499 37.085 134.337 36.9265 134.337 36.7313H135.059ZM129.44 36.3776H134.697V37.085H129.44L129.079 36.7313L129.44 36.3776ZM129.44 37.085C129.241 37.085 129.079 36.9265 129.079 36.7313C129.079 36.5361 129.241 36.3776 129.44 36.3776V37.085ZM129.8 11.1177V16.2749H129.079V11.1177L129.44 10.764L129.8 11.1177ZM129.079 11.1177C129.079 10.9225 129.241 10.764 129.44 10.764C129.639 10.764 129.8 10.9225 129.8 11.1177H129.079ZM134.698 11.4715H129.44V10.764H134.698L135.059 11.1177L134.698 11.4715ZM134.698 10.764C134.897 10.764 135.059 10.9225 135.059 11.1177C135.059 11.3129 134.897 11.4715 134.698 11.4715V10.764ZM134.337 16.2749V11.1177H135.059V16.2749L134.698 16.6286L134.337 16.2749ZM135.059 16.2749C135.059 16.4701 134.897 16.6286 134.698 16.6286C134.499 16.6286 134.337 16.4701 134.337 16.2749H135.059ZM129.44 15.9212H134.697V16.6286H129.44L129.079 16.2749L129.44 15.9212ZM129.44 16.6286C129.241 16.6286 129.079 16.4701 129.079 16.2749C129.079 16.0797 129.241 15.9212 129.44 15.9212V16.6286ZM144.037 27.5137L137.342 36.9341L136.751 36.5296L143.445 27.1091L144.036 27.1075L144.037 27.5137H144.037ZM143.445 27.1091C143.559 26.9489 143.784 26.9096 143.947 27.0211C144.111 27.1326 144.151 27.3535 144.037 27.5137L143.446 27.1091H143.445ZM137.306 17.7554L144.035 27.1069L143.446 27.5153L136.716 18.1638L137.011 17.6061L137.306 17.7559V17.7554ZM136.716 18.1638C136.601 18.0041 136.64 17.7833 136.803 17.6706C136.965 17.558 137.19 17.5957 137.305 17.7554L136.716 18.1638H136.716ZM143.11 18.3136H137.011V17.6061H143.11L143.408 17.7614L143.11 18.3141V18.3136ZM143.11 17.6061C143.309 17.6061 143.47 17.7647 143.47 17.9599C143.47 18.155 143.309 18.3136 143.11 18.3136V17.6061ZM147.859 25.4477L142.812 18.1589L143.408 17.7614L148.455 25.0502L148.157 25.6029L147.859 25.4477ZM148.455 25.0502C148.567 25.2115 148.525 25.4318 148.36 25.5417C148.195 25.651 147.971 25.6095 147.858 25.4477L148.455 25.0502H148.455ZM145.493 24.8949H148.157V25.6024H145.493L145.195 25.0497L145.493 24.8944V24.8949ZM145.493 25.6024C145.294 25.6024 145.132 25.4438 145.132 25.2487C145.132 25.0535 145.294 24.8949 145.493 24.8949V25.6024ZM150.839 18.1583L145.791 25.4471L145.195 25.0497L150.242 17.7609L150.541 17.6056L150.839 18.1583ZM150.242 17.7609C150.354 17.5996 150.578 17.5575 150.743 17.6668C150.908 17.7762 150.951 17.9965 150.839 18.1583L150.243 17.7609H150.242ZM156.64 18.3136H150.541V17.6061H156.64L156.935 18.1638L156.64 18.3136ZM156.64 17.6061C156.839 17.6061 157 17.7647 157 17.9599C157 18.155 156.839 18.3136 156.64 18.3136V17.6061ZM149.615 27.1075L156.345 17.7559L156.935 18.1643L150.205 27.5159L149.614 27.5131L149.615 27.1075ZM150.205 27.5159C150.09 27.6755 149.865 27.7132 149.702 27.6006C149.539 27.488 149.501 27.2671 149.616 27.1075L150.206 27.5159H150.205ZM156.274 36.9336L149.614 27.5131L150.207 27.1102L156.867 36.5307L156.57 37.0861L156.274 36.9336ZM156.867 36.5307C156.98 36.6914 156.939 36.9117 156.776 37.0227C156.612 37.1337 156.387 37.0938 156.274 36.9336L156.867 36.5307H156.867ZM150.507 36.3781H156.571V37.0856H150.507L150.207 36.9276L150.507 36.3781ZM150.507 37.0856C150.308 37.0856 150.146 36.927 150.146 36.7318C150.146 36.5367 150.308 36.3781 150.507 36.3781V37.0856ZM145.865 29.2468L150.807 36.5356L150.207 36.9276L145.264 29.6388L145.565 29.0893L145.865 29.2473L145.865 29.2468ZM145.264 29.6388C145.154 29.4764 145.199 29.2566 145.365 29.1484C145.53 29.0401 145.754 29.0844 145.865 29.2468L145.264 29.6388ZM148.088 29.7968H145.565V29.0893H148.088L148.389 29.6388L148.088 29.7968ZM148.088 29.0893C148.287 29.0893 148.449 29.2479 148.449 29.443C148.449 29.6382 148.287 29.7968 148.088 29.7968V29.0893ZM142.846 36.5361L147.788 29.2473L148.389 29.6393L143.446 36.9281L143.146 37.0861L142.846 36.5367L142.846 36.5361ZM143.446 36.9281C143.336 37.0905 143.112 37.1348 142.946 37.0265C142.781 36.9183 142.736 36.6985 142.846 36.5361L143.446 36.9281ZM137.047 36.3787H143.146V37.0861H137.047L136.751 36.5301L137.047 36.3787ZM137.047 37.0861C136.848 37.0861 136.687 36.9276 136.687 36.7324C136.687 36.5372 136.848 36.3787 137.047 36.3787V37.0861Z" fill="#3325B2"/>
<path d="M48.1918 37.1457C46.1585 37.1457 44.3945 36.7045 42.8991 35.8221C41.4031 34.9392 40.2466 33.7534 39.4289 32.2636C38.6107 30.7738 38.2021 29.1232 38.2021 27.3125C38.2021 25.4329 38.6285 23.7594 39.4813 22.2926C40.3341 20.8257 41.485 19.6683 42.9336 18.8204C44.3822 17.9724 46.0181 17.5482 47.8412 17.5482C49.36 17.5482 50.7033 17.7833 51.8721 18.2534C53.0403 18.7231 54.0274 19.3824 54.8339 20.2298C55.6399 21.0783 56.2535 22.058 56.6744 23.1695C57.0952 24.2815 57.3053 25.4903 57.3053 26.797C57.3053 27.1638 57.2875 27.5246 57.2523 27.88C57.2178 28.2354 57.1531 28.5393 57.0595 28.7914H42.7235V25.0097H54.0804L51.5917 26.7975C51.8253 25.8118 51.8136 24.9354 51.5566 24.1673C51.2997 23.3991 50.8499 22.7917 50.2072 22.3451C49.5646 21.8984 48.7759 21.6742 47.8418 21.6742C46.9299 21.6742 46.1474 21.8924 45.493 22.3276C44.8387 22.7633 44.3482 23.4051 44.0205 24.2525C43.6933 25.1005 43.5651 26.1322 43.6353 27.347C43.5417 28.401 43.6699 29.3293 44.0205 30.1319C44.3711 30.9339 44.9084 31.5588 45.6329 32.0055C46.3575 32.4522 47.2337 32.6763 48.262 32.6763C49.1967 32.6763 49.9971 32.4926 50.6632 32.1258C51.3287 31.7589 51.8492 31.2549 52.2227 30.613L56.4286 32.5724C56.0551 33.4893 55.4649 34.2919 54.6584 34.9791C53.8524 35.6669 52.8999 36.1999 51.8013 36.5777C50.7033 36.956 49.4999 37.1452 48.1913 37.1452L48.1918 37.1457ZM69.3973 37.1457C67.5279 37.1457 65.857 36.71 64.3849 35.8391C62.9129 34.9682 61.7503 33.7878 60.8975 32.298C60.0447 30.8077 59.6184 29.1577 59.6184 27.3475C59.6184 25.5138 60.0503 23.8573 60.9153 22.3795C61.7798 20.9012 62.9486 19.7263 64.4206 18.8554C65.8926 17.9839 67.5396 17.5482 69.3628 17.5482C70.7645 17.5482 72.0091 17.8062 73.0954 18.3218C74.1823 18.8379 75.0412 19.565 75.6722 20.5048L74.8656 21.5365V10.7066H80.1233V36.7329H75.2162V33.2947L75.7073 34.3608C75.0529 35.2776 74.165 35.9708 73.0436 36.4405C71.9222 36.9106 70.706 37.1457 69.3973 37.1457ZM70.0283 32.5041C70.9864 32.5041 71.8274 32.286 72.5526 31.8508C73.2766 31.4156 73.8434 30.8077 74.2525 30.0286C74.6616 29.249 74.8662 28.3556 74.8662 27.347C74.8662 26.3383 74.6616 25.4444 74.2525 24.6653C73.8434 23.8862 73.2771 23.2783 72.5526 22.8431C71.828 22.4074 70.9869 22.1898 70.0283 22.1898C69.0702 22.1898 68.2118 22.4134 67.4521 22.8606C66.693 23.3073 66.1027 23.9147 65.6819 24.6828C65.2617 25.4504 65.0516 26.3388 65.0516 27.3475C65.0516 28.3556 65.2617 29.2495 65.6819 30.0291C66.1027 30.8082 66.693 31.4161 67.4521 31.8513C68.2118 32.2871 69.0702 32.5041 70.0283 32.5041ZM83.9786 36.7329V10.7066H89.2362V36.7329H83.9786ZM102.59 37.1457C100.698 37.1457 98.9739 36.7215 97.42 35.8735C95.8661 35.0256 94.6276 33.8621 93.7046 32.3838C92.7816 30.9055 92.3207 29.2266 92.3207 27.347C92.3207 25.4444 92.7816 23.7594 93.7046 22.2926C94.6281 20.8257 95.8661 19.6683 97.42 18.8204C98.9739 17.9724 100.697 17.5482 102.59 17.5482C104.483 17.5482 106.2 17.9724 107.743 18.8204C109.285 19.6683 110.518 20.8257 111.441 22.2926C112.364 23.7594 112.826 25.4444 112.826 27.347C112.826 29.226 112.364 30.905 111.441 32.3838C110.518 33.8621 109.285 35.0256 107.743 35.8735C106.201 36.7215 104.483 37.1457 102.59 37.1457ZM102.59 32.5041C103.548 32.5041 104.384 32.286 105.097 31.8508C105.809 31.4156 106.37 30.8077 106.779 30.0286C107.188 29.249 107.392 28.3556 107.392 27.347C107.392 26.3383 107.187 25.4504 106.779 24.6823C106.37 23.9141 105.809 23.3067 105.097 22.8601C104.384 22.4129 103.548 22.1892 102.59 22.1892C101.633 22.1892 100.791 22.4129 100.067 22.8601C99.3423 23.3067 98.7761 23.9141 98.367 24.6823C97.9578 25.4499 97.7533 26.3383 97.7533 27.347C97.7533 28.3551 97.9578 29.249 98.367 30.0286C98.7761 30.8077 99.3423 31.4156 100.067 31.8508C100.791 32.2865 101.633 32.5041 102.59 32.5041ZM115.909 36.7329V17.961H120.817V22.4653L120.466 21.812C120.887 20.2304 121.582 19.1594 122.552 18.5973C123.521 18.0359 124.672 17.7548 126.004 17.7548H127.125V22.2242H125.478C124.192 22.2242 123.153 22.608 122.358 23.3756C121.564 24.1438 121.167 25.2268 121.167 26.6247V36.7329H115.909ZM129.439 36.7329V17.961H134.697V36.7329H129.439ZM129.439 16.2765V11.1194H134.697V16.2765H129.439ZM137.045 36.7329L143.74 27.3125L137.01 17.961H143.109L148.156 25.2498H145.492L150.54 17.961H156.638L149.908 27.3125L156.568 36.7329H150.504L145.562 29.4441H148.085L143.143 36.7329H137.044H137.045Z" fill="#3325B2"/>
</svg>
