<svg width="49" height="48" viewBox="0 0 49 48" fill="none" xmlns="http://www.w3.org/2000/svg">
<g clip-path="url(#clip0_18_1261)">
<path fill-rule="evenodd" clip-rule="evenodd" d="M21.9286 5.14291C17.6093 5.14291 13.467 6.85872 10.4128 9.91289C7.35867 12.9671 5.64286 17.1094 5.64286 21.4286C5.64286 25.7479 7.35867 29.8902 10.4128 32.9444C13.467 35.9985 17.6093 37.7143 21.9286 37.7143C26.2478 37.7143 30.3901 35.9985 33.4443 32.9444C36.4985 29.8902 38.2143 25.7479 38.2143 21.4286C38.2143 17.1094 36.4985 12.9671 33.4443 9.91289C30.3901 6.85872 26.2478 5.14291 21.9286 5.14291ZM0.5 21.4286C0.500646 18.0505 1.29994 14.7204 2.83267 11.71C4.36541 8.69968 6.58814 6.09432 9.31952 4.10657C12.0509 2.11882 15.2135 0.804983 18.5494 0.272271C21.8852 -0.260441 25.2997 0.00306177 28.5144 1.04128C31.729 2.0795 34.6526 3.86301 37.0466 6.2463C39.4407 8.62959 41.2374 11.5451 42.2901 14.755C43.3428 17.9649 43.6217 21.3782 43.1041 24.7164C42.5864 28.0546 41.2868 31.2232 39.3114 33.9635L47.4954 42.1475C48.12 42.7941 48.4655 43.6602 48.4577 44.5591C48.4499 45.4581 48.0893 46.318 47.4537 46.9537C46.818 47.5894 45.958 47.95 45.0591 47.9578C44.1601 47.9656 43.2941 47.62 42.6474 46.9955L34.4634 38.8115C31.2631 41.1196 27.4877 42.4993 23.5532 42.7985C19.6188 43.0976 15.6781 42.3046 12.1656 40.5069C8.65312 38.7092 5.7052 35.9765 3.6468 32.6102C1.5884 29.2438 0.499456 25.3744 0.5 21.4286ZM19.1446 10.3886C18.6899 10.3886 18.2539 10.5692 17.9324 10.8907C17.6109 11.2122 17.4303 11.6483 17.4303 12.1029V16.9235H12.6029C12.1482 16.9235 11.7122 17.1041 11.3907 17.4256C11.0692 17.7471 10.8886 18.1831 10.8886 18.6378V24.2092C10.8886 24.6639 11.0692 25.0999 11.3907 25.4214C11.7122 25.7429 12.1482 25.9235 12.6029 25.9235H17.4234V30.7543C17.4234 31.209 17.604 31.645 17.9255 31.9665C18.247 32.288 18.6831 32.4686 19.1377 32.4686H24.7091C25.1638 32.4686 25.5998 32.288 25.9213 31.9665C26.2428 31.645 26.4234 31.209 26.4234 30.7543V25.9269H31.2543C31.7089 25.9269 32.145 25.7463 32.4665 25.4248C32.788 25.1033 32.9686 24.6673 32.9686 24.2126V18.6412C32.9686 18.1865 32.788 17.7505 32.4665 17.429C32.145 17.1075 31.7089 16.9269 31.2543 16.9269H26.4303V12.1063C26.4303 11.6517 26.2497 11.2156 25.9282 10.8942C25.6067 10.5727 25.1707 10.3921 24.716 10.3921L19.1446 10.3886Z" fill="#AA7604" fill-opacity="0.86"/>
</g>
<defs>
<clipPath id="clip0_18_1261">
<rect width="48" height="48" fill="white" transform="translate(0.5)"/>
</clipPath>
</defs>
</svg>
