<svg width="30" height="27" viewBox="0 0 30 27" fill="none" xmlns="http://www.w3.org/2000/svg">
<g clip-path="url(#clip0_2030_911)">
<path d="M29.7667 4.24286C28.6882 4.72286 27.5267 5.04286 26.3119 5.19101C27.5564 4.44434 28.5045 3.26508 28.9549 1.86656C27.7934 2.54805 26.5075 3.05175 25.1386 3.31842C24.0423 2.15101 22.4778 1.42212 20.7475 1.42212C17.423 1.42212 14.7327 4.11249 14.7327 7.43693C14.7327 7.91101 14.786 8.3673 14.8867 8.80582C9.89117 8.55693 5.45858 6.16286 2.48969 2.52434C1.97413 3.41323 1.67784 4.44434 1.67784 5.54656C1.67784 7.63249 2.73858 9.47545 4.35043 10.554C3.36673 10.5243 2.43636 10.2517 1.62451 9.80138C1.62451 9.82508 1.62451 9.84879 1.62451 9.87842C1.62451 12.794 3.69858 15.2236 6.44821 15.7747C5.9445 15.911 5.41117 15.988 4.86599 15.988C4.4808 15.988 4.10154 15.9525 3.73413 15.8814C4.49858 18.2695 6.7208 20.0117 9.35191 20.0592C7.29562 21.671 4.70006 22.631 1.88525 22.631C1.39932 22.631 0.91932 22.6014 0.451172 22.548C3.11191 24.2547 6.27636 25.2503 9.67191 25.2503C20.7356 25.2503 26.786 16.0888 26.786 8.13619C26.786 7.87545 26.7801 7.61471 26.7682 7.3599C27.9415 6.50656 28.9608 5.44582 29.7667 4.24286Z" fill="#FEFCFF"/>
</g>
<defs>
<clipPath id="clip0_2030_911">
<rect width="29.6296" height="26.6667" fill="white" transform="translate(0.333008)"/>
</clipPath>
</defs>
</svg>
