<svg width="250" height="24" viewBox="0 0 295 24" fill="none" xmlns="http://www.w3.org/2000/svg">
<path d="M271.609 2.95385C265.21 2.4 258.701 1.84615 252.192 1.29231C250.096 1.10769 247.89 1.10769 245.794 0.923077C241.16 0.738462 236.527 0.553846 231.893 0.369231C229.356 0.184615 226.708 0.184615 224.171 0C223.399 0 222.627 0 221.965 0C220.31 0 218.655 0 216.89 0C209.278 0 201.666 0 194.054 0C192.288 0 190.413 0 188.648 0.184615C184.125 0.369231 179.712 0.369231 175.189 0.553846C170.114 0.738462 165.039 0.738462 159.965 0.923077C151.801 1.29231 143.527 1.66154 135.363 2.03077C130.619 2.21538 125.876 2.4 121.132 2.58462C112.968 3.13846 104.804 3.69231 96.6407 4.24615C92.1175 4.61538 87.7047 4.8 83.1816 5.16923C74.6869 6.09231 66.1922 6.83077 57.6976 7.56923C53.1744 7.93846 48.6513 8.30769 44.1282 8.86154C35.7438 9.96923 27.2491 11.2615 18.8648 12.5538C17.0997 12.7385 15.2242 13.1077 13.3488 13.2923C9.81852 13.8462 6.17794 14.7692 2.53737 15.5077C2.31673 15.5077 2.09609 15.6923 1.87545 15.6923C1.43417 15.6923 1.1032 16.0615 0.772243 16.6154C0.220641 17.5385 0 18.6462 0 19.7538C0 20.8615 0.220641 21.9692 0.772243 22.7077C1.21352 23.4462 1.98577 24 2.53737 24C6.95019 23.2615 11.2527 22.3385 15.6655 21.6C19.7474 21.0462 23.8292 20.4923 27.9111 19.9385C32.3239 19.3846 36.7367 18.6462 41.2598 18.0923C43.025 17.9077 44.7901 17.5385 46.6655 17.3538C53.6157 16.8 60.4556 16.0615 67.4058 15.5077C71.7083 15.1385 76.0108 14.7692 80.3133 14.4C82.0784 14.2154 83.8435 14.0308 85.6086 13.8462C92.4485 13.2923 99.2884 12.9231 106.128 12.3692C110.32 12.1846 114.402 11.8154 118.594 11.6308C120.029 11.6308 121.352 11.4462 122.787 11.4462C130.178 11.0769 137.57 10.8923 144.961 10.5231C149.043 10.3385 153.235 10.1538 157.317 9.96923C158.751 9.96923 160.296 9.78461 161.73 9.78461C169.342 9.6 176.954 9.6 184.676 9.41538C189.42 9.41538 194.164 9.23077 198.908 9.23077C206.961 9.23077 215.125 9.23077 223.178 9.41538C224.723 9.41538 226.377 9.6 227.922 9.6C232.445 9.78462 236.858 9.96923 241.381 10.3385C244.691 10.5231 248.111 10.7077 251.42 10.8923C253.847 11.0769 256.164 11.2615 258.591 11.4462C265.541 12 272.602 12.7385 279.552 13.4769C281.317 13.6615 283.082 13.8462 284.847 14.0308C286.723 14.2154 288.708 14.4 290.584 14.7692C290.915 14.7692 291.136 14.9538 291.467 15.1385C292.239 15.3231 292.901 15.3231 293.563 14.5846C294.225 14.0308 294.666 12.9231 294.886 11.8154C295.328 9.41539 294.445 6.83077 292.901 6.09231C291.577 5.53846 290.253 5.35385 289.039 4.98461C288.157 4.8 287.274 4.61538 286.392 4.61538C284.627 4.24615 282.862 4.24615 281.207 3.87692C278.118 3.69231 274.808 3.32308 271.609 2.95385Z" fill="#A2E4A9"/>
</svg>
