<svg width="64" height="64" viewBox="0 0 64 64" fill="none" xmlns="http://www.w3.org/2000/svg">
<path opacity="0.5" fill-rule="evenodd" clip-rule="evenodd" d="M32.0003 5.33337C20.219 5.33337 10.667 15.056 10.667 27.048C10.667 38.9467 17.475 52.8347 28.099 57.7974C29.3201 58.3692 30.652 58.6655 32.0003 58.6655C33.3487 58.6655 34.6805 58.3692 35.9017 57.7974C46.5257 52.832 53.3337 38.9494 53.3337 27.0507C53.3337 15.0534 43.7817 5.33337 32.0003 5.33337ZM32.0003 37.3334C34.8293 37.3334 37.5424 36.2096 39.5428 34.2092C41.5432 32.2088 42.667 29.4957 42.667 26.6667C42.667 23.8377 41.5432 21.1246 39.5428 19.1242C37.5424 17.1238 34.8293 16 32.0003 16C29.1713 16 26.4582 17.1238 24.4579 19.1242C22.4575 21.1246 21.3337 23.8377 21.3337 26.6667C21.3337 29.4957 22.4575 32.2088 24.4579 34.2092C26.4582 36.2096 29.1713 37.3334 32.0003 37.3334Z" fill="#5E51DB"/>
<path fill-rule="evenodd" clip-rule="evenodd" d="M32.0007 37.3333C34.8296 37.3333 37.5427 36.2095 39.5431 34.2091C41.5435 32.2088 42.6673 29.4956 42.6673 26.6667C42.6673 23.8377 41.5435 21.1246 39.5431 19.1242C37.5427 17.1238 34.8296 16 32.0007 16C29.1717 16 26.4586 17.1238 24.4582 19.1242C22.4578 21.1246 21.334 23.8377 21.334 26.6667C21.334 29.4956 22.4578 32.2088 24.4582 34.2091C26.4586 36.2095 29.1717 37.3333 32.0007 37.3333ZM34.0006 22.6667C34.0006 22.1362 33.7899 21.6275 33.4149 21.2525C33.0398 20.8774 32.5311 20.6667 32.0007 20.6667C31.4702 20.6667 30.9615 20.8774 30.5864 21.2525C30.2114 21.6275 30.0007 22.1362 30.0007 22.6667V24.6667H28.0007C27.4702 24.6667 26.9615 24.8774 26.5864 25.2525C26.2114 25.6275 26.0007 26.1362 26.0007 26.6667C26.0007 27.1971 26.2114 27.7058 26.5864 28.0809C26.9615 28.456 27.4702 28.6667 28.0007 28.6667H30.0007V30.6667C30.0007 31.1971 30.2114 31.7058 30.5864 32.0809C30.9615 32.456 31.4702 32.6667 32.0007 32.6667C32.5311 32.6667 33.0398 32.456 33.4149 32.0809C33.7899 31.7058 34.0006 31.1971 34.0006 30.6667V28.6667H36.0006C36.5311 28.6667 37.0398 28.456 37.4149 28.0809C37.7899 27.7058 38.0006 27.1971 38.0006 26.6667C38.0006 26.1362 37.7899 25.6275 37.4149 25.2525C37.0398 24.8774 36.5311 24.6667 36.0006 24.6667H34.0006V22.6667Z" fill="#3325B2"/>
</svg>
