<svg width="27" height="27" viewBox="0 0 27 27" fill="none" xmlns="http://www.w3.org/2000/svg">
<path d="M16.4557 12.4444C17.1557 16.7444 14.389 20.3444 9.95566 20.3444C6.15566 20.3444 3.05566 17.2444 3.05566 13.4444C3.05566 9.64443 6.15566 6.54443 9.95566 6.54443C12.9223 6.54443 14.5557 8.34443 14.5557 8.34443L12.689 10.1444C12.689 10.1444 11.7223 9.07777 9.95566 9.07777C7.589 9.07777 5.689 11.0444 5.689 13.4444C5.689 15.8778 7.589 17.8111 9.95566 17.8111C12.6557 17.8111 13.7223 15.8778 13.8557 14.8111H9.95566V12.4444H16.4557ZM22.7557 10.4778V12.4444H24.7223V14.4444H22.7557V16.4111H20.789V14.4444H18.8223V12.4444H20.789V10.4778H22.7557Z" fill="#FEFCFF"/>
</svg>
