<svg width="150" height="30" viewBox="0 0 157 38" fill="none" xmlns="http://www.w3.org/2000/svg">
<path d="M30.0773 6.79159V0.5H36.6838V9.31577H44.7962V15.2722H36.6838C35.442 14.4051 36.4229 13.9317 34.6733 11.7579C33.8707 10.7602 32.8831 9.87779 31.5398 9.39887C29.8399 8.79311 30.0768 9.22283 30.0768 6.79214L30.0773 6.79159Z" fill="#44C853"/>
<path d="M14.0609 22.5244C14.0609 20.2369 13.7605 18.6165 13.1618 17.6641C12.5632 16.7112 11.5349 16.2344 10.0768 16.2344C9.62313 16.2344 9.15383 16.2579 8.66836 16.3055C8.18234 16.3536 7.71248 16.4088 7.2599 16.4723V36.8374H0.0213985V16.2027C0.0213985 13.1471 -0.368757 11.6519 2.18286 11.1117C3.00832 10.9373 3.88283 10.7782 4.80582 10.635C5.72882 10.4918 6.67634 10.3813 7.64783 10.3015C8.61987 10.2222 9.5752 10.1823 10.5144 10.1823C12.3604 10.1823 13.8586 10.413 15.0084 10.8734C16.1577 11.3337 17.1052 11.882 17.8498 12.5173C18.886 11.7864 20.0765 11.2145 21.4203 10.8017C22.7641 10.389 24.0032 10.1823 25.1368 10.1823C27.1768 10.1823 28.8533 10.4606 30.1648 11.0166C31.4763 11.5726 32.5208 12.3588 33.2983 13.3757C34.0759 14.392 34.6109 15.5997 34.9019 16.9971C35.1928 18.394 35.3388 19.9521 35.3388 21.6671V36.8379H28.1003V22.5249C28.1003 20.2375 27.8005 18.6176 27.2019 17.6646C26.6027 16.7117 25.5744 16.235 24.1169 16.235C23.7284 16.235 23.1861 16.3301 22.4894 16.5209C21.7932 16.7112 21.218 16.9495 20.7649 17.2355C20.9917 17.9664 21.1383 18.7368 21.2018 19.547C21.2659 20.3561 21.2988 21.2238 21.2988 22.1439V36.8379H14.0609V22.5249V22.5244Z" fill="#3325B2"/>
<path d="M42.7134 36.1256L43.0857 35.5193L43.2211 35.5969L43.3577 35.6729L43.4959 35.7456L43.6358 35.8161L43.7774 35.8845L43.9201 35.9501L44.0644 36.0135L44.2104 36.0742L44.3576 36.1327L44.5064 36.1884L44.6575 36.242L44.8096 36.2929L44.9634 36.341L45.119 36.3869L45.2756 36.4306L45.4344 36.4716L45.5949 36.5105L45.7566 36.5465L45.9199 36.5799L46.0849 36.6111L46.2521 36.64L46.4204 36.6663L46.5904 36.6898L46.7615 36.7111L46.9348 36.7297L47.1099 36.7461L47.286 36.7598L47.4643 36.7712L47.6438 36.78L47.8255 36.786L48.0089 36.7898L48.1934 36.7909V37.4984L47.9983 37.4973L47.8049 37.4935L47.6132 37.4869L47.4231 37.4776L47.2342 37.4656L47.0469 37.4508L46.8613 37.4333L46.6768 37.4136L46.494 37.3907L46.3123 37.365L46.1328 37.3371L45.9544 37.3065L45.7778 37.2731L45.6022 37.237L45.4283 37.1982L45.2561 37.1567L45.0855 37.1129L44.9161 37.0659L44.7489 37.0162L44.5828 36.9642L44.4183 36.909L44.2556 36.8511L44.0945 36.7909L43.9345 36.7275L43.7768 36.6614L43.6202 36.593L43.4658 36.5214L43.3125 36.4476L43.1604 36.371L43.0104 36.2918L42.8622 36.2098L42.7156 36.125L42.7134 36.1256ZM39.1117 32.432L39.7471 32.0963L39.8217 32.2297L39.8987 32.3614L39.9773 32.4916L40.0575 32.6195L40.14 32.7463L40.2242 32.871L40.3106 32.994L40.3981 33.1154L40.4884 33.2351L40.5803 33.3532L40.674 33.4691L40.7698 33.5833L40.8674 33.6965L40.9666 33.807L41.068 33.9163L41.1711 34.024L41.2765 34.1295L41.3835 34.2339L41.4922 34.3362L41.6031 34.4373L41.7157 34.5368L41.8305 34.6341L41.9475 34.7304L42.0663 34.8244L42.1867 34.9168L42.3093 35.0081L42.4336 35.0972L42.5601 35.1847L42.6883 35.2705L42.8187 35.3547L42.9514 35.4373L43.0857 35.5182L42.7134 36.1245L42.5696 36.0376L42.4274 35.9495L42.2875 35.8593L42.1493 35.7669L42.0133 35.6729L41.879 35.5767L41.7469 35.4788L41.617 35.3793L41.4888 35.2776L41.3629 35.1743L41.2386 35.0688L41.1165 34.9616L40.9967 34.8523L40.8785 34.7413L40.7631 34.6287L40.6494 34.5139L40.538 34.3974L40.4282 34.2793L40.3206 34.1585L40.2153 34.0366L40.1121 33.9125L40.0107 33.7867L39.9115 33.6593L39.8145 33.5303L39.7192 33.3991L39.6261 33.2663L39.5353 33.1312L39.4461 32.9945L39.3597 32.8562L39.275 32.7163L39.1925 32.5741L39.1122 32.4303L39.1117 32.432ZM37.842 27.3131H38.5632L38.5643 27.4776L38.5677 27.6411L38.5733 27.8035L38.5816 27.9648L38.5922 28.125L38.605 28.2846L38.6201 28.4431L38.6373 28.6006L38.6569 28.757L38.6786 28.9128L38.7031 29.0675L38.7299 29.2211L38.7589 29.3736L38.7901 29.5251L38.8235 29.6765L38.8592 29.8258L38.8971 29.9745L38.9378 30.1226L38.9807 30.2692L39.0258 30.4151L39.0732 30.5606L39.1228 30.7049L39.1746 30.8481L39.2287 30.9903L39.2856 31.1313L39.3441 31.2718L39.4054 31.4113L39.4689 31.5501L39.5347 31.6884L39.6027 31.8251L39.6735 31.9612L39.7465 32.0963L39.1111 32.432L39.0331 32.2865L38.9573 32.1406L38.8843 31.993L38.8135 31.8448L38.7455 31.6961L38.6797 31.5457L38.6162 31.3948L38.5554 31.2429L38.4969 31.0898L38.4406 30.9356L38.3876 30.7803L38.3369 30.6245L38.2884 30.4676L38.2427 30.3096L38.1993 30.1511L38.158 29.9914L38.1196 29.8307L38.0839 29.6694L38.0504 29.507L38.0192 29.3436L37.9908 29.179L37.9652 29.0139L37.9412 28.8477L37.9206 28.6804L37.9016 28.5126L37.8855 28.3436L37.8721 28.1736L37.8609 28.003L37.8526 27.8314L37.8464 27.6592L37.8425 27.4858L37.8414 27.3114L37.842 27.3131ZM39.1685 22.1182L39.795 22.4686L39.7192 22.6015L39.6462 22.7354L39.5754 22.8705L39.5068 23.0072L39.4411 23.1444L39.3775 23.2832L39.3162 23.4227L39.2577 23.5637L39.2014 23.7059L39.1473 23.8491L39.0955 23.9934L39.0465 24.1389L38.9996 24.2859L38.955 24.4341L38.9132 24.5833L38.8737 24.7342L38.8363 24.8862L38.8012 25.0387L38.7689 25.1929L38.7388 25.3487L38.7109 25.5051L38.6858 25.6631L38.663 25.8222L38.6424 25.9829L38.624 26.1448L38.6084 26.3077L38.595 26.4717L38.5838 26.6373L38.5755 26.8041L38.5693 26.9719L38.566 27.1414L38.5649 27.312H37.8437L37.8448 27.1316L37.8487 26.9522L37.8548 26.774L37.8637 26.5969L37.8754 26.4208L37.8894 26.2459L37.9061 26.072L37.9256 25.8998L37.9473 25.7287L37.9719 25.5581L37.9992 25.3892L38.0293 25.2214L38.0616 25.0546L38.0967 24.8889L38.134 24.7244L38.1742 24.5615L38.2171 24.3996L38.2622 24.2389L38.3102 24.0793L38.3603 23.9213L38.4133 23.7638L38.469 23.608L38.5275 23.4533L38.5883 23.3002L38.6518 23.1477L38.7182 22.9962L38.7873 22.847L38.8586 22.6988L38.9328 22.5512L39.0091 22.4052L39.0883 22.2603L39.1696 22.1171L39.1685 22.1182ZM42.7496 18.5175L43.1191 19.1249L42.9893 19.2026L42.8611 19.2818L42.7345 19.3628L42.6097 19.4453L42.4865 19.5295L42.365 19.6153L42.2452 19.7034L42.127 19.793L42.0105 19.8843L41.8957 19.9773L41.7826 20.0724L41.6711 20.1686L41.5613 20.2665L41.4537 20.3665L41.3473 20.4682L41.243 20.5715L41.1399 20.6771L41.0385 20.7837L40.9393 20.8919L40.8412 21.0024L40.7447 21.115L40.65 21.2292L40.5569 21.3451L40.4661 21.4627L40.3763 21.5819L40.2883 21.7032L40.2019 21.8263L40.1172 21.9509L40.0335 22.0777L39.9522 22.2057L39.8725 22.3358L39.7944 22.4676L39.168 22.1171L39.2516 21.9761L39.3368 21.8366L39.4243 21.6989L39.5135 21.5633L39.6044 21.4293L39.6975 21.297L39.7922 21.1669L39.8886 21.0379L39.9873 20.9111L40.0876 20.7864L40.1896 20.6634L40.2933 20.5426L40.3992 20.4234L40.5068 20.3058L40.6166 20.1905L40.7275 20.0768L40.8401 19.9652L40.9549 19.8553L41.0714 19.7476L41.1895 19.6416L41.3094 19.5372L41.4314 19.4349L41.5552 19.3349L41.6806 19.2365L41.8076 19.1397L41.937 19.0451L42.0679 18.9522L42.2006 18.8614L42.3349 18.7723L42.4715 18.6854L42.6091 18.6001L42.749 18.517L42.7496 18.5175ZM47.8417 17.195V17.9025L47.6767 17.9036L47.5128 17.9069L47.3501 17.9129L47.1884 17.9211L47.0279 17.932L46.8685 17.9451L46.7108 17.9604L46.5536 17.9785L46.3975 17.9987L46.2432 18.0211L46.0899 18.0463L45.9377 18.0742L45.7861 18.1042L45.6362 18.1365L45.4874 18.1709L45.3391 18.2081L45.1925 18.2475L45.047 18.2896L44.9021 18.3338L44.7589 18.3798L44.6162 18.429L44.4746 18.4804L44.3347 18.5339L44.1954 18.5903L44.0572 18.6487L43.9201 18.7094L43.7841 18.7729L43.6492 18.8385L43.5154 18.9063L43.3822 18.9768L43.2501 19.0495L43.1191 19.1244L42.7496 18.517L42.8912 18.4355L43.0338 18.3568L43.1776 18.2803L43.3231 18.2065L43.4697 18.1354L43.6174 18.067L43.7662 18.0009L43.9162 17.9375L44.0672 17.8768L44.2194 17.8183L44.3726 17.7631L44.527 17.71L44.6825 17.6597L44.8392 17.6122L44.9969 17.5668L45.1557 17.5242L45.3157 17.4842L45.4768 17.4465L45.6384 17.4115L45.8012 17.3793L45.9656 17.3498L46.1311 17.3224L46.2972 17.2978L46.4644 17.2759L46.6328 17.2563L46.8022 17.2393L46.9727 17.2251L47.1444 17.2136L47.3166 17.2049L47.4905 17.1983L47.665 17.1945L47.8406 17.1934L47.8417 17.195ZM52.0091 17.9271L51.7354 18.5815L51.6301 18.54L51.5236 18.4995L51.4161 18.4607L51.3074 18.423L51.1981 18.3869L51.0878 18.3519L50.9763 18.318L50.8637 18.2857L50.7495 18.2546L50.6346 18.225L50.5187 18.1966L50.4022 18.1693L50.2841 18.1436L50.1653 18.119L50.0455 18.096L49.924 18.0736L49.8019 18.0534L49.6788 18.0342L49.5539 18.0162L49.4285 17.9993L49.302 17.9839L49.1749 17.9703L49.0461 17.9577L48.9163 17.9462L48.7859 17.9364L48.6543 17.9276L48.5211 17.9205L48.3873 17.9145L48.2525 17.9101L48.1159 17.9069L47.9788 17.9047L47.8406 17.9041V17.1967L47.986 17.1972L48.1304 17.1994L48.2736 17.2027L48.4163 17.2076L48.5579 17.2136L48.6983 17.2213L48.8382 17.2306L48.977 17.2415L49.1147 17.2535L49.2513 17.2667L49.3878 17.282L49.5221 17.2984L49.6559 17.3159L49.7886 17.335L49.9201 17.3552L50.0511 17.3776L50.1809 17.4011L50.3097 17.4257L50.4373 17.4525L50.5639 17.4804L50.6904 17.5099L50.8152 17.5406L50.939 17.5728L51.0616 17.6062L51.1836 17.6412L51.3046 17.6778L51.4244 17.7155L51.5431 17.7554L51.6607 17.7964L51.7778 17.8385L51.8937 17.8823L52.0085 17.9276L52.0091 17.9271ZM55.098 19.9898L54.5702 20.472L54.4972 20.3966L54.4236 20.3222L54.3489 20.249L54.2731 20.1768L54.1968 20.1057L54.1187 20.0358L54.0401 19.9669L53.9604 19.8985L53.8796 19.8318L53.7977 19.7657L53.7152 19.7012L53.6316 19.6378L53.5469 19.5754L53.461 19.5137L53.3741 19.453L53.286 19.3934L53.1968 19.3349L53.1071 19.2775L53.0163 19.2212L52.9237 19.1654L52.8307 19.1113L52.7365 19.0582L52.6412 19.0058L52.5453 18.9544L52.4477 18.9041L52.3491 18.8549L52.2499 18.8067L52.149 18.7597L52.047 18.7138L51.9444 18.669L51.8408 18.6252L51.7354 18.582L52.0091 17.9276L52.1222 17.9736L52.2343 18.0206L52.3457 18.0692L52.4556 18.1195L52.5642 18.1704L52.6724 18.2223L52.7788 18.2753L52.8847 18.3295L52.9895 18.3852L53.0926 18.4421L53.1952 18.5L53.2966 18.5596L53.3969 18.6198L53.4962 18.681L53.5948 18.7439L53.6918 18.8078L53.7877 18.8729L53.8824 18.9391L53.976 19.0063L54.0691 19.0746L54.1611 19.1441L54.2519 19.2151L54.3417 19.2873L54.4297 19.3606L54.5172 19.4349L54.6036 19.5109L54.6884 19.5875L54.7731 19.6651L54.8556 19.7444L54.9375 19.8242L55.0183 19.9056L55.0975 19.9882L55.098 19.9898ZM57.0126 23.0476L56.3365 23.2942L56.298 23.1941L56.2585 23.0946L56.2178 22.9962L56.176 22.8989L56.133 22.8016L56.089 22.7054L56.0444 22.6102L55.9987 22.5157L55.9519 22.4222L55.9034 22.3292L55.8544 22.2374L55.8042 22.1461L55.7529 22.0553L55.7005 21.9657L55.647 21.8766L55.5918 21.788L55.5361 21.7L55.4793 21.613L55.4213 21.5267L55.3628 21.4414L55.3031 21.3566L55.2418 21.2724L55.1794 21.1888L55.1164 21.1062L55.0518 21.0242L54.986 20.9428L54.9197 20.8629L54.8517 20.7831L54.7831 20.7044L54.7134 20.6262L54.6427 20.5491L54.5708 20.4726L55.0986 19.9904L55.1766 20.0735L55.2535 20.1577L55.3293 20.2424L55.4035 20.3277L55.4765 20.4141L55.5489 20.5016L55.6197 20.5896L55.6894 20.6782L55.7585 20.7678L55.8259 20.858L55.8923 20.9493L55.958 21.0417L56.0221 21.1347L56.0846 21.2281L56.1459 21.3222L56.2066 21.4173L56.2657 21.513L56.3242 21.6098L56.3816 21.7076L56.4368 21.806L56.4914 21.9055L56.5449 22.0056L56.5968 22.1062L56.6481 22.2073L56.6982 22.3095L56.7473 22.4129L56.7946 22.5168L56.8409 22.6212L56.886 22.7267L56.9301 22.8328L56.9724 22.9399L57.0142 23.0476H57.0126ZM57.6664 26.7981H56.9451L56.9446 26.6794L56.9429 26.5613L56.9401 26.4444L56.9362 26.3274L56.9306 26.2109L56.9239 26.095L56.9161 25.9796L56.9072 25.8654L56.8966 25.7517L56.8855 25.6385L56.8732 25.5259L56.8598 25.4132L56.8448 25.3023L56.8286 25.1913L56.8114 25.0808L56.793 24.9715L56.7729 24.8622L56.7523 24.7528L56.7305 24.6451L56.7071 24.5374L56.6832 24.4308L56.6575 24.3247L56.6308 24.2187L56.6029 24.1137L56.5739 24.0093L56.5438 23.9054L56.5126 23.8021L56.4803 23.6998L56.4468 23.5976L56.4112 23.4959L56.3755 23.3948L56.3382 23.2947L57.0142 23.0482L57.0549 23.157L57.0939 23.2658L57.1313 23.3751L57.1681 23.4855L57.2032 23.5965L57.2366 23.708L57.269 23.8196L57.3002 23.9322L57.3303 24.0454L57.3592 24.1591L57.3866 24.2733L57.4128 24.3882L57.4378 24.5035L57.4612 24.62L57.4835 24.7359L57.5047 24.8529L57.5248 24.9704L57.5432 25.0885L57.5605 25.2071L57.5761 25.3269L57.5906 25.4466L57.6039 25.5669L57.6162 25.6877L57.6268 25.8091L57.6363 25.9315L57.6446 26.054L57.6519 26.177L57.6574 26.3006L57.6619 26.4247L57.6652 26.5493L57.6669 26.6745L57.6675 26.8003L57.6664 26.7981ZM57.6117 27.915L56.8939 27.8472V27.8467L56.8972 27.815L56.9005 27.7827L56.9033 27.7505L56.9061 27.7182L56.9089 27.6848L56.9117 27.6526L56.9145 27.6209L56.9167 27.5886L56.9189 27.5553L56.9212 27.5225L56.9234 27.4908L56.9256 27.4585L56.9278 27.4246L56.9301 27.3918L56.9318 27.359L56.9334 27.3262L56.9351 27.2934L56.9368 27.2606L56.9379 27.2278L56.939 27.1939L56.9401 27.1611L56.9412 27.1294L56.9423 27.0966L56.9435 27.0627L56.9446 27.0299L56.9451 26.9976L56.9457 26.9648L56.9462 26.9304L56.9468 26.8976V26.8642V26.8309V26.7975H57.668V26.8331V26.8686V26.9041L57.6675 26.9397L57.6669 26.9741L57.6664 27.0091L57.6652 27.0457L57.6641 27.0813L57.663 27.1152L57.6619 27.1502L57.6608 27.1862L57.6597 27.2212L57.6586 27.2551L57.6569 27.2901L57.6552 27.3251L57.6535 27.3601L57.6519 27.3951L57.6496 27.4301L57.6474 27.4651L57.6452 27.499L57.6429 27.534L57.6407 27.57L57.6385 27.605L57.6363 27.6389L57.6335 27.6734L57.6307 27.7094L57.6273 27.7444L57.6246 27.7778L57.6218 27.8122L57.6184 27.8472L57.6151 27.8817L57.6117 27.9161V27.9156V27.915ZM57.0599 29.1462V28.4388L56.7211 28.6722L56.7283 28.652L56.7361 28.6307L56.7428 28.6104L56.75 28.5891L56.7573 28.5667L56.7645 28.5437L56.7712 28.5219L56.7774 28.4995L56.7835 28.477L56.7902 28.453L56.7963 28.4284L56.8024 28.4049L56.808 28.3808L56.8141 28.3546L56.8203 28.3289L56.8259 28.3037L56.8309 28.2786L56.8359 28.2512L56.8409 28.225L56.8459 28.1982L56.8509 28.1703L56.856 28.1419L56.8604 28.1146L56.8649 28.0867L56.8688 28.0577L56.8727 28.0293L56.8766 28.0008L56.8805 27.9702L56.8844 27.9396L56.8877 27.9095L56.8911 27.8795L56.8944 27.8478L57.6123 27.9156L57.6089 27.9505L57.605 27.9861L57.6011 28.0211L57.5972 28.055L57.5933 28.0889L57.5889 28.1233L57.5844 28.1578L57.5794 28.1906L57.5744 28.2245L57.5688 28.2578L57.5638 28.2895L57.5582 28.3212L57.5527 28.354L57.5465 28.3863L57.5404 28.4174L57.5337 28.4492L57.527 28.4809L57.5203 28.5109L57.5136 28.5405L57.5064 28.5711L57.4986 28.6017L57.4908 28.6307L57.4835 28.6596L57.4752 28.6892L57.4668 28.7187L57.4579 28.7477L57.4495 28.7755L57.4406 28.8029L57.4312 28.8313L57.4211 28.8597L57.4116 28.8865L57.4022 28.9133L57.0633 29.1468L57.0599 29.1462ZM57.3988 28.9128C57.3308 29.0965 57.124 29.191 56.9368 29.1249C56.7495 29.0582 56.6531 28.8554 56.7205 28.6717L57.3988 28.9128ZM42.7239 28.4382H57.0599V29.1457H42.7239L42.3633 28.7919L42.7239 28.4382ZM42.7239 29.1457C42.525 29.1457 42.3633 28.9871 42.3633 28.7919C42.3633 28.5968 42.525 28.4382 42.7239 28.4382V29.1457ZM43.0846 25.0098V28.7914H42.3633V25.0098L42.7239 24.656L43.0846 25.0098ZM42.3633 25.0098C42.3633 24.8146 42.525 24.656 42.7239 24.656C42.9229 24.656 43.0846 24.8146 43.0846 25.0098H42.3633ZM54.0808 25.3635H42.7239V24.656H54.0808L54.2937 25.2952L54.0808 25.3635ZM54.0808 24.656C54.2798 24.656 54.4414 24.8146 54.4414 25.0098C54.4414 25.2049 54.2798 25.3635 54.0808 25.3635V24.656ZM51.3793 26.5121L53.8679 24.7244L54.2943 25.2952L51.8057 27.0829L51.241 26.7172L51.3793 26.5121ZM51.8057 27.0829C51.6451 27.1983 51.4194 27.1638 51.3018 27.0064C51.1842 26.8489 51.2193 26.6275 51.3798 26.5121L51.8062 27.0829H51.8057ZM51.2149 24.2777L51.9004 24.0574L51.9261 24.1367L51.95 24.2165L51.9723 24.2969L51.9929 24.3778L52.0119 24.4592L52.0297 24.5418L52.0459 24.6249L52.0604 24.7085L52.0732 24.7927L52.0843 24.8775L52.0938 24.9622L52.1022 25.048L52.1089 25.1344L52.1139 25.2214L52.1172 25.3088L52.1195 25.3968L52.12 25.4854L52.1189 25.5745L52.1167 25.6642L52.1122 25.7549L52.1066 25.8457L52.0994 25.9365L52.091 26.0283L52.0804 26.1212L52.0687 26.2142L52.0554 26.3077L52.0409 26.4017L52.0247 26.4957L52.0069 26.5914L51.9874 26.6871L51.9667 26.7828L51.9444 26.8795L51.2422 26.7188L51.2622 26.6313L51.2812 26.5439L51.2985 26.458L51.3141 26.3733L51.3286 26.2885L51.3419 26.2043L51.3536 26.1212L51.3642 26.0387L51.3731 25.9572L51.3809 25.8763L51.3871 25.7954L51.3921 25.7161L51.3954 25.6379L51.3977 25.5603L51.3988 25.4832L51.3982 25.4067L51.3966 25.3307L51.3932 25.2558L51.3893 25.1814L51.3837 25.1082L51.3765 25.0355L51.3681 24.9628L51.3587 24.8917L51.3481 24.8212L51.3358 24.7512L51.3224 24.6817L51.3079 24.6134L51.2918 24.5451L51.2745 24.4778L51.2561 24.4111L51.236 24.345L51.2149 24.2794V24.2777ZM49.9992 22.6337L50.4161 22.0564L50.4814 22.1029L50.546 22.1505L50.6096 22.1991L50.6709 22.2489L50.7311 22.2992L50.7913 22.3516L50.8498 22.4047L50.9066 22.4583L50.9629 22.5135L51.0175 22.5698L51.0705 22.6266L51.1223 22.6846L51.1736 22.7442L51.2232 22.8049L51.2717 22.8661L51.3185 22.9284L51.3642 22.9913L51.4088 23.0558L51.4523 23.1214L51.4941 23.1876L51.5353 23.2554L51.5749 23.3237L51.6128 23.392L51.6502 23.4626L51.6858 23.5342L51.7198 23.6064L51.7527 23.6791L51.785 23.7529L51.8151 23.8278L51.8441 23.9038L51.8725 23.9809L51.8993 24.0585L51.2137 24.2788L51.1909 24.2132L51.1675 24.1492L51.1424 24.0858L51.1168 24.0235L51.0906 23.9623L51.0627 23.901L51.0343 23.8414L51.0053 23.7829L50.9746 23.725L50.9429 23.6676L50.9105 23.6118L50.8771 23.5572L50.8425 23.503L50.8069 23.45L50.7706 23.3981L50.7333 23.3461L50.6948 23.2953L50.6553 23.2455L50.6151 23.1969L50.5739 23.1493L50.531 23.1017L50.4875 23.0553L50.4429 23.0093L50.3983 22.9651L50.3515 22.9208L50.3041 22.8776L50.2562 22.836L50.206 22.7945L50.1547 22.7535L50.1035 22.7136L50.0505 22.6742L49.9965 22.6359L49.9992 22.6337ZM47.8422 22.028V21.3205L47.9348 21.3211L48.0267 21.3233L48.1181 21.3266L48.209 21.3315L48.2982 21.3375L48.3879 21.3451L48.4765 21.3544L48.5635 21.3648L48.6499 21.3769L48.7362 21.3905L48.8215 21.4053L48.9062 21.4217L48.9899 21.4397L49.0723 21.4589L49.1543 21.4796L49.2357 21.5021L49.3159 21.5256L49.3962 21.5507L49.4748 21.5775L49.5522 21.6054L49.6291 21.6349L49.7055 21.6655L49.7813 21.6983L49.8554 21.7322L49.929 21.7672L50.002 21.8044L50.0739 21.8427L50.1442 21.8826L50.2138 21.9236L50.2829 21.9668L50.3509 22.0105L50.4178 22.0559L50.0009 22.6332L49.9463 22.5966L49.8917 22.5605L49.8359 22.526L49.7791 22.4922L49.7217 22.4599L49.6637 22.4287L49.6052 22.3992L49.5455 22.3708L49.4842 22.3429L49.4235 22.3161L49.3611 22.291L49.2975 22.2664L49.2334 22.2434L49.1688 22.2215L49.1036 22.2008L49.0367 22.1811L48.9692 22.1625L48.9007 22.145L48.831 22.1286L48.7613 22.1138L48.69 22.1002L48.6175 22.0876L48.5451 22.0761L48.4709 22.0657L48.3957 22.0564L48.3205 22.0482L48.2441 22.0417L48.1655 22.0362L48.0869 22.0318L48.0078 22.0285L47.927 22.0269L47.8456 22.0264L47.8422 22.028ZM45.6964 22.6206L45.2912 22.0351L45.3592 21.9914L45.4277 21.9482L45.4974 21.9072L45.5676 21.8673L45.639 21.8284L45.7109 21.7918L45.7833 21.7563L45.8575 21.7218L45.9316 21.689L46.0068 21.6573L46.0826 21.6272L46.1596 21.5983L46.2376 21.5709L46.3151 21.5452L46.3936 21.5206L46.4739 21.4971L46.5542 21.4758L46.635 21.4556L46.7169 21.437L46.7994 21.4195L46.883 21.4036L46.9672 21.3889L47.0513 21.3758L47.1366 21.3637L47.223 21.3533L47.3094 21.3446L47.3963 21.3369L47.485 21.3309L47.5736 21.3266L47.6622 21.3233L47.7519 21.3211L47.8428 21.3205V22.028L47.7636 22.0285L47.6851 22.0302L47.607 22.0335L47.5301 22.0373L47.4543 22.0428L47.3785 22.0493L47.3038 22.057L47.2308 22.0657L47.1583 22.0761L47.0859 22.0876L47.0151 22.0996L46.9449 22.1133L46.8752 22.1275L46.8061 22.1433L46.7381 22.1603L46.6707 22.1783L46.6049 22.1975L46.5391 22.2177L46.4733 22.239L46.4098 22.2614L46.3468 22.2849L46.2838 22.3095L46.2225 22.3352L46.1612 22.3626L46.101 22.3905L46.0408 22.42L45.9818 22.4506L45.9238 22.4818L45.8658 22.5146L45.809 22.5485L45.7527 22.5835L45.6969 22.6195L45.6964 22.6206ZM44.3587 24.3783L43.6837 24.1279L43.7172 24.0437L43.7512 23.9612L43.7868 23.8792L43.8236 23.7983L43.861 23.719L43.9 23.6408L43.9396 23.5637L43.9803 23.4883L44.0221 23.4134L44.0655 23.339L44.1096 23.2668L44.1542 23.1963L44.201 23.1258L44.2483 23.0569L44.2963 22.9897L44.3464 22.923L44.3972 22.8579L44.449 22.7945L44.5019 22.7316L44.556 22.6704L44.6112 22.6108L44.6675 22.5523L44.7249 22.4949L44.784 22.438L44.8436 22.3828L44.9044 22.3298L44.9657 22.2773L45.0287 22.2259L45.0928 22.1762L45.1574 22.128L45.2232 22.081L45.2906 22.0351L45.6958 22.6206L45.6412 22.6578L45.5877 22.6961L45.5347 22.7354L45.4824 22.7759L45.4316 22.8169L45.3809 22.8601L45.3313 22.9038L45.2828 22.9487L45.2354 22.994L45.1886 23.0411L45.1424 23.0892L45.0967 23.1389L45.0521 23.1892L45.0086 23.2406L44.9657 23.2936L44.9233 23.3478L44.8826 23.4024L44.8419 23.4593L44.8018 23.5167L44.7634 23.5752L44.7249 23.6359L44.6876 23.6971L44.6513 23.7594L44.6156 23.8234L44.5805 23.8885L44.546 23.9546L44.5125 24.0224L44.4802 24.0907L44.4484 24.1607L44.4178 24.2318L44.3877 24.3045L44.3587 24.3783ZM43.9959 27.3781L43.2769 27.3169L43.2763 27.3678L43.2702 27.2508L43.2652 27.1354L43.2613 27.0206L43.2585 26.9069L43.2573 26.7937V26.6822L43.2585 26.5717L43.2607 26.4618L43.264 26.3531L43.2685 26.2459L43.2741 26.1393L43.2813 26.0327L43.2897 25.9283L43.2992 25.8249L43.3097 25.7221L43.3214 25.6205L43.3348 25.5193L43.3493 25.4193L43.3649 25.3209L43.3816 25.223L43.4 25.1257L43.4195 25.03L43.4402 24.9354L43.4619 24.8414L43.4853 24.7484L43.5098 24.6571L43.5355 24.5658L43.5628 24.4762L43.5912 24.3876L43.6208 24.3001L43.6514 24.2132L43.6837 24.1274L44.3587 24.3778L44.3308 24.4521L44.3041 24.5276L44.2779 24.6047L44.2528 24.6823L44.2288 24.761L44.206 24.8408L44.1842 24.9223L44.1636 25.0043L44.1441 25.088L44.1257 25.1727L44.1079 25.2585L44.0917 25.3455L44.0767 25.4335L44.0622 25.5231L44.0488 25.6133L44.0371 25.7046L44.026 25.7976L44.0159 25.8916L44.0076 25.9868L43.9998 26.083L43.9931 26.1797L43.9881 26.2781L43.9842 26.3782L43.9808 26.4788L43.9791 26.5805L43.978 26.6838V26.7877L43.9791 26.8932L43.9814 26.9998L43.9853 27.1075L43.9897 27.2163L43.9953 27.3262L43.9947 27.377L43.9959 27.3781ZM44.3531 29.9931L43.6904 30.2724V30.2719L43.6559 30.1904L43.6224 30.1084L43.5907 30.0248L43.5606 29.9417L43.5316 29.8575L43.5037 29.7722L43.4775 29.6864L43.4524 29.5994L43.429 29.512L43.4073 29.4239L43.3867 29.3354L43.3677 29.2463L43.3499 29.1561L43.3337 29.0653L43.3187 28.974L43.3053 28.8811L43.2936 28.7881L43.283 28.6952L43.2735 28.6011L43.2657 28.5066L43.259 28.4114L43.254 28.3152L43.2501 28.2179L43.2479 28.1206L43.2468 28.0222L43.2473 27.9232L43.249 27.8237L43.2523 27.7237L43.2568 27.6236L43.2624 27.5219L43.2696 27.4197L43.278 27.3169L43.997 27.3781L43.9892 27.4722L43.983 27.5657L43.978 27.6581L43.9741 27.7499L43.9708 27.8407L43.9697 27.9309L43.9691 28.02L43.9702 28.108L43.9724 28.196L43.9758 28.2824L43.9808 28.3682L43.9864 28.4535L43.9936 28.5377L44.002 28.6214L44.0115 28.7045L44.0221 28.7865L44.0338 28.8674L44.0471 28.9483L44.0616 29.0281L44.0772 29.1069L44.094 29.185L44.1118 29.2621L44.1307 29.3387L44.1508 29.4147L44.172 29.4896L44.1948 29.5634L44.2188 29.6366L44.2439 29.7093L44.2701 29.782L44.2974 29.8531L44.3258 29.9236L44.3554 29.9936V29.9931H44.3531ZM45.8262 31.7065L45.4422 32.3051L45.3692 32.2592L45.2979 32.2127L45.2271 32.1646L45.1574 32.1149L45.0889 32.0646L45.0214 32.0126L44.9551 31.9596L44.8904 31.9055L44.8269 31.8503L44.7645 31.794L44.7032 31.7365L44.643 31.678L44.5833 31.6179L44.5259 31.5572L44.4691 31.4949L44.4139 31.4315L44.3593 31.367L44.3063 31.3014L44.2545 31.2352L44.2032 31.1669L44.1542 31.0985L44.1062 31.0291L44.0588 30.9586L44.0131 30.8864L43.9685 30.8131L43.9251 30.7393L43.8833 30.6644L43.8426 30.5879L43.803 30.5108L43.7646 30.4326L43.7272 30.3539L43.6915 30.2735L44.3542 29.9942L44.3855 30.0631L44.4172 30.1314L44.4501 30.1986L44.4836 30.2648L44.5181 30.3293L44.5543 30.3933L44.5906 30.4561L44.6279 30.5174L44.6664 30.5781L44.7059 30.6377L44.7466 30.6967L44.7884 30.7547L44.8308 30.811L44.8743 30.8667L44.9189 30.9219L44.964 30.9755L45.0103 31.028L45.0576 31.0799L45.1061 31.1308L45.1552 31.1805L45.2053 31.2292L45.2572 31.2773L45.3096 31.3243L45.3631 31.3702L45.4171 31.4156L45.4723 31.4594L45.5292 31.5031L45.5866 31.5457L45.6451 31.5867L45.7047 31.6272L45.7655 31.6671L45.8268 31.7059L45.8262 31.7065ZM48.263 32.3226V33.0301L48.1622 33.0295L48.0618 33.0273L47.9621 33.0241L47.8634 33.0191L47.7664 33.0131L47.6689 33.0055L47.5725 32.9962L47.4777 32.9858L47.3835 32.9743L47.2893 32.9612L47.1963 32.9464L47.1043 32.93L47.0129 32.9125L46.9226 32.8939L46.8328 32.8737L46.7442 32.8518L46.6567 32.8289L46.5692 32.8043L46.4828 32.778L46.3975 32.7507L46.3128 32.7217L46.2292 32.6911L46.1462 32.6589L46.0648 32.6255L45.984 32.5905L45.9037 32.5539L45.8246 32.5162L45.7465 32.4768L45.6691 32.4363L45.5927 32.3942L45.5175 32.3511L45.4428 32.3062L45.8268 31.7076L45.8887 31.7447L45.9517 31.7814L46.0157 31.8164L46.0804 31.8503L46.1462 31.8831L46.2125 31.9148L46.2794 31.9454L46.3474 31.9744L46.4171 32.0028L46.4867 32.0296L46.5575 32.0553L46.6294 32.0799L46.7024 32.1034L46.776 32.1258L46.8501 32.1466L46.9254 32.1668L47.0017 32.1854L47.0792 32.2029L47.1572 32.2193L47.2364 32.2346L47.3166 32.2488L47.398 32.2619L47.4799 32.2734L47.5636 32.2838L47.6483 32.2931L47.733 32.3013L47.8188 32.3079L47.9063 32.3133L47.9944 32.3177L48.083 32.321L48.1728 32.3226L48.2636 32.3232L48.263 32.3226ZM50.4875 31.8175L50.8409 32.4347L50.7723 32.4713L50.7026 32.5074L50.6318 32.5424L50.5611 32.5758L50.4892 32.608L50.4161 32.6392L50.3426 32.6687L50.2684 32.6971L50.1938 32.7245L50.118 32.7512L50.041 32.7764L49.9636 32.8005L49.8855 32.8229L49.8064 32.8442L49.7272 32.8644L49.647 32.8836L49.5651 32.9016L49.4831 32.918L49.4012 32.9333L49.3176 32.9475L49.2334 32.9606L49.1487 32.9727L49.0629 32.9836L48.977 32.9929L48.8901 33.0016L48.8026 33.0088L48.7145 33.0148L48.6253 33.0197L48.5356 33.0235L48.4453 33.0262L48.3545 33.0284L48.2625 33.029V32.3215L48.345 32.321L48.4269 32.3193L48.5077 32.3166L48.588 32.3128L48.6671 32.3084L48.7457 32.3024L48.8232 32.2958L48.9001 32.2882L48.9765 32.2794L49.0506 32.2701L49.1247 32.2592L49.1977 32.2477L49.2702 32.2351L49.3421 32.222L49.4129 32.2078L49.482 32.1925L49.5511 32.1761L49.6197 32.1586L49.6866 32.14L49.7534 32.1209L49.8187 32.1007L49.8828 32.0793L49.9468 32.0569L50.0104 32.0334L50.0728 32.0094L50.1341 31.9842L50.1949 31.9585L50.2551 31.9317L50.3142 31.9038L50.3721 31.8754L50.4295 31.8459L50.4869 31.8153L50.4875 31.8175ZM52.3781 30.2938L52.0687 30.9329L52.5364 30.7885L52.4979 30.8531L52.4583 30.917L52.4177 30.9804L52.3758 31.0428L52.334 31.104L52.2906 31.1647L52.2465 31.2243L52.202 31.2828L52.1557 31.3413L52.1083 31.3987L52.0604 31.455L52.0113 31.5108L51.9612 31.5649L51.9099 31.619L51.8575 31.672L51.8051 31.7234L51.7516 31.7748L51.697 31.8251L51.6418 31.8743L51.5855 31.923L51.5281 31.9705L51.4696 32.0176L51.4105 32.0629L51.3503 32.1078L51.2895 32.1515L51.2277 32.1947L51.1652 32.2368L51.1023 32.2778L51.0376 32.3183L50.9724 32.3576L50.9061 32.3964L50.8392 32.4342L50.4858 31.8169L50.5432 31.7852L50.599 31.7524L50.6541 31.7191L50.7082 31.6852L50.7623 31.6502L50.8152 31.6146L50.8665 31.5785L50.9178 31.5419L50.9679 31.5042L51.0175 31.4659L51.066 31.4271L51.114 31.3872L51.1608 31.3473L51.2071 31.3057L51.2528 31.2636L51.2973 31.221L51.3419 31.1773L51.3849 31.1335L51.4272 31.0887L51.469 31.0428L51.5097 30.9968L51.5498 30.9498L51.5894 30.9023L51.6273 30.8541L51.6652 30.8044L51.7025 30.7541L51.7388 30.7033L51.7744 30.6513L51.809 30.5994L51.843 30.5464L51.8764 30.4922L51.9088 30.4376L52.3764 30.2932L52.3781 30.2938ZM51.9104 30.4381C52.0091 30.2686 52.2298 30.2096 52.4026 30.3063C52.5754 30.4031 52.6356 30.6196 52.5369 30.7891L51.9104 30.4381ZM56.2752 32.8923L52.0693 30.9329L52.3786 30.2938L56.5845 32.2532L56.7651 32.7042L56.2757 32.8923H56.2752ZM56.5845 32.2532C56.764 32.3368 56.8409 32.5479 56.7556 32.7245C56.6703 32.9005 56.4552 32.9759 56.2752 32.8923L56.5845 32.2532ZM54.8963 35.2459L54.423 34.7123L54.4944 34.6511L54.5646 34.5888L54.6337 34.5259L54.7012 34.4625L54.7669 34.399L54.8322 34.334L54.8957 34.2689L54.9581 34.2033L55.0194 34.1366L55.0796 34.0694L55.1382 34.0021L55.1956 33.9338L55.2524 33.8649L55.3076 33.7955L55.3617 33.7255L55.414 33.6555L55.4653 33.5844L55.516 33.5123L55.5651 33.4396L55.613 33.3668L55.6598 33.293L55.7055 33.2187L55.7496 33.1438L55.7925 33.0683L55.8349 32.9918L55.8755 32.9153L55.9151 32.8376L55.9536 32.76L55.9909 32.6807L56.0271 32.6014L56.0617 32.5216L56.0951 32.4407L56.7651 32.7037L56.7272 32.7939L56.6882 32.8841L56.6475 32.9732L56.6057 33.0612L56.5628 33.1493L56.5182 33.2367L56.4719 33.3231L56.4251 33.4084L56.3766 33.4931L56.3265 33.5779L56.2752 33.661L56.2228 33.7441L56.1687 33.8266L56.1135 33.9076L56.0572 33.9879L55.9993 34.0683L55.9396 34.1481L55.8794 34.2263L55.8176 34.3039L55.7546 34.381L55.6899 34.457L55.6242 34.533L55.5573 34.6073L55.4893 34.6812L55.4196 34.755L55.3483 34.8277L55.2764 34.8993L55.2028 34.9704L55.1276 35.0409L55.0518 35.1103L54.9743 35.1792L54.8957 35.247L54.8963 35.2459ZM51.9222 36.9117L51.683 36.2442L51.7823 36.2092L51.8803 36.1737L51.9773 36.1371L52.0738 36.0999L52.1685 36.0622L52.2633 36.0228L52.3569 35.9829L52.4494 35.9424L52.5414 35.9009L52.6322 35.8588L52.7231 35.8156L52.8123 35.7718L52.9009 35.727L52.9884 35.6811L53.0753 35.6341L53.1617 35.5865L53.2465 35.5384L53.3306 35.4892L53.4142 35.4389L53.4967 35.3881L53.5781 35.3367L53.6583 35.2842L53.7386 35.2306L53.8178 35.1765L53.8958 35.1213L53.9738 35.0649L54.0502 35.0081L54.1265 34.9501L54.2018 34.8916L54.2753 34.8326L54.3489 34.7725L54.4219 34.7112L54.8951 35.2448L54.816 35.3115L54.7357 35.3777L54.6544 35.4433L54.5719 35.5072L54.4894 35.5701L54.4052 35.6324L54.3205 35.6931L54.2347 35.7533L54.1477 35.8128L54.0608 35.8708L53.9721 35.9282L53.8824 35.9845L53.7927 36.0397L53.7018 36.0939L53.6099 36.1474L53.5168 36.2005L53.4237 36.2519L53.3295 36.3027L53.2342 36.3525L53.1378 36.4011L53.0408 36.4487L52.9432 36.4957L52.8446 36.5416L52.7454 36.5865L52.6451 36.6302L52.5436 36.6728L52.4422 36.7149L52.3391 36.7559L52.2354 36.7958L52.1312 36.8347L52.0253 36.8729L51.9194 36.9096L51.9222 36.9117ZM48.1928 37.4995V36.792L48.3115 36.7915L48.4303 36.7898L48.5479 36.7871L48.6649 36.7833L48.7808 36.7783L48.8968 36.7723L49.0121 36.7652L49.1264 36.757L49.2401 36.7477L49.3527 36.7373L49.4653 36.7259L49.5768 36.7138L49.6882 36.7002L49.7991 36.686L49.9089 36.6706L50.0182 36.6542L50.1269 36.6367L50.235 36.6182L50.3426 36.5985L50.449 36.5777L50.5555 36.5553L50.6608 36.5323L50.7662 36.5083L50.8704 36.4831L50.9735 36.4569L51.0766 36.4295L51.1786 36.4011L51.2806 36.3716L51.3815 36.341L51.4824 36.3093L51.5827 36.277L51.6819 36.2437L51.921 36.9112L51.8135 36.9478L51.7059 36.9828L51.5978 37.0167L51.4891 37.0495L51.3793 37.0812L51.2689 37.1118L51.1586 37.1414L51.0471 37.1698L50.9351 37.1966L50.8225 37.2223L50.7093 37.2469L50.5956 37.2704L50.4808 37.2928L50.366 37.3141L50.2501 37.3344L50.1336 37.3535L50.0165 37.3715L49.8989 37.3879L49.7813 37.4032L49.6626 37.4175L49.5433 37.4306L49.4235 37.4426L49.3025 37.4535L49.1816 37.4628L49.0601 37.4716L48.938 37.4787L48.8154 37.4853L48.6917 37.4902L48.5679 37.494L48.4431 37.4973L48.3177 37.4989L48.1923 37.4995H48.1928ZM64.1998 36.142L64.5721 35.5362L64.7053 35.6133L64.8396 35.6882L64.9751 35.7609L65.1111 35.8309L65.2488 35.8981L65.3875 35.9632L65.5274 36.0255L65.6684 36.0857L65.8106 36.1431L65.9533 36.1983L66.0982 36.2508L66.2437 36.3011L66.3902 36.3492L66.5374 36.3946L66.6862 36.4377L66.8361 36.4782L66.9872 36.5159L67.1393 36.552L67.2926 36.5848L67.4476 36.6154L67.6031 36.6439L67.7608 36.6696L67.9191 36.6931L68.0785 36.7138L68.239 36.7324L68.4007 36.7483L68.5634 36.7619L68.7278 36.7729L68.8934 36.7816L69.0606 36.7876L69.2289 36.7915L69.3978 36.7926V37.5L69.2178 37.4989L69.0388 37.4951L68.861 37.4885L68.6844 37.4792L68.5088 37.4672L68.3338 37.453L68.1604 37.4355L67.9882 37.4158L67.8171 37.3934L67.6471 37.3677L67.4782 37.3398L67.3105 37.3092L67.1444 37.2764L66.9783 37.2403L66.8138 37.2021L66.6505 37.161L66.4889 37.1173L66.3278 37.0708L66.1684 37.0216L66.0096 36.9697L65.8524 36.9156L65.6963 36.8587L65.5414 36.7991L65.3875 36.7368L65.2348 36.6717L65.0838 36.6039L64.9338 36.534L64.7845 36.4607L64.6362 36.3847L64.4902 36.3065L64.3447 36.2256L64.2009 36.142H64.1998ZM60.5842 32.4713L61.2134 32.1247L61.2915 32.2587L61.3712 32.391L61.4525 32.5211L61.5361 32.6496L61.6209 32.7764L61.7078 32.9016L61.7964 33.0252L61.8862 33.1465L61.9781 33.2663L62.0718 33.3843L62.1671 33.5002L62.2641 33.6151L62.3627 33.7277L62.4636 33.8387L62.5656 33.948L62.6698 34.0552L62.7757 34.1612L62.8827 34.2646L62.992 34.3668L63.1029 34.4668L63.2155 34.5652L63.3303 34.6626L63.4468 34.7577L63.565 34.8512L63.6848 34.943L63.8063 35.0332L63.9295 35.1218L64.0543 35.2082L64.1814 35.2929L64.3102 35.376L64.4406 35.4575L64.5727 35.5373L64.2004 36.1431L64.0582 36.0572L63.9183 35.9703L63.7801 35.8812L63.6435 35.7899L63.5092 35.6969L63.3766 35.6018L63.2456 35.505L63.1163 35.4061L62.9892 35.3055L62.8638 35.2033L62.7406 35.0988L62.6191 34.9922L62.4993 34.884L62.3811 34.7735L62.2652 34.6615L62.1515 34.5478L62.0389 34.4318L61.9285 34.3143L61.8204 34.1946L61.7139 34.0732L61.6092 33.9502L61.5066 33.825L61.4057 33.6982L61.3065 33.5691L61.2095 33.4385L61.1148 33.3062L61.0217 33.1722L60.9303 33.0361L60.8411 32.8978L60.7536 32.7578L60.6678 32.6162L60.5842 32.473V32.4713ZM59.2587 27.3475H59.98L59.9811 27.5115L59.9844 27.675L59.9906 27.8368L59.9989 27.9976L60.0095 28.1583L60.0229 28.3174L60.0385 28.4748L60.0569 28.6323L60.0775 28.7887L60.1004 28.9439L60.1255 29.0986L60.1533 29.2517L60.1834 29.4043L60.2157 29.5557L60.2509 29.706L60.2882 29.8553L60.3283 30.004L60.3701 30.1516L60.4147 30.2981L60.4615 30.4441L60.5106 30.589L60.5624 30.7328L60.6165 30.876L60.6728 31.0182L60.7319 31.1592L60.7932 31.2997L60.8567 31.4391L60.9225 31.578L60.991 31.7158L61.0618 31.853L61.1354 31.9891L61.2112 32.1242L60.5819 32.4708L60.5006 32.3254L60.422 32.1788L60.3456 32.0318L60.2715 31.8836L60.2001 31.7344L60.1316 31.5846L60.0653 31.4331L60.0017 31.2806L59.941 31.1275L59.8824 30.9733L59.8267 30.8181L59.7738 30.6623L59.7236 30.5053L59.6757 30.3473L59.6305 30.1883L59.5876 30.0286L59.5475 29.8679L59.5101 29.706L59.4756 29.5431L59.4432 29.3797L59.4131 29.2151L59.3858 29.05L59.3613 28.8838L59.3396 28.7165L59.3201 28.5487L59.3033 28.3792L59.2894 28.2091L59.2777 28.038L59.2688 27.8664L59.2627 27.6936L59.2587 27.5203L59.2576 27.3459L59.2587 27.3475ZM60.6031 22.2035L61.229 22.5556L61.1521 22.6895L61.078 22.8246L61.0061 22.9607L60.9364 23.0979L60.8695 23.2357L60.8049 23.3745L60.7425 23.5145L60.6828 23.655L60.6254 23.7966L60.5708 23.9399L60.5184 24.0836L60.4682 24.2285L60.4203 24.3739L60.3752 24.521L60.3328 24.6686L60.2927 24.8179L60.2548 24.9682L60.2191 25.1191L60.1862 25.2711L60.1556 25.4247L60.1277 25.5789L60.102 25.7347L60.0786 25.8911L60.058 26.0485L60.0396 26.2071L60.0235 26.3667L60.0101 26.5275L59.9989 26.6893L59.9906 26.8522L59.9844 27.0162L59.9811 27.1813L59.98 27.3475H59.2587L59.2599 27.1709L59.2638 26.9954L59.2705 26.821L59.2794 26.6472L59.2911 26.4744L59.3056 26.3028L59.3223 26.1322L59.3418 25.9627L59.3641 25.7938L59.3892 25.6259L59.4165 25.4597L59.4466 25.2941L59.4795 25.1295L59.5151 24.966L59.553 24.8031L59.5937 24.6418L59.6372 24.4816L59.6829 24.322L59.7314 24.1635L59.7827 24.006L59.8367 23.8496L59.893 23.6944L59.9521 23.5402L60.0134 23.3871L60.0781 23.2351L60.145 23.0842L60.2146 22.9344L60.2871 22.7857L60.3618 22.6381L60.4393 22.4916L60.5195 22.3462L60.6026 22.2018L60.6031 22.2035ZM64.2349 18.5525L64.6072 19.1583L64.4746 19.2381L64.3436 19.3196L64.2154 19.4027L64.0883 19.4874L63.9629 19.5738L63.8397 19.6618L63.7177 19.7515L63.5978 19.8428L63.4797 19.9357L63.3626 20.0308L63.2478 20.1276L63.1347 20.226L63.0232 20.3261L62.9134 20.4283L62.8047 20.5316L62.6988 20.6366L62.594 20.7438L62.4915 20.852L62.39 20.9624L62.2903 21.0745L62.1927 21.1882L62.0969 21.3041L62.0021 21.4217L61.9096 21.5403L61.8187 21.6611L61.729 21.7836L61.6415 21.9083L61.5557 22.034L61.4715 22.1619L61.389 22.2915L61.3082 22.4227L61.229 22.5556L60.6031 22.2035L60.6878 22.0613L60.7742 21.9208L60.8628 21.782L60.9531 21.6447L61.0451 21.5097L61.1393 21.3769L61.2352 21.2451L61.3333 21.115L61.433 20.987L61.5345 20.8613L61.6376 20.7372L61.7429 20.6142L61.8499 20.4934L61.9586 20.3747L62.0695 20.2577L62.1821 20.1424L62.2969 20.0287L62.4134 19.9171L62.5316 19.8078L62.6514 19.6995L62.7735 19.5935L62.8972 19.4896L63.0226 19.3874L63.1503 19.2868L63.2796 19.1884L63.4106 19.0916L63.5438 18.997L63.6781 18.9041L63.8147 18.8128L63.9534 18.7236L64.0933 18.6367L64.2349 18.5514V18.5525ZM69.3632 17.1945V17.9019L69.1982 17.903L69.0344 17.9069L68.8716 17.9129L68.71 17.9216L68.5495 17.9326L68.3901 17.9462L68.2318 17.9621L68.074 17.9807L67.918 18.0014L67.763 18.0249L67.6086 18.0506L67.4559 18.0791L67.3038 18.1097L67.1527 18.1425L67.0028 18.178L66.854 18.2158L66.7063 18.2562L66.5591 18.2994L66.4131 18.3448L66.2682 18.3923L66.1244 18.4426L65.9817 18.4951L65.8396 18.5503L65.6985 18.6077L65.5587 18.6679L65.4199 18.7302L65.2816 18.7953L65.1445 18.8631L65.0085 18.9325L64.8736 19.0047L64.7393 19.0796L64.6061 19.1572L64.2338 18.5514L64.3776 18.4678L64.5225 18.3869L64.6685 18.3087L64.8157 18.2327L64.9639 18.16L65.1133 18.0895L65.2638 18.0217L65.4154 17.9566L65.5681 17.8943L65.722 17.8347L65.8764 17.7778L66.0324 17.7232L66.189 17.6718L66.3468 17.6226L66.5056 17.5761L66.6656 17.5324L66.8267 17.4914L66.9883 17.4525L67.1516 17.417L67.3155 17.3837L67.4804 17.353L67.6465 17.3252L67.8137 17.3L67.9815 17.2776L68.1504 17.2579L68.3204 17.2404L68.4915 17.2262L68.6637 17.2142L68.8371 17.2049L69.011 17.1983L69.186 17.1945L69.3621 17.1934L69.3632 17.1945ZM73.2531 18.0036L72.9393 18.6405L72.8423 18.5952L72.7442 18.5514L72.645 18.5088L72.5452 18.4678L72.4443 18.4284L72.3423 18.3902L72.2398 18.3535L72.1361 18.3185L72.0319 18.2846L71.9265 18.2524L71.8201 18.2212L71.7131 18.1917L71.6044 18.1638L71.4946 18.137L71.3848 18.1113L71.2739 18.0878L71.1618 18.0654L71.0487 18.0446L70.935 18.0249L70.8202 18.0069L70.7043 17.99L70.5872 17.9747L70.469 17.961L70.3503 17.9484L70.2305 17.9375L70.1095 17.9276L69.988 17.92L69.8649 17.9134L69.7411 17.9085L69.6163 17.9047L69.4903 17.9025L69.3638 17.9014V17.1939L69.4987 17.195L69.633 17.1972L69.7668 17.201L69.8994 17.2065L70.0309 17.2136L70.1619 17.2224L70.2924 17.2328L70.4217 17.2442L70.5499 17.2574L70.6775 17.2721L70.8046 17.2885L70.93 17.3066L71.0548 17.3262L71.1791 17.3476L71.3017 17.37L71.4238 17.3946L71.5448 17.4203L71.6651 17.4482L71.7844 17.4777L71.9031 17.5083L72.0213 17.5411L72.1378 17.575L72.2537 17.6105L72.3685 17.6477L72.4822 17.6865L72.5959 17.727L72.7074 17.7691L72.8189 17.8128L72.9292 17.8582L73.0379 17.9052L73.1466 17.9533L73.2542 18.0036H73.2531ZM75.9585 20.7202L75.3861 20.2894L75.3711 20.6995L75.3148 20.6169L75.2574 20.5355L75.1983 20.4556L75.1381 20.3769L75.0768 20.2993L75.0144 20.2227L74.9503 20.1473L74.885 20.0729L74.8187 20.0002L74.7513 19.9286L74.6822 19.8581L74.6119 19.7886L74.5406 19.7203L74.4681 19.6531L74.3946 19.5875L74.3188 19.5224L74.2424 19.4584L74.1649 19.3961L74.0858 19.3349L74.0055 19.2747L73.9236 19.2157L73.8405 19.1572L73.7564 19.1003L73.6705 19.0446L73.5836 18.9899L73.4955 18.9369L73.4058 18.8849L73.3144 18.8335L73.2224 18.7832L73.1288 18.7346L73.034 18.6865L72.9382 18.64L73.252 18.0031L73.3584 18.0545L73.4632 18.107L73.5669 18.1611L73.6689 18.2168L73.7692 18.2732L73.869 18.3311L73.9676 18.3907L74.064 18.4514L74.1594 18.5137L74.2541 18.5771L74.3466 18.6416L74.438 18.7078L74.5283 18.7756L74.617 18.8445L74.7045 18.9145L74.7903 18.9861L74.875 19.0588L74.9586 19.1331L75.04 19.2086L75.1203 19.2851L75.1994 19.3633L75.2769 19.4426L75.3527 19.5235L75.4279 19.6055L75.5009 19.6891L75.5728 19.7739L75.6431 19.8597L75.7122 19.9472L75.7796 20.0358L75.8454 20.126L75.91 20.2173L75.973 20.3097L75.958 20.7197L75.9585 20.7202ZM75.9736 20.3102C76.0834 20.4731 76.0371 20.6929 75.871 20.8001C75.7049 20.9078 75.4809 20.8624 75.3716 20.6995L75.9736 20.3102ZM74.5796 21.3211L75.3861 20.2894L75.9585 20.7202L75.152 21.7519L74.5049 21.5365L74.5796 21.3211ZM75.152 21.7519C75.0311 21.9066 74.8042 21.9361 74.6465 21.8175C74.4888 21.6989 74.4587 21.4764 74.5796 21.3216L75.152 21.7524V21.7519ZM75.2267 10.7066V21.5365H74.5055V10.7066L74.8661 10.3529L75.2267 10.7066ZM74.5055 10.7066C74.5055 10.5114 74.6671 10.3529 74.8661 10.3529C75.0651 10.3529 75.2267 10.5114 75.2267 10.7066H74.5055ZM80.1237 11.0604H74.8661V10.3529H80.1237L80.4843 10.7066L80.1237 11.0604ZM80.1237 10.3529C80.3227 10.3529 80.4843 10.5114 80.4843 10.7066C80.4843 10.9018 80.3227 11.0604 80.1237 11.0604V10.3529ZM79.7631 36.733V10.7066H80.4843V36.733L80.1237 37.0867L79.7631 36.733ZM80.4843 36.733C80.4843 36.9281 80.3227 37.0867 80.1237 37.0867C79.9247 37.0867 79.7631 36.9281 79.7631 36.733H80.4843ZM75.2167 36.3792H80.1237V37.0867H75.2167L74.8561 36.733L75.2167 36.3792ZM75.2167 37.0867C75.0177 37.0867 74.8561 36.9281 74.8561 36.733C74.8561 36.5378 75.0177 36.3792 75.2167 36.3792V37.0867ZM75.5773 33.2947V36.733H74.8561V33.2947L75.5455 33.1493L75.5779 33.2947H75.5773ZM74.8561 33.2947C74.8561 33.0995 75.0177 32.941 75.2167 32.941C75.4157 32.941 75.5773 33.0995 75.5773 33.2947H74.8561ZM75.3789 34.5062L74.8878 33.4401L75.545 33.1487L76.036 34.2148L76.0026 34.5636L75.3783 34.5062H75.3789ZM76.036 34.2148C76.1179 34.393 76.0371 34.6024 75.856 34.6828C75.6743 34.7632 75.4608 34.6839 75.3789 34.5062L76.036 34.2148ZM73.1851 36.7652L72.9019 36.1146L73.0012 36.072L73.0987 36.0283L73.1951 35.9834L73.2904 35.9375L73.3841 35.8905L73.4766 35.8418L73.568 35.7921L73.6577 35.7412L73.7458 35.6893L73.8327 35.6363L73.9186 35.5821L74.0027 35.5264L74.0858 35.4695L74.1672 35.4116L74.2474 35.352L74.3266 35.2918L74.404 35.2306L74.4804 35.1677L74.5556 35.1038L74.6292 35.0382L74.7017 34.9715L74.7725 34.9037L74.8421 34.8342L74.9107 34.7643L74.9776 34.6926L75.0433 34.6199L75.108 34.5461L75.1715 34.4712L75.2334 34.3947L75.2942 34.317L75.3538 34.2383L75.4123 34.1579L76.0031 34.5642L75.9373 34.6544L75.8699 34.7435L75.8008 34.8315L75.7311 34.9173L75.6592 35.0021L75.5862 35.0857L75.5115 35.1677L75.4357 35.2486L75.3583 35.3279L75.2797 35.4055L75.1994 35.4826L75.1175 35.5575L75.0339 35.6313L74.9491 35.7035L74.8633 35.7746L74.7758 35.844L74.6866 35.9124L74.5969 35.9791L74.5049 36.0447L74.4118 36.1086L74.3176 36.1709L74.2218 36.2322L74.1248 36.2918L74.0256 36.3503L73.9253 36.4071L73.8238 36.4623L73.7207 36.5165L73.6165 36.569L73.5111 36.6198L73.4047 36.6696L73.296 36.7177L73.1862 36.7647L73.1851 36.7652ZM69.3978 37.4989V36.7915L69.5159 36.7909L69.6335 36.7887L69.7512 36.7855L69.8676 36.7811L69.9836 36.7751L70.0989 36.768L70.2138 36.7598L70.3275 36.7499L70.4412 36.7384L70.5543 36.7259L70.6663 36.7116L70.7778 36.6963L70.8893 36.6799L71.0002 36.6619L71.1106 36.6428L71.2198 36.6225L71.3291 36.6007L71.4377 36.5777L71.5459 36.5531L71.6534 36.5274L71.7605 36.5006L71.8669 36.4722L71.9728 36.4427L72.0782 36.4115L72.1829 36.3792L72.2872 36.3453L72.3908 36.3104L72.4939 36.2737L72.5965 36.236L72.6985 36.1972L72.7999 36.1573L72.9014 36.1157L73.1845 36.7663L73.0747 36.8112L72.9644 36.8549L72.8534 36.897L72.7425 36.938L72.6299 36.9774L72.5174 37.0151L72.4042 37.0517L72.2905 37.0867L72.1762 37.12L72.0614 37.1523L71.9461 37.1829L71.8301 37.2124L71.7142 37.2403L71.5971 37.2671L71.4795 37.2923L71.3614 37.3158L71.2427 37.3382L71.1234 37.359L71.0041 37.3781L70.8843 37.3961L70.7633 37.4125L70.6413 37.4273L70.5198 37.4404L70.3977 37.4524L70.2745 37.4634L70.1513 37.4727L70.0276 37.4803L69.9028 37.4869L69.7779 37.4918L69.6525 37.4951L69.526 37.4973L69.3995 37.4978L69.3978 37.4989ZM72.3641 31.5485L72.7409 32.1515L72.6667 32.1947L72.5915 32.2373L72.5162 32.2778L72.4404 32.3172L72.363 32.3554L72.2855 32.3921L72.2075 32.427L72.1283 32.4609L72.0486 32.4932L71.9684 32.5244L71.887 32.5539L71.805 32.5823L71.7214 32.6097L71.6384 32.6348L71.5548 32.6589L71.4695 32.6818L71.3842 32.7031L71.2984 32.7228L71.2115 32.7414L71.1239 32.7589L71.0359 32.7748L70.9473 32.789L70.8581 32.8021L70.7683 32.8136L70.6775 32.824L70.5866 32.8327L70.4952 32.8404L70.4022 32.8464L70.3091 32.8508L70.216 32.854L70.1218 32.8562L70.0271 32.8568V32.1493L70.1112 32.1488L70.1948 32.1471L70.2779 32.1439L70.3598 32.14L70.4401 32.1346L70.5209 32.128L70.6011 32.1203L70.6792 32.1116L70.7572 32.1012L70.8347 32.0897L70.911 32.0772L70.9874 32.0635L71.0626 32.0487L71.1373 32.0329L71.2115 32.0154L71.2845 31.9973L71.3564 31.9782L71.4283 31.9574L71.4996 31.9356L71.5693 31.9131L71.6389 31.8891L71.7081 31.8634L71.7761 31.8371L71.8435 31.8093L71.9109 31.7808L71.9773 31.7508L72.043 31.7201L72.1077 31.6884L72.1723 31.6551L72.2364 31.6206L72.2994 31.5851L72.3619 31.5485H72.3641ZM73.9314 29.8657L74.5729 30.1899L74.5317 30.2675L74.4893 30.3441L74.4458 30.4195L74.4013 30.4933L74.3561 30.5666L74.3093 30.6393L74.2614 30.7109L74.2129 30.7809L74.1633 30.8503L74.1125 30.9181L74.0607 30.9859L74.0078 31.0526L73.9542 31.1177L73.8996 31.1816L73.8433 31.2451L73.7865 31.3068L73.7291 31.3675L73.67 31.4277L73.6103 31.4862L73.5496 31.5441L73.4877 31.601L73.4247 31.6567L73.3606 31.7109L73.296 31.7639L73.2297 31.8164L73.1628 31.8678L73.0953 31.9181L73.0262 31.9673L72.9566 32.0154L72.8863 32.0618L72.8144 32.1078L72.7414 32.1521L72.3646 31.549L72.4271 31.5113L72.4884 31.4719L72.5491 31.432L72.6088 31.391L72.6673 31.3495L72.7253 31.3068L72.7821 31.2636L72.8378 31.2194L72.8936 31.1734L72.9476 31.1275L73.0006 31.0805L73.0535 31.0324L73.1054 30.9832L73.1567 30.9329L73.2068 30.882L73.2559 30.8301L73.3049 30.7771L73.3523 30.7235L73.3991 30.6683L73.4454 30.6125L73.4905 30.5562L73.5345 30.4988L73.578 30.4397L73.6209 30.3801L73.6633 30.3189L73.704 30.2577L73.7441 30.1954L73.7837 30.1314L73.8222 30.0663L73.8601 30.0007L73.8974 29.934L73.9336 29.8662L73.9314 29.8657ZM74.5049 27.3464H75.2262L75.2256 27.4454L75.2234 27.5427L75.2206 27.6406L75.2161 27.7373L75.2105 27.833L75.2039 27.9287L75.1955 28.0238L75.186 28.1189L75.1749 28.2124L75.1632 28.3048L75.1498 28.3978L75.1353 28.4896L75.1197 28.5809L75.1024 28.6717L75.084 28.7613L75.0645 28.8504L75.0439 28.9396L75.0216 29.0276L74.9976 29.115L74.9726 29.202L74.9464 29.2878L74.919 29.3736L74.8901 29.4584L74.86 29.542L74.8288 29.6257L74.7964 29.7082L74.7624 29.7908L74.7273 29.8717L74.6905 29.9526L74.6526 30.0324L74.6136 30.1117L74.5729 30.1904L73.9314 29.8662L73.9665 29.7984L74.0005 29.7296L74.0334 29.6601L74.0652 29.5901L74.0958 29.5196L74.1248 29.4485L74.1532 29.3764L74.1805 29.3037L74.2067 29.2299L74.2318 29.1561L74.2558 29.0812L74.2786 29.0057L74.3004 28.9297L74.321 28.8532L74.3405 28.7755L74.3595 28.6974L74.3767 28.6186L74.3929 28.5388L74.4085 28.4584L74.4224 28.3775L74.4353 28.2961L74.447 28.2141L74.4575 28.1304L74.467 28.0462L74.4754 27.962L74.4826 27.8767L74.4888 27.7909L74.4938 27.704L74.4977 27.6165L74.5005 27.5285L74.5021 27.4394L74.5027 27.3497L74.5049 27.3464ZM73.9314 24.8266L74.5729 24.503L74.6136 24.5817L74.6526 24.661L74.6905 24.7408L74.7273 24.8217L74.7624 24.9026L74.7964 24.9852L74.8288 25.0677L74.86 25.1514L74.8901 25.235L74.919 25.3198L74.9464 25.4056L74.9726 25.4914L74.9976 25.5784L75.021 25.6658L75.0433 25.7538L75.064 25.843L75.0835 25.9321L75.1019 26.0217L75.1191 26.1125L75.1347 26.2038L75.1492 26.2956L75.1626 26.3886L75.1743 26.481L75.1855 26.5745L75.1949 26.6696L75.2033 26.7647L75.2105 26.8604L75.2161 26.9561L75.2206 27.0528L75.2234 27.1507L75.2256 27.248L75.2262 27.347H74.5049L74.5044 27.2573L74.5027 27.1682L74.4999 27.0802L74.496 26.9927L74.491 26.9052L74.4849 26.8194L74.4776 26.7341L74.4692 26.6499L74.4598 26.5657L74.4492 26.4821L74.4375 26.4001L74.4247 26.3181L74.4107 26.2371L74.3951 26.1568L74.379 26.077L74.3617 25.9982L74.3427 25.9201L74.3232 25.8424L74.3026 25.7659L74.2809 25.6899L74.258 25.6144L74.234 25.5395L74.209 25.4657L74.1828 25.3919L74.1555 25.3192L74.127 25.247L74.098 25.176L74.0674 25.1054L74.0356 25.0355L74.0027 24.966L73.9687 24.8971L73.9336 24.8294L73.9314 24.8266ZM72.3641 23.1444L72.7409 22.5414L72.8139 22.5856L72.8858 22.6316L72.956 22.678L73.0257 22.7261L73.0948 22.7754L73.1622 22.8256L73.2291 22.877L73.2954 22.9295L73.3601 22.9826L73.4242 23.0367L73.4872 23.0924L73.549 23.1493L73.6098 23.2073L73.6694 23.2658L73.7285 23.3259L73.7859 23.3866L73.8428 23.4484L73.8991 23.5118L73.9537 23.5757L74.0072 23.6408L74.0601 23.7075L74.112 23.7753L74.1627 23.8431L74.2123 23.9125L74.2608 23.9825L74.3087 24.0541L74.3556 24.1268L74.4007 24.2001L74.4453 24.2739L74.4888 24.3493L74.5311 24.4259L74.5724 24.5035L73.9308 24.8272L73.8946 24.7594L73.8573 24.6927L73.8194 24.6271L73.7809 24.562L73.7413 24.498L73.7012 24.4357L73.6605 24.3745L73.6182 24.3133L73.5752 24.2537L73.5318 24.1946L73.4877 24.1372L73.4426 24.0809L73.3963 24.0251L73.3495 23.9699L73.3021 23.9163L73.2531 23.8633L73.204 23.8114L73.1539 23.7605L73.1026 23.7102L73.0508 23.661L72.9978 23.6129L72.9449 23.5659L72.8908 23.52L72.8351 23.4741L72.7793 23.4298L72.7225 23.3866L72.6645 23.3439L72.606 23.3024L72.5463 23.2614L72.4856 23.2215L72.4243 23.1821L72.3619 23.1444H72.3641ZM70.0287 22.543V21.8355L70.1235 21.8361L70.2177 21.8383L70.3107 21.8416L70.4038 21.8459L70.4969 21.8519L70.5883 21.8596L70.6792 21.8684L70.77 21.8787L70.8598 21.8902L70.9489 21.9033L71.0376 21.9176L71.1256 21.9334L71.2131 21.9509L71.3001 21.9695L71.3859 21.9892L71.4712 22.0105L71.5565 22.0335L71.6401 22.0575L71.7231 22.0827L71.8067 22.11L71.8887 22.1384L71.97 22.1679L72.0503 22.1991L72.13 22.2314L72.2091 22.2653L72.2872 22.3003L72.3646 22.3369L72.4421 22.3752L72.5179 22.4145L72.5932 22.455L72.6684 22.4976L72.7425 22.5408L72.3658 23.1438L72.3033 23.1072L72.2403 23.0717L72.1762 23.0372L72.1116 23.0039L72.0469 22.9722L71.9812 22.9416L71.9148 22.9115L71.8474 22.8831L71.78 22.8552L71.712 22.8289L71.6429 22.8032L71.5732 22.7792L71.5035 22.7568L71.4322 22.7349L71.3603 22.7141L71.2884 22.695L71.2154 22.6769L71.1412 22.6594L71.0665 22.6436L70.9913 22.6288L70.9149 22.6152L70.8386 22.6026L70.7611 22.5911L70.6831 22.5807L70.605 22.572L70.5248 22.5643L70.444 22.5578L70.3637 22.5523L70.2818 22.5485L70.1987 22.5452L70.1151 22.5435L70.0309 22.543H70.0287ZM67.6382 23.163L67.267 22.5561L67.3439 22.5118L67.4214 22.4686L67.4994 22.4271L67.5785 22.3866L67.6577 22.3478L67.7379 22.3106L67.8193 22.2746L67.9007 22.2401L67.9821 22.2073L68.0651 22.1756L68.1487 22.1455L68.2323 22.1166L68.3171 22.0892L68.4018 22.0635L68.4876 22.0389L68.574 22.0154L68.6604 21.9935L68.7479 21.9733L68.836 21.9547L68.9246 21.9372L69.0143 21.9208L69.1041 21.9061L69.1938 21.893L69.2846 21.8809L69.3755 21.8705L69.4675 21.8612L69.5605 21.8536L69.6531 21.8476L69.7461 21.8427L69.8403 21.8394L69.9345 21.8372L70.0293 21.8366V22.5441L69.9451 22.5446L69.8615 22.5463L69.779 22.5496L69.6965 22.5539L69.614 22.5594L69.5338 22.566L69.4535 22.5742L69.3738 22.5835L69.2952 22.5938L69.2166 22.6059L69.1386 22.6184L69.0617 22.6327L68.9853 22.648L68.909 22.6644L68.8337 22.6819L68.759 22.7004L68.6849 22.7201L68.6113 22.7415L68.5378 22.7639L68.4653 22.7874L68.3934 22.812L68.3221 22.8377L68.2518 22.865L68.1811 22.8934L68.1114 22.923L68.0423 22.9536L67.9737 22.9858L67.9052 23.0192L67.8377 23.0536L67.7708 23.0892L67.7039 23.1263L67.6376 23.1646L67.6382 23.163ZM66.0001 24.849L65.3647 24.5144L65.4076 24.4379L65.4516 24.363L65.4962 24.2881L65.5425 24.2143L65.5893 24.1416L65.6378 24.07L65.6868 23.9994L65.737 23.93L65.7883 23.8611L65.8407 23.7933L65.8942 23.7266L65.9488 23.6605L66.0045 23.5954L66.0614 23.5315L66.1194 23.4686L66.1784 23.4068L66.2386 23.3461L66.2999 23.286L66.3624 23.2269L66.4254 23.1695L66.4895 23.1132L66.5547 23.0575L66.621 23.0028L66.6884 22.9492L66.757 22.8967L66.8267 22.8448L66.898 22.7939L66.9693 22.7447L67.0412 22.6961L67.1154 22.6485L67.1901 22.602L67.2653 22.5567L67.6365 23.1635L67.5707 23.2029L67.5061 23.2433L67.4425 23.2843L67.3796 23.3264L67.3171 23.3696L67.2569 23.4128L67.1973 23.4571L67.1382 23.5025L67.0803 23.5484L67.0229 23.5954L66.9666 23.6435L66.9114 23.6922L66.8573 23.7414L66.8044 23.7917L66.752 23.8431L66.7001 23.895L66.6494 23.9481L66.5998 24.0016L66.5513 24.0563L66.5034 24.1115L66.4566 24.1678L66.4103 24.2252L66.3652 24.2832L66.3206 24.3428L66.2771 24.4029L66.2342 24.4636L66.1929 24.5254L66.1522 24.5883L66.1127 24.6517L66.0737 24.7162L66.0358 24.7823L65.9984 24.849H66.0001ZM65.4126 27.3464H64.6914L64.692 27.2475L64.6942 27.1496L64.6975 27.0518L64.702 26.955L64.7081 26.8588L64.7154 26.7636L64.7237 26.6691L64.7338 26.5745L64.7449 26.481L64.7572 26.388L64.7705 26.2956L64.7856 26.2043L64.8018 26.113L64.8196 26.0228L64.8385 25.9337L64.8586 25.8446L64.8803 25.7555L64.9032 25.6686L64.9272 25.5816L64.9528 25.4953L64.9795 25.41L65.008 25.3247L65.0375 25.241L65.0687 25.1568L65.1011 25.0743L65.1345 24.9923L65.1696 24.9103L65.2058 24.8299L65.2432 24.7501L65.2822 24.6708L65.3223 24.5926L65.3641 24.515L65.9995 24.8496L65.9639 24.9163L65.9287 24.9841L65.8947 25.0524L65.8624 25.1213L65.8312 25.1913L65.8011 25.2613L65.7721 25.3323L65.7437 25.4045L65.7169 25.4761L65.6907 25.5499L65.6662 25.6237L65.6428 25.6986L65.62 25.7741L65.5988 25.8495L65.5787 25.9266L65.5598 26.0037L65.5419 26.0813L65.5252 26.1612L65.5096 26.241L65.4951 26.3213L65.4817 26.4023L65.4695 26.4843L65.4583 26.5674L65.4483 26.651L65.4399 26.7352L65.4327 26.8205L65.426 26.9063L65.421 26.9933L65.4171 27.0807L65.4137 27.1687L65.4121 27.2579L65.4115 27.3475L65.4126 27.3464ZM66.0012 29.8624L65.3636 30.1932L65.3218 30.1144L65.2816 30.0357L65.2421 29.9554L65.2047 29.8744L65.1685 29.7935L65.1334 29.711L65.0999 29.6284L65.0676 29.5448L65.037 29.4606L65.0074 29.3758L64.979 29.29L64.9522 29.2042L64.926 29.1172L64.9021 29.0292L64.8792 28.9412L64.8575 28.8521L64.8374 28.7624L64.8185 28.6728L64.8006 28.582L64.7845 28.4907L64.7694 28.3989L64.7555 28.3065L64.7432 28.2135L64.7321 28.1195L64.722 28.0249L64.7137 27.9298L64.7064 27.8341L64.7003 27.7379L64.6959 27.6411L64.6925 27.5432L64.6903 27.4454L64.6897 27.3464H65.4109L65.4115 27.4361L65.4132 27.5252L65.4165 27.6132L65.4204 27.7007L65.4254 27.7876L65.4321 27.8735L65.4394 27.9587L65.4477 28.0429L65.4578 28.1271L65.4689 28.2102L65.4812 28.2928L65.4946 28.3743L65.509 28.4552L65.5247 28.5355L65.5414 28.6154L65.5592 28.6941L65.5782 28.7717L65.5982 28.8493L65.6194 28.9259L65.6417 29.0019L65.6651 29.0773L65.6896 29.1522L65.7158 29.2266L65.7426 29.2998L65.771 29.3726L65.8 29.4447L65.8301 29.5158L65.8619 29.5869L65.8942 29.6568L65.9276 29.7257L65.9627 29.7952L65.9984 29.863L66.0012 29.8624ZM67.6348 31.5446L67.2709 32.1559L67.1945 32.1116L67.1198 32.0662L67.0457 32.0197L66.9727 31.9716L66.9008 31.923L66.83 31.8727L66.7603 31.8213L66.6912 31.7688L66.6238 31.7158L66.5569 31.6616L66.4911 31.6059L66.4265 31.549L66.3629 31.4916L66.3005 31.4331L66.2392 31.373L66.179 31.3118L66.1199 31.25L66.0614 31.1866L66.0045 31.122L65.9488 31.057L65.8936 30.9903L65.8401 30.923L65.7877 30.8547L65.7359 30.7853L65.6857 30.7147L65.6367 30.6431L65.5882 30.5704L65.5414 30.4966L65.4951 30.4217L65.4505 30.3457L65.407 30.2692L65.3641 30.1915L66.0018 29.8608L66.0391 29.928L66.0776 29.9947L66.116 30.0603L66.1556 30.1248L66.1963 30.1883L66.2375 30.2506L66.2804 30.3118L66.3239 30.3725L66.3679 30.4321L66.4131 30.4906L66.4594 30.5485L66.5062 30.6048L66.5541 30.6606L66.6026 30.7153L66.6522 30.7689L66.7024 30.8219L66.7536 30.8738L66.806 30.9247L66.859 30.975L66.9131 31.0242L66.9682 31.0723L67.024 31.1193L67.0808 31.1658L67.1388 31.2117L67.1973 31.2565L67.2569 31.2997L67.3177 31.3424L67.3796 31.3845L67.4414 31.4255L67.505 31.4654L67.5696 31.5047L67.6348 31.5425V31.5446ZM70.0287 32.1499V32.8573L69.934 32.8568L69.8398 32.8546L69.7461 32.8513L69.6531 32.8469L69.56 32.8409L69.468 32.8333L69.3766 32.8245L69.2852 32.8141L69.1943 32.8021L69.1046 32.7895L69.0149 32.7753L68.9257 32.7595L68.8371 32.7425L68.749 32.7239L68.6621 32.7042L68.5757 32.6835L68.4893 32.6605L68.404 32.6364L68.3193 32.6113L68.2346 32.5845L68.151 32.5561L68.0679 32.5266L67.9854 32.4959L67.9035 32.4637L67.8221 32.4298L67.7419 32.3948L67.6616 32.3587L67.5819 32.321L67.5033 32.2816L67.4253 32.2412L67.3478 32.1991L67.2709 32.1559L67.6348 31.5446L67.7006 31.5818L67.7675 31.6179L67.8344 31.6529L67.9024 31.6868L67.9704 31.7191L68.0389 31.7502L68.1086 31.7803L68.1783 31.8093L68.2491 31.8371L68.3198 31.8639L68.3917 31.8896L68.4636 31.9137L68.5355 31.9366L68.6091 31.9585L68.6832 31.9793L68.7574 31.999L68.8321 32.0176L68.9079 32.0351L68.9842 32.0509L69.0606 32.0657L69.1381 32.0793L69.2161 32.0914L69.2952 32.1028L69.3744 32.1132L69.4535 32.122L69.5343 32.1296L69.6157 32.1362L69.6971 32.1417L69.7796 32.1455L69.8632 32.1488L69.9468 32.1504L70.0309 32.151L70.0287 32.1499ZM84.3396 10.7061V36.7324H83.6184V10.7061L83.979 10.3524L84.3396 10.7061ZM83.6184 10.7061C83.6184 10.5109 83.78 10.3524 83.979 10.3524C84.178 10.3524 84.3396 10.5109 84.3396 10.7061H83.6184ZM89.2372 11.0598H83.9796V10.3524H89.2372L89.5978 10.7061L89.2372 11.0598ZM89.2372 10.3524C89.4362 10.3524 89.5978 10.5109 89.5978 10.7061C89.5978 10.9013 89.4362 11.0598 89.2372 11.0598V10.3524ZM88.8766 36.7324V10.7061H89.5978V36.7324L89.2372 37.0861L88.8766 36.7324ZM89.5978 36.7324C89.5978 36.9276 89.4362 37.0861 89.2372 37.0861C89.0382 37.0861 88.8766 36.9276 88.8766 36.7324H89.5978ZM83.979 36.3787H89.2366V37.0861H83.979L83.6184 36.7324L83.979 36.3787ZM83.979 37.0861C83.78 37.0861 83.6184 36.9276 83.6184 36.7324C83.6184 36.5372 83.78 36.3787 83.979 36.3787V37.0861ZM97.2454 36.1819L97.596 35.5635L97.737 35.639L97.8792 35.7123L98.0218 35.7828L98.1656 35.8511L98.3106 35.9167L98.456 35.9801L98.6026 36.0408L98.7503 36.0993L98.8986 36.1556L99.0479 36.2092L99.1984 36.2606L99.35 36.3098L99.5022 36.3568L99.6555 36.4011L99.8099 36.4432L99.9654 36.4831L100.122 36.5203L100.279 36.5553L100.437 36.5875L100.597 36.6176L100.757 36.6455L100.919 36.6706L101.081 36.6931L101.245 36.7133L101.41 36.7313L101.575 36.7472L101.742 36.7603L101.909 36.7712L102.078 36.7794L102.248 36.7855L102.419 36.7887L102.591 36.7898V37.4973L102.408 37.4962L102.227 37.4924L102.047 37.4858L101.867 37.477L101.689 37.4656L101.512 37.4514L101.335 37.435L101.16 37.4153L100.985 37.3934L100.812 37.3688L100.639 37.342L100.468 37.3125L100.298 37.2802L100.128 37.2458L99.9587 37.2086L99.7909 37.1687L99.6248 37.1266L99.4587 37.0818L99.2938 37.0342L99.1304 36.9839L98.9677 36.9314L98.8061 36.8762L98.6455 36.8183L98.4856 36.7581L98.3273 36.6952L98.1695 36.6296L98.0129 36.5613L97.858 36.4908L97.703 36.4175L97.5498 36.3415L97.3976 36.2633L97.2465 36.1824L97.2454 36.1819ZM93.3974 32.5676L94.0127 32.198L94.0974 32.3308L94.1838 32.462L94.2719 32.5911L94.3616 32.7184L94.4536 32.8442L94.5467 32.9683L94.642 33.0902L94.739 33.2105L94.8376 33.3291L94.9379 33.4456L95.0399 33.5604L95.1436 33.6736L95.2495 33.7851L95.3565 33.8944L95.4658 34.0021L95.5767 34.1082L95.6893 34.2121L95.8041 34.3143L95.92 34.4149L96.0382 34.5139L96.158 34.6112L96.2801 34.7068L96.4032 34.8003L96.5287 34.8922L96.6557 34.9824L96.7845 35.0704L96.9149 35.1568L97.0476 35.2415L97.1819 35.3246L97.3179 35.4055L97.4561 35.4848L97.596 35.5625L97.2454 36.1808L97.0961 36.0977L96.9484 36.0129L96.8023 35.926L96.6585 35.8369L96.5164 35.7462L96.3759 35.6532L96.2377 35.5586L96.1012 35.4619L95.9663 35.3635L95.8336 35.2629L95.7032 35.1606L95.5745 35.0562L95.4474 34.9501L95.322 34.8419L95.1988 34.7315L95.0773 34.6194L94.9586 34.5057L94.841 34.3898L94.725 34.2717L94.6113 34.1519L94.4998 34.0306L94.39 33.907L94.2825 33.7813L94.1766 33.6539L94.0729 33.5249L93.9709 33.3936L93.8706 33.2608L93.7725 33.1263L93.6761 32.9896L93.5819 32.8508L93.4893 32.7102L93.399 32.5681L93.3974 32.5676ZM91.9605 27.3464H92.6817L92.6828 27.5165L92.6867 27.6854L92.6929 27.8532L92.7023 28.0194L92.714 28.1851L92.7285 28.3491L92.7453 28.512L92.7648 28.6739L92.7871 28.834L92.8116 28.9937L92.8389 29.1511L92.869 29.308L92.9013 29.4639L92.9364 29.618L92.9743 29.7717L93.0145 29.9236L93.0574 30.0745L93.1025 30.2243L93.1505 30.3725L93.2012 30.5196L93.2541 30.6661L93.3099 30.811L93.3684 30.9547L93.4291 31.0974L93.4927 31.239L93.5585 31.3795L93.6276 31.519L93.6989 31.6573L93.773 31.794L93.85 31.9301L93.9291 32.0651L94.011 32.1991L93.3957 32.5686L93.3071 32.4243L93.2213 32.2783L93.1382 32.1313L93.0579 31.9831L92.9805 31.8339L92.9058 31.683L92.8339 31.531L92.7653 31.3779L92.699 31.2232L92.6355 31.0674L92.5753 30.9105L92.5179 30.753L92.4632 30.5934L92.4114 30.4326L92.3624 30.2708L92.3161 30.1079L92.2726 29.9439L92.2319 29.7788L92.194 29.612L92.1595 29.4447L92.1271 29.2758L92.0976 29.1058L92.0714 28.9352L92.0474 28.763L92.0268 28.5897L92.0084 28.4153L91.9934 28.2398L91.9806 28.0637L91.9711 27.8855L91.9644 27.7067L91.9599 27.5268L91.9588 27.3459L91.9605 27.3464ZM93.3985 22.1062L94.0121 22.4779L93.9308 22.6102L93.8516 22.7442L93.7747 22.8792L93.7011 23.0154L93.6298 23.1531L93.5607 23.2914L93.4949 23.4314L93.4314 23.5725L93.3701 23.7152L93.3115 23.8584L93.2558 24.0033L93.2029 24.1498L93.1521 24.2974L93.1042 24.4456L93.0585 24.5959L93.0156 24.7473L92.9755 24.8999L92.9375 25.0535L92.9024 25.2082L92.8701 25.3646L92.84 25.5226L92.8127 25.6811L92.7882 25.8419L92.7659 26.0037L92.7464 26.1666L92.7297 26.3312L92.7152 26.4968L92.7035 26.6641L92.694 26.832L92.6879 27.002L92.684 27.1731L92.6828 27.3453H91.9616L91.9627 27.1622L91.9672 26.9807L91.9739 26.8003L91.9833 26.6204L91.9962 26.4422L92.0112 26.265L92.0296 26.0895L92.0502 25.9146L92.0742 25.7418L92.1004 25.5696L92.1299 25.3985L92.1623 25.229L92.1968 25.0606L92.2347 24.8933L92.2754 24.7277L92.3189 24.5631L92.3651 24.3996L92.4142 24.2373L92.466 24.0765L92.5212 23.9169L92.5786 23.7589L92.6388 23.6014L92.7023 23.4456L92.7681 23.2914L92.8372 23.1384L92.9091 22.9869L92.9838 22.8366L93.0613 22.6879L93.1415 22.5403L93.2246 22.3937L93.3104 22.2489L93.399 22.1051L93.3985 22.1062ZM97.2454 18.5104L97.596 19.1288L97.4561 19.2064L97.3179 19.2857L97.1819 19.3666L97.0476 19.4497L96.9149 19.5344L96.7845 19.6208L96.6557 19.7088L96.5287 19.799L96.4032 19.8903L96.2801 19.9833L96.158 20.0784L96.0382 20.1752L95.92 20.2736L95.8035 20.3736L95.6887 20.4759L95.5761 20.5797L95.4652 20.6853L95.356 20.7924L95.2489 20.9012L95.1431 21.0122L95.0394 21.1248L94.9374 21.2391L94.8371 21.355L94.7384 21.4725L94.6414 21.5923L94.5461 21.7136L94.453 21.8366L94.3611 21.9613L94.2713 22.0881L94.1833 22.2161L94.0969 22.3462L94.0121 22.4779L93.3985 22.1062L93.4888 21.9651L93.5813 21.8257L93.6755 21.6879L93.7719 21.5523L93.87 21.4184L93.9703 21.2866L94.0723 21.1565L94.176 21.028L94.2819 20.9012L94.39 20.7766L94.4998 20.6541L94.6113 20.5333L94.725 20.4141L94.8404 20.2965L94.958 20.1812L95.0767 20.068L95.1982 19.9565L95.3214 19.8466L95.4468 19.7389L95.5739 19.6328L95.7026 19.529L95.8331 19.4267L95.9657 19.3267L96.1 19.2283L96.2366 19.132L96.3748 19.0375L96.5153 18.9445L96.6574 18.8538L96.8012 18.7652L96.9472 18.6783L97.0949 18.5935L97.2443 18.5104H97.2454ZM102.591 17.1934V17.9008L102.419 17.9019L102.248 17.9052L102.078 17.9112L101.909 17.9194L101.742 17.9304L101.575 17.9435L101.41 17.9593L101.245 17.9774L101.081 17.9976L100.919 18.02L100.757 18.0452L100.597 18.0731L100.437 18.1031L100.279 18.1354L100.122 18.1704L99.9654 18.2075L99.8099 18.2475L99.6555 18.2896L99.5016 18.3338L99.3495 18.3803L99.1979 18.4295L99.0474 18.4809L98.898 18.5345L98.7498 18.5908L98.6021 18.6493L98.4549 18.7105L98.3094 18.7739L98.1645 18.8401L98.0207 18.9084L97.878 18.979L97.7359 19.0522L97.5949 19.1277L97.2443 18.5093L97.3954 18.4284L97.5475 18.3502L97.7008 18.2742L97.8552 18.201L98.0107 18.1305L98.1673 18.0621L98.325 17.9965L98.4839 17.9336L98.6439 17.8735L98.8044 17.8156L98.966 17.7603L99.1288 17.7073L99.2926 17.657L99.4576 17.6094L99.6237 17.5646L99.7904 17.5225L99.9581 17.4826L100.127 17.4454L100.297 17.411L100.467 17.3787L100.639 17.3492L100.811 17.3224L100.985 17.2978L101.159 17.2759L101.335 17.2563L101.511 17.2399L101.688 17.2257L101.867 17.2142L102.046 17.2054L102.227 17.1989L102.408 17.195L102.59 17.1939L102.591 17.1934ZM107.92 18.511L107.567 19.1282L107.427 19.0528L107.286 18.9801L107.144 18.9095L107.002 18.8412L106.858 18.7756L106.713 18.7122L106.567 18.6509L106.421 18.5924L106.273 18.5361L106.124 18.4825L105.974 18.4312L105.824 18.382L105.672 18.3355L105.519 18.2912L105.365 18.2491L105.21 18.2097L105.054 18.1726L104.897 18.1376L104.74 18.1053L104.58 18.0752L104.42 18.0474L104.26 18.0222L104.098 17.9998L103.934 17.9796L103.77 17.9615L103.605 17.9457L103.439 17.9326L103.271 17.9216L103.103 17.9134L102.933 17.9074L102.762 17.9041L102.591 17.903V17.1956L102.773 17.1967L102.953 17.2005L103.134 17.2071L103.313 17.2158L103.492 17.2273L103.669 17.2415L103.846 17.2579L104.021 17.2776L104.195 17.2995L104.369 17.3241L104.541 17.3508L104.712 17.3804L104.882 17.4126L105.052 17.4476L105.22 17.4848L105.387 17.5247L105.554 17.5673L105.718 17.6122L105.882 17.6597L106.046 17.71L106.208 17.7631L106.368 17.8183L106.528 17.8762L106.687 17.9364L106.845 17.9998L107.002 18.0654L107.158 18.1332L107.313 18.2043L107.466 18.2775L107.619 18.3535L107.77 18.4323L107.92 18.5132L107.92 18.511ZM111.748 22.1062L111.134 22.4779L111.05 22.3462L110.963 22.2161L110.876 22.0881L110.786 21.9613L110.695 21.8366L110.602 21.7136L110.507 21.5923L110.41 21.4725L110.312 21.355L110.212 21.2391L110.11 21.1248L110.006 21.0122L109.901 20.9018L109.795 20.793L109.686 20.6858L109.575 20.5803L109.463 20.4764L109.35 20.3742L109.234 20.2741L109.116 20.1757L108.997 20.079L108.876 19.9838L108.753 19.8909L108.629 19.799L108.502 19.7094L108.374 19.6214L108.244 19.535L108.112 19.4502L107.979 19.3671L107.844 19.2862L107.706 19.2064L107.567 19.1288L107.92 18.5115L108.068 18.5946L108.214 18.6794L108.359 18.7663L108.502 18.8549L108.643 18.9456L108.782 19.0386L108.92 19.1326L109.055 19.2294L109.189 19.3278L109.321 19.4278L109.451 19.5301L109.579 19.6339L109.706 19.7394L109.831 19.8477L109.953 19.9576L110.074 20.0691L110.192 20.1823L110.31 20.2976L110.425 20.4152L110.538 20.5344L110.649 20.6552L110.758 20.7777L110.866 20.9023L110.972 21.0291L111.075 21.1576L111.177 21.2877L111.277 21.4195L111.375 21.5534L111.471 21.689L111.565 21.8268L111.657 21.9662L111.748 22.1073L111.748 22.1062ZM113.186 27.3464H112.465L112.464 27.1742L112.46 27.0031L112.454 26.8331L112.444 26.6652L112.433 26.4979L112.418 26.3323L112.401 26.1677L112.382 26.0048L112.36 25.843L112.334 25.6822L112.307 25.5231L112.278 25.3657L112.245 25.2093L112.21 25.0541L112.172 24.9004L112.132 24.7479L112.089 24.5965L112.044 24.4467L111.996 24.2985L111.945 24.1509L111.892 24.0044L111.837 23.8595L111.778 23.7162L111.717 23.5741L111.654 23.4325L111.588 23.2925L111.519 23.1542L111.448 23.0164L111.374 22.8803L111.297 22.7453L111.218 22.6113L111.137 22.479L111.75 22.1073L111.839 22.251L111.925 22.3959L112.008 22.5424L112.088 22.6901L112.166 22.8388L112.24 22.9891L112.312 23.1406L112.381 23.2931L112.448 23.4478L112.511 23.6036L112.571 23.7605L112.628 23.9185L112.683 24.0776L112.735 24.2384L112.784 24.4007L112.83 24.5642L112.874 24.7288L112.915 24.8944L112.953 25.0612L112.988 25.2296L113.02 25.3996L113.049 25.5702L113.076 25.7424L113.1 25.9157L113.12 26.0906L113.139 26.2661L113.154 26.4433L113.167 26.6215L113.176 26.8014L113.183 26.9818L113.187 27.1633L113.188 27.3464H113.186ZM111.749 32.5676L111.133 32.198L111.215 32.064L111.294 31.929L111.371 31.7929L111.445 31.6562L111.517 31.5179L111.586 31.3784L111.652 31.2379L111.716 31.0963L111.777 30.9542L111.835 30.8104L111.891 30.665L111.944 30.5185L111.994 30.3714L112.042 30.2232L112.088 30.0734L112.13 29.9225L112.171 29.7711L112.208 29.6175L112.244 29.4628L112.276 29.3075L112.306 29.1506L112.333 28.9926L112.358 28.8329L112.381 28.6728L112.4 28.5109L112.417 28.348L112.431 28.184L112.443 28.0183L112.453 27.8521L112.459 27.6843L112.463 27.5154L112.464 27.3453H113.185L113.184 27.5263L113.179 27.7062L113.173 27.8849L113.163 28.0632L113.15 28.2392L113.135 28.4147L113.117 28.5891L113.096 28.7624L113.072 28.9346L113.046 29.1052L113.016 29.2747L112.984 29.4436L112.949 29.6109L112.911 29.7771L112.87 29.9422L112.827 30.1062L112.78 30.2692L112.731 30.431L112.679 30.5917L112.624 30.7508L112.567 30.9083L112.507 31.0652L112.444 31.221L112.377 31.3757L112.308 31.5288L112.237 31.6808L112.162 31.8317L112.085 31.9809L112.004 32.1291L111.921 32.2762L111.836 32.4221L111.747 32.5665L111.749 32.5676ZM107.92 36.1813L107.567 35.5641L107.706 35.4865L107.843 35.4072L107.978 35.3263L108.111 35.2432L108.243 35.1584L108.373 35.0721L108.501 34.984L108.627 34.8938L108.752 34.802L108.874 34.7085L108.995 34.6128L109.115 34.5155L109.232 34.4165L109.347 34.3165L109.461 34.2143L109.573 34.1104L109.684 34.0043L109.792 33.8966L109.899 33.7873L110.004 33.6757L110.108 33.5626L110.21 33.4478L110.31 33.3313L110.408 33.2127L110.505 33.0924L110.599 32.9705L110.692 32.8464L110.784 32.7206L110.874 32.5933L110.961 32.4642L111.047 32.333L111.132 32.2002L111.748 32.5697L111.657 32.7119L111.565 32.8524L111.471 32.9913L111.374 33.1279L111.277 33.2624L111.177 33.3953L111.075 33.5265L110.971 33.6555L110.865 33.7829L110.758 33.9081L110.648 34.0317L110.537 34.153L110.424 34.2728L110.31 34.3908L110.192 34.5068L110.074 34.6205L109.953 34.7325L109.831 34.843L109.706 34.9512L109.579 35.0573L109.452 35.1617L109.321 35.264L109.189 35.3645L109.055 35.463L108.92 35.5597L108.782 35.6549L108.643 35.7472L108.502 35.838L108.359 35.9271L108.214 36.014L108.068 36.0988L107.92 36.1819V36.1813ZM102.591 37.4984V36.7909L102.762 36.7898L102.933 36.7865L103.103 36.7805L103.271 36.7723L103.439 36.7614L103.605 36.7483L103.77 36.7324L103.934 36.7144L104.098 36.6942L104.26 36.6717L104.42 36.6466L104.58 36.6187L104.74 36.5886L104.897 36.5564L105.054 36.5214L105.21 36.4842L105.365 36.4443L105.519 36.4028L105.672 36.3585L105.823 36.3115L105.974 36.2623L106.123 36.2109L106.272 36.1573L106.42 36.101L106.567 36.0425L106.712 35.9818L106.857 35.9178L107.001 35.8522L107.144 35.7844L107.285 35.7139L107.426 35.6412L107.566 35.5652L107.919 36.1824L107.768 36.2633L107.617 36.3421L107.465 36.4181L107.311 36.4919L107.157 36.5624L107.001 36.6307L106.844 36.6963L106.687 36.7592L106.528 36.8194L106.368 36.8773L106.207 36.9325L106.045 36.985L105.881 37.0353L105.717 37.0829L105.552 37.1277L105.386 37.1698L105.219 37.2097L105.051 37.2469L104.881 37.2819L104.711 37.3141L104.54 37.3437L104.367 37.3704L104.194 37.395L104.02 37.4169L103.845 37.4366L103.668 37.453L103.491 37.4672L103.312 37.4787L103.133 37.4874L102.952 37.494L102.772 37.4978L102.589 37.4989L102.591 37.4984ZM104.906 31.549L105.287 32.1499L105.214 32.1936L105.14 32.2362L105.065 32.2772L104.99 32.3166L104.914 32.3549L104.837 32.3915L104.759 32.427L104.681 32.4609L104.602 32.4937L104.521 32.5249L104.441 32.5544L104.36 32.5829L104.277 32.6097L104.195 32.6353L104.112 32.6594L104.027 32.6824L103.942 32.7037L103.856 32.7234L103.77 32.742L103.683 32.7589L103.595 32.7748L103.507 32.789L103.418 32.8021L103.329 32.8136L103.238 32.824L103.147 32.8327L103.056 32.8404L102.963 32.8464L102.87 32.8508L102.777 32.854L102.683 32.8562L102.588 32.8568V32.1493L102.672 32.1488L102.755 32.1471L102.838 32.1439L102.92 32.14L103 32.1346L103.08 32.128L103.161 32.1203L103.239 32.1116L103.316 32.1012L103.394 32.0897L103.47 32.0777L103.545 32.064L103.62 32.0493L103.694 32.0334L103.768 32.0159L103.84 31.9979L103.912 31.9782L103.983 31.9574L104.054 31.9361L104.123 31.9137L104.192 31.8896L104.26 31.8645L104.328 31.8382L104.395 31.8109L104.461 31.7825L104.526 31.7529L104.591 31.7223L104.654 31.6906L104.718 31.6573L104.78 31.6228L104.842 31.5873L104.904 31.5507L104.906 31.549ZM106.459 29.8651L107.1 30.1888L107.059 30.2664L107.017 30.343L106.974 30.4179L106.929 30.4928L106.884 30.566L106.838 30.6382L106.79 30.7098L106.742 30.7798L106.693 30.8492L106.642 30.9176L106.591 30.9848L106.538 31.051L106.485 31.116L106.431 31.1805L106.376 31.244L106.32 31.3057L106.262 31.3664L106.204 31.4266L106.144 31.4851L106.085 31.5425L106.023 31.5993L105.961 31.6551L105.898 31.7092L105.834 31.7622L105.769 31.8153L105.703 31.8667L105.636 31.917L105.568 31.9662L105.499 32.0143L105.429 32.0607L105.358 32.1067L105.287 32.151L104.906 31.5501L104.967 31.5124L105.027 31.4736L105.087 31.4337L105.146 31.3927L105.203 31.3511L105.26 31.3085L105.316 31.2653L105.371 31.221L105.426 31.1751L105.48 31.1286L105.532 31.0816L105.584 31.0335L105.635 30.9837L105.686 30.9334L105.735 30.8826L105.784 30.8306L105.832 30.7776L105.879 30.724L105.925 30.6694L105.971 30.6136L106.016 30.5567L106.06 30.4988L106.103 30.4403L106.145 30.3807L106.188 30.3195L106.228 30.2582L106.269 30.1954L106.308 30.1314L106.347 30.0669L106.385 30.0007L106.422 29.934L106.458 29.8662L106.459 29.8651ZM107.033 27.3453H107.754L107.753 27.4443L107.751 27.5422L107.748 27.6395L107.743 27.7357L107.738 27.8319L107.731 27.9281L107.723 28.0233L107.713 28.1173L107.703 28.2113L107.69 28.3043L107.677 28.3967L107.663 28.4885L107.647 28.5798L107.63 28.6706L107.611 28.7602L107.592 28.8493L107.571 28.9385L107.548 29.0265L107.525 29.1134L107.5 29.2003L107.474 29.2862L107.446 29.372L107.417 29.4567L107.387 29.5404L107.356 29.624L107.323 29.7071L107.289 29.7892L107.254 29.8701L107.217 29.951L107.18 30.0308L107.14 30.1106L107.1 30.1893L106.458 29.8657L106.493 29.7974L106.527 29.7285L106.56 29.659L106.591 29.5891L106.622 29.5185L106.652 29.4469L106.68 29.3753L106.707 29.3026L106.733 29.2288L106.759 29.155L106.783 29.0801L106.805 29.0046L106.827 28.9286L106.848 28.8515L106.868 28.7739L106.886 28.6963L106.903 28.6175L106.92 28.5377L106.935 28.4574L106.949 28.3764L106.962 28.295L106.974 28.2124L106.984 28.1293L106.994 28.0451L107.002 27.9604L107.009 27.8751L107.015 27.7893L107.021 27.7023L107.024 27.6143L107.028 27.5258L107.029 27.4366L107.03 27.347L107.033 27.3453ZM106.46 24.8447L107.1 24.5172L107.14 24.5948L107.18 24.6735L107.217 24.7523L107.254 24.8321L107.289 24.913L107.323 24.9939L107.356 25.0765L107.387 25.159L107.417 25.2421L107.446 25.3263L107.474 25.4111L107.5 25.4963L107.525 25.5827L107.548 25.6691L107.571 25.7566L107.592 25.8452L107.612 25.9343L107.63 26.0234L107.648 26.1136L107.663 26.2043L107.678 26.2956L107.691 26.388L107.703 26.481L107.714 26.5745L107.723 26.6685L107.732 26.7631L107.738 26.8588L107.744 26.955L107.748 27.0512L107.752 27.1485L107.754 27.2464L107.755 27.3453H107.033L107.033 27.2557L107.031 27.1666L107.028 27.0785L107.024 26.9905L107.019 26.9036L107.013 26.8183L107.005 26.733L106.997 26.6483L106.988 26.5646L106.977 26.4815L106.965 26.3995L106.952 26.3186L106.939 26.2377L106.923 26.1579L106.907 26.0781L106.89 25.9999L106.871 25.9222L106.852 25.8457L106.831 25.7692L106.809 25.6937L106.786 25.6188L106.762 25.545L106.737 25.4717L106.711 25.399L106.684 25.3269L106.655 25.2563L106.626 25.1858L106.596 25.1164L106.564 25.0469L106.531 24.9781L106.498 24.9108L106.463 24.8436L106.46 24.8447ZM104.903 23.157L105.292 22.561L105.363 22.6064L105.434 22.6534L105.503 22.701L105.571 22.7491L105.639 22.7989L105.706 22.8497L105.771 22.9016L105.836 22.9541L105.9 23.0077L105.963 23.0624L106.024 23.1181L106.085 23.1745L106.145 23.2319L106.205 23.2909L106.263 23.351L106.32 23.4117L106.376 23.4735L106.431 23.5364L106.485 23.6003L106.538 23.6649L106.59 23.7305L106.641 23.7972L106.692 23.865L106.741 23.9338L106.789 24.0027L106.837 24.0738L106.883 24.1454L106.929 24.2176L106.973 24.2914L107.016 24.3652L107.058 24.4406L107.1 24.5172L106.46 24.8447L106.424 24.778L106.386 24.7124L106.348 24.6468L106.31 24.5833L106.27 24.5199L106.23 24.4576L106.189 24.3969L106.147 24.3362L106.105 24.2766L106.062 24.2187L106.017 24.1607L105.972 24.1039L105.926 24.0481L105.88 23.9934L105.833 23.9399L105.784 23.8868L105.735 23.8343L105.686 23.7829L105.635 23.7326L105.584 23.6829L105.531 23.6342L105.478 23.5867L105.424 23.5397L105.37 23.4937L105.314 23.4484L105.258 23.4041L105.202 23.3609L105.143 23.3188L105.084 23.2767L105.024 23.2357L104.964 23.1958L104.903 23.1564L104.903 23.157ZM102.591 22.5419V21.8345L102.686 21.835L102.78 21.8372L102.874 21.8405L102.967 21.8454L103.059 21.8514L103.151 21.8591L103.242 21.8684L103.332 21.8787L103.422 21.8908L103.511 21.9039L103.599 21.9186L103.687 21.935L103.774 21.9525L103.86 21.9717L103.946 21.9919L104.031 22.0138L104.116 22.0373L104.2 22.0624L104.282 22.0887L104.365 22.1166L104.446 22.1461L104.527 22.1767L104.607 22.209L104.686 22.2423L104.764 22.2767L104.842 22.3134L104.919 22.3511L104.995 22.3899L105.07 22.4304L105.145 22.4725L105.219 22.5162L105.292 22.561L104.903 23.157L104.842 23.1192L104.78 23.0826L104.717 23.0476L104.654 23.0137L104.59 22.9809L104.526 22.9492L104.461 22.9191L104.395 22.8896L104.328 22.8612L104.261 22.8344L104.193 22.8087L104.124 22.7841L104.055 22.7606L103.984 22.7382L103.913 22.7169L103.842 22.6972L103.769 22.6786L103.696 22.6611L103.622 22.6447L103.548 22.6294L103.472 22.6152L103.396 22.6026L103.318 22.5911L103.241 22.5807L103.163 22.5714L103.083 22.5632L103.004 22.5567L102.922 22.5512L102.84 22.5468L102.758 22.5435L102.675 22.5419L102.591 22.5414V22.5419ZM100.26 23.1581L99.8756 22.5594L99.9498 22.5146L100.024 22.4714L100.1 22.4293L100.177 22.3888L100.254 22.35L100.331 22.3123L100.41 22.2757L100.489 22.2412L100.568 22.2079L100.65 22.1756L100.731 22.145L100.813 22.116L100.896 22.0881L100.979 22.0624L101.063 22.0378L101.149 22.0143L101.234 21.9925L101.32 21.9722L101.406 21.9531L101.494 21.9356L101.582 21.9192L101.671 21.905L101.76 21.8919L101.85 21.8798L101.941 21.8694L102.032 21.8601L102.123 21.8525L102.215 21.8465L102.309 21.8416L102.403 21.8383L102.497 21.8361L102.592 21.8355V22.543L102.508 22.5435L102.424 22.5452L102.342 22.5485L102.26 22.5528L102.179 22.5583L102.099 22.5649L102.019 22.5731L101.941 22.5824L101.863 22.5927L101.785 22.6042L101.709 22.6168L101.634 22.6305L101.558 22.6458L101.484 22.6622L101.411 22.6797L101.338 22.6983L101.266 22.7179L101.194 22.7393L101.122 22.7617L101.053 22.7846L100.983 22.8092L100.914 22.8349L100.847 22.8617L100.779 22.8902L100.711 22.9197L100.645 22.9503L100.58 22.982L100.515 23.0154L100.45 23.0493L100.387 23.0842L100.323 23.1209L100.261 23.1586L100.26 23.1581ZM98.6873 24.8447L98.048 24.5172L98.0893 24.4406L98.1322 24.3646L98.1757 24.2903L98.2203 24.217L98.2654 24.1449L98.3122 24.0727L98.3602 24.0022L98.4086 23.9327L98.4583 23.8639L98.509 23.7961L98.5602 23.7294L98.6132 23.6638L98.6667 23.5992L98.7219 23.5347L98.7776 23.4719L98.8339 23.4106L98.8913 23.3499L98.9498 23.2898L99.0106 23.2302L99.0714 23.1728L99.1327 23.1165L99.1957 23.0607L99.2592 23.0061L99.3238 22.9525L99.3891 22.9L99.4559 22.8481L99.5245 22.7967L99.5925 22.7475L99.6622 22.6988L99.7329 22.6512L99.8043 22.6048L99.8768 22.5594L100.261 23.1581L100.198 23.1974L100.137 23.2373L100.076 23.2783L100.017 23.3204L99.957 23.3631L99.8996 23.4063L99.8427 23.4505L99.7865 23.4959L99.7313 23.5418L99.6767 23.5889L99.6231 23.637L99.5702 23.6856L99.5178 23.7348L99.4676 23.7846L99.4175 23.836L99.3679 23.8885L99.3188 23.9415L99.2709 23.9951L99.2246 24.0492L99.1789 24.105L99.1338 24.1618L99.0892 24.2192L99.0457 24.2777L99.0028 24.3373L98.9604 24.398L98.9198 24.4587L98.8796 24.5205L98.84 24.5839L98.8016 24.6478L98.7637 24.7129L98.7269 24.7785L98.6907 24.8452L98.6873 24.8447ZM98.1149 27.3453H97.3937L97.3942 27.2464L97.3965 27.1485L97.3998 27.0512L97.4043 26.955L97.4099 26.8588L97.4165 26.7636L97.4249 26.6691L97.4344 26.5745L97.4455 26.4815L97.4572 26.3886L97.4706 26.2962L97.4851 26.2049L97.5007 26.1136L97.518 26.0234L97.5364 25.9343L97.5559 25.8452L97.5771 25.7566L97.5993 25.6691L97.6228 25.5827L97.6478 25.4963L97.674 25.4116L97.7019 25.3263L97.7309 25.2421L97.761 25.159L97.7922 25.0765L97.8251 24.9939L97.8591 24.913L97.8942 24.8321L97.931 24.7523L97.9683 24.6735L98.0079 24.5948L98.0486 24.5172L98.6879 24.8447L98.6528 24.9119L98.6193 24.9792L98.5865 25.048L98.5547 25.1175L98.5246 25.1869L98.495 25.2574L98.4666 25.328L98.4393 25.4001L98.4131 25.4728L98.388 25.5461L98.3641 25.6199L98.3412 25.6948L98.3195 25.7703L98.2988 25.8462L98.2788 25.9233L98.2604 26.001L98.2431 26.0791L98.2269 26.159L98.2113 26.2388L98.1974 26.3192L98.1846 26.4006L98.1723 26.4826L98.1617 26.5657L98.1523 26.6499L98.1439 26.7341L98.1367 26.8194L98.1305 26.9052L98.1255 26.9922L98.1216 27.0802L98.1183 27.1682L98.1166 27.2573L98.116 27.347L98.1149 27.3453ZM98.6884 29.8651L98.0469 30.1888L98.0062 30.1101L97.9667 30.0303L97.9293 29.9504L97.8925 29.8695L97.8574 29.7886L97.8234 29.7066L97.7905 29.6235L97.7593 29.5398L97.7292 29.4562L97.7002 29.3715L97.6729 29.2856L97.6467 29.2003L97.6217 29.1134L97.5982 29.0259L97.5759 28.9385L97.5548 28.8493L97.5353 28.7602L97.5169 28.6706L97.4996 28.5798L97.4834 28.4885L97.4689 28.3972L97.4556 28.3048L97.4439 28.2119L97.4327 28.1184L97.4232 28.0233L97.4149 27.9281L97.4082 27.8325L97.4026 27.7362L97.3981 27.64L97.3948 27.5427L97.3926 27.4448L97.392 27.3459H98.1133L98.1138 27.4355L98.1155 27.5247L98.1188 27.6132L98.1227 27.7012L98.1277 27.7882L98.1339 27.874L98.1411 27.9593L98.1495 28.0435L98.1589 28.1277L98.1695 28.2108L98.1818 28.2933L98.1946 28.3753L98.2086 28.4563L98.2242 28.5366L98.2403 28.6164L98.2576 28.6952L98.276 28.7728L98.2961 28.851L98.3167 28.9275L98.3384 29.0035L98.3613 29.0795L98.3852 29.1539L98.4103 29.2277L98.4365 29.3015L98.4638 29.3742L98.4923 29.4458L98.5218 29.5174L98.5525 29.588L98.5842 29.6579L98.6171 29.7274L98.6505 29.7963L98.6857 29.8646L98.6884 29.8651ZM100.256 31.5474L99.8795 32.1504L99.8065 32.1056L99.7352 32.0597L99.6644 32.0132L99.5942 31.9651L99.5251 31.9164L99.4571 31.8661L99.3902 31.8147L99.3244 31.7622L99.2597 31.7092L99.1962 31.6551L99.1327 31.5993L99.0708 31.5425L99.01 31.4851L98.9498 31.426L98.8913 31.3659L98.8334 31.3052L98.7771 31.2434L98.7208 31.1805L98.6656 31.116L98.6121 31.051L98.5591 30.9848L98.5073 30.917L98.4566 30.8492L98.407 30.7798L98.3585 30.7098L98.3106 30.6382L98.2637 30.5655L98.2186 30.4922L98.174 30.4184L98.1305 30.343L98.0882 30.2664L98.0469 30.1888L98.6884 29.8651L98.7247 29.9329L98.762 29.9996L98.7999 30.0652L98.8384 30.1303L98.878 30.1943L98.9181 30.2566L98.9588 30.3178L99.0011 30.3791L99.0441 30.4386L99.0875 30.4977L99.1315 30.5551L99.1767 30.612L99.2224 30.6677L99.2687 30.7218L99.3166 30.776L99.3651 30.829L99.4147 30.8809L99.4649 30.9318L99.5156 30.9815L99.568 31.0307L99.6204 31.0789L99.6733 31.1259L99.7279 31.1723L99.7837 31.2183L99.8394 31.2631L99.8957 31.3063L99.9537 31.3489L100.012 31.391L100.071 31.432L100.132 31.4719L100.193 31.5113L100.255 31.549L100.256 31.5474ZM102.591 32.1488V32.8562L102.496 32.8557L102.402 32.8535L102.309 32.8502L102.216 32.8458L102.123 32.8398L102.032 32.8322L101.941 32.8234L101.85 32.813L101.76 32.8015L101.671 32.7884L101.583 32.7742L101.495 32.7584L101.408 32.7409L101.321 32.7223L101.236 32.7026L101.15 32.6813L101.065 32.6583L100.981 32.6343L100.898 32.6091L100.815 32.5818L100.733 32.5533L100.651 32.5238L100.571 32.4927L100.492 32.4604L100.412 32.4265L100.334 32.391L100.256 32.3543L100.179 32.3161L100.102 32.2767L100.027 32.2362L99.9526 32.1936L99.8784 32.1504L100.255 31.5474L100.318 31.584L100.381 31.6195L100.445 31.654L100.509 31.6873L100.574 31.7196L100.64 31.7502L100.706 31.7797L100.774 31.8082L100.841 31.836L100.909 31.8623L100.978 31.888L101.048 31.912L101.117 31.9345L101.189 31.9563L101.261 31.9771L101.333 31.9962L101.406 32.0143L101.48 32.0318L101.554 32.0476L101.629 32.0624L101.705 32.0761L101.781 32.0886L101.859 32.1001L101.937 32.1105L102.015 32.1192L102.096 32.1269L102.176 32.1335L102.257 32.1389L102.339 32.1428L102.422 32.146L102.505 32.1477L102.589 32.1482L102.591 32.1488ZM116.271 17.9593V36.7313H115.55V17.9593L115.91 17.6056L116.271 17.9593ZM115.55 17.9593C115.55 17.7642 115.712 17.6056 115.91 17.6056C116.109 17.6056 116.271 17.7642 116.271 17.9593H115.55ZM120.818 18.3131H115.911V17.6056H120.818L121.179 17.9593L120.818 18.3131ZM120.818 17.6056C121.017 17.6056 121.179 17.7642 121.179 17.9593C121.179 18.1545 121.017 18.3131 120.818 18.3131V17.6056ZM120.457 22.4637V17.9593H121.179V22.4637L120.499 22.6283L120.457 22.4637H120.457ZM121.179 22.4637C121.179 22.6589 121.017 22.8174 120.818 22.8174C120.619 22.8174 120.457 22.6589 120.457 22.4637H121.179ZM120.786 21.6453L121.137 22.2986L120.499 22.6283L120.148 21.975L120.118 21.7207L120.786 21.6453ZM120.148 21.975C120.056 21.8022 120.123 21.5879 120.299 21.4971C120.475 21.4064 120.694 21.4725 120.786 21.6453L120.148 21.975ZM122.37 18.2912L122.737 18.9002L122.656 18.9483L122.577 18.9992L122.5 19.0528L122.423 19.1091L122.348 19.1681L122.275 19.2299L122.203 19.2944L122.132 19.3622L122.062 19.4327L121.994 19.5065L121.926 19.5831L121.86 19.6624L121.795 19.7455L121.731 19.8307L121.669 19.9188L121.608 20.0106L121.548 20.1052L121.489 20.2031L121.432 20.3037L121.376 20.4075L121.321 20.5147L121.268 20.6246L121.217 20.7383L121.166 20.8547L121.117 20.9745L121.069 21.0975L121.023 21.2232L120.979 21.3523L120.935 21.4846L120.893 21.6196L120.853 21.7579L120.815 21.8995L120.117 21.7207L120.159 21.5688L120.202 21.4195L120.247 21.273L120.294 21.1297L120.343 20.9892L120.393 20.8515L120.446 20.717L120.5 20.5847L120.556 20.4556L120.613 20.3293L120.673 20.2052L120.734 20.0844L120.797 19.9663L120.863 19.8515L120.93 19.74L120.999 19.6306L121.069 19.524L121.142 19.4202L121.218 19.3201L121.294 19.2228L121.373 19.1282L121.453 19.0369L121.536 18.9483L121.621 18.8625L121.707 18.78L121.796 18.7007L121.887 18.6241L121.979 18.5514L122.074 18.4815L122.17 18.4148L122.268 18.3513L122.369 18.2912H122.37ZM126.005 17.3995V18.107L125.886 18.108L125.767 18.1102L125.65 18.1141L125.535 18.1195L125.42 18.1266L125.307 18.1354L125.194 18.1458L125.082 18.1573L124.972 18.1704L124.863 18.1851L124.755 18.2015L124.648 18.2196L124.542 18.2393L124.438 18.2606L124.334 18.283L124.231 18.3071L124.13 18.3327L124.03 18.3601L123.93 18.3885L123.832 18.4186L123.735 18.4503L123.639 18.4836L123.545 18.5186L123.451 18.5547L123.358 18.5924L123.266 18.6318L123.176 18.6723L123.086 18.7149L122.997 18.7586L122.91 18.804L122.824 18.851L122.738 18.8997L122.371 18.2907L122.468 18.2354L122.567 18.1819L122.666 18.1299L122.767 18.0802L122.869 18.0321L122.972 17.9856L123.076 17.9413L123.181 17.8987L123.287 17.8577L123.394 17.8183L123.502 17.7806L123.612 17.745L123.721 17.7111L123.833 17.6789L123.945 17.6488L124.058 17.6204L124.172 17.5936L124.288 17.5684L124.404 17.5449L124.521 17.5236L124.639 17.5039L124.759 17.4853L124.88 17.4689L125.001 17.4542L125.123 17.4411L125.246 17.4296L125.371 17.4203L125.497 17.4126L125.623 17.4066L125.751 17.4022L125.879 17.3995L126.008 17.3984L126.005 17.3995ZM127.127 18.107H126.005V17.3995H127.127L127.488 17.7532L127.127 18.107ZM127.127 17.3995C127.326 17.3995 127.488 17.5581 127.488 17.7532C127.488 17.9484 127.326 18.107 127.127 18.107V17.3995ZM126.766 22.2226V17.7532H127.488V22.2226L127.127 22.5763L126.766 22.2226ZM127.488 22.2226C127.488 22.4178 127.326 22.5763 127.127 22.5763C126.928 22.5763 126.766 22.4178 126.766 22.2226H127.488ZM125.479 21.8689H127.127V22.5763H125.479V21.8689ZM122.613 23.626L122.107 23.122L122.189 23.0449L122.272 22.9705L122.358 22.8978L122.444 22.8278L122.533 22.76L122.623 22.695L122.714 22.6327L122.807 22.5725L122.903 22.5146L122.999 22.4593L123.097 22.4069L123.196 22.3566L123.297 22.309L123.4 22.2636L123.504 22.2204L123.609 22.18L123.716 22.1423L123.824 22.1067L123.934 22.0739L124.045 22.0433L124.157 22.0154L124.27 21.9897L124.386 21.9668L124.502 21.9465L124.619 21.9279L124.738 21.9126L124.858 21.8995L124.98 21.8886L125.103 21.8804L125.227 21.8744L125.353 21.8705L125.48 21.8694V22.5769L125.367 22.578L125.256 22.5813L125.147 22.5862L125.038 22.5933L124.933 22.6026L124.827 22.6146L124.724 22.6277L124.622 22.6436L124.522 22.6611L124.424 22.6808L124.327 22.7026L124.231 22.7267L124.137 22.7524L124.045 22.7803L123.953 22.8098L123.864 22.8415L123.775 22.8754L123.689 22.9115L123.603 22.9492L123.519 22.9891L123.437 23.0312L123.355 23.0749L123.275 23.1209L123.197 23.1684L123.119 23.2187L123.043 23.2707L122.968 23.3248L122.895 23.3811L122.823 23.4396L122.753 23.4997L122.682 23.5626L122.614 23.6271L122.613 23.626ZM121.529 26.6231H120.807L120.809 26.487L120.813 26.352L120.819 26.2191L120.827 26.0879L120.838 25.9583L120.851 25.8304L120.867 25.7041L120.886 25.5794L120.907 25.4559L120.931 25.3351L120.957 25.2153L120.986 25.0978L121.017 24.9813L121.051 24.8671L121.087 24.7545L121.126 24.6429L121.168 24.5341L121.212 24.427L121.259 24.3215L121.309 24.2176L121.36 24.1159L121.415 24.0158L121.472 23.9174L121.533 23.8212L121.595 23.7272L121.66 23.6348L121.728 23.5446L121.798 23.456L121.872 23.3696L121.947 23.2854L122.025 23.2034L122.105 23.1231L122.611 23.6271L122.545 23.6927L122.481 23.7605L122.419 23.83L122.36 23.9005L122.302 23.9727L122.247 24.0465L122.193 24.1225L122.142 24.2001L122.092 24.2794L122.045 24.3597L122 24.4428L121.957 24.5276L121.916 24.6139L121.877 24.702L121.839 24.7922L121.804 24.884L121.771 24.9775L121.74 25.0732L121.711 25.1711L121.684 25.2711L121.659 25.3728L121.636 25.4767L121.616 25.5827L121.597 25.6904L121.581 25.8003L121.567 25.9119L121.555 26.0256L121.545 26.1415L121.537 26.2596L121.532 26.3793L121.528 26.5012L121.527 26.6253L121.529 26.6231ZM120.807 36.7313V26.6231H121.529V36.7313L121.168 37.0851L120.807 36.7313ZM121.529 36.7313C121.529 36.9265 121.367 37.0851 121.168 37.0851C120.969 37.0851 120.807 36.9265 120.807 36.7313H121.529ZM115.91 36.3776H121.168V37.0851H115.91L115.549 36.7313L115.91 36.3776ZM115.91 37.0851C115.711 37.0851 115.549 36.9265 115.549 36.7313C115.549 36.5362 115.711 36.3776 115.91 36.3776V37.0851ZM129.8 17.9588V36.7308H129.079V17.9588L129.439 17.6051L129.8 17.9588ZM129.079 17.9588C129.079 17.7636 129.24 17.6051 129.439 17.6051C129.638 17.6051 129.8 17.7636 129.8 17.9588H129.079ZM134.698 18.3125H129.44V17.6051H134.698L135.058 17.9588L134.698 18.3125ZM134.698 17.6051C134.897 17.6051 135.058 17.7636 135.058 17.9588C135.058 18.154 134.897 18.3125 134.698 18.3125V17.6051ZM134.337 36.7313V17.9593H135.058V36.7313L134.698 37.0851L134.337 36.7313ZM135.058 36.7313C135.058 36.9265 134.897 37.0851 134.698 37.0851C134.499 37.0851 134.337 36.9265 134.337 36.7313H135.058ZM129.439 36.3776H134.697V37.0851H129.439L129.079 36.7313L129.439 36.3776ZM129.439 37.0851C129.24 37.0851 129.079 36.9265 129.079 36.7313C129.079 36.5362 129.24 36.3776 129.439 36.3776V37.0851ZM129.8 11.1178V16.2749H129.079V11.1178L129.439 10.764L129.8 11.1178ZM129.079 11.1178C129.079 10.9226 129.24 10.764 129.439 10.764C129.638 10.764 129.8 10.9226 129.8 11.1178H129.079ZM134.698 11.4715H129.44V10.764H134.698L135.058 11.1178L134.698 11.4715ZM134.698 10.764C134.897 10.764 135.058 10.9226 135.058 11.1178C135.058 11.3129 134.897 11.4715 134.698 11.4715V10.764ZM134.337 16.2749V11.1178H135.058V16.2749L134.698 16.6286L134.337 16.2749ZM135.058 16.2749C135.058 16.4701 134.897 16.6286 134.698 16.6286C134.499 16.6286 134.337 16.4701 134.337 16.2749H135.058ZM129.439 15.9212H134.697V16.6286H129.439L129.079 16.2749L129.439 15.9212ZM129.439 16.6286C129.24 16.6286 129.079 16.4701 129.079 16.2749C129.079 16.0797 129.24 15.9212 129.439 15.9212V16.6286ZM144.036 27.5137L137.342 36.9342L136.75 36.5296L143.445 27.1092L144.036 27.1075L144.037 27.5137H144.036ZM143.445 27.1092C143.559 26.949 143.784 26.9096 143.947 27.0211C144.11 27.1327 144.151 27.3535 144.037 27.5137L143.445 27.1092H143.445ZM137.306 17.7554L144.035 27.107L143.445 27.5154L136.716 18.1638L137.011 17.6062L137.306 17.756V17.7554ZM136.716 18.1638C136.601 18.0042 136.639 17.7833 136.802 17.6707C136.965 17.5581 137.19 17.5958 137.305 17.7554L136.715 18.1638H136.716ZM143.109 18.3136H137.011V17.6062H143.109L143.408 17.7614L143.109 18.3142V18.3136ZM143.109 17.6062C143.308 17.6062 143.47 17.7647 143.47 17.9599C143.47 18.1551 143.308 18.3136 143.109 18.3136V17.6062ZM147.859 25.4477L142.811 18.1589L143.408 17.7614L148.455 25.0502L148.157 25.603L147.859 25.4477ZM148.455 25.0502C148.567 25.2115 148.524 25.4318 148.359 25.5417C148.195 25.6511 147.97 25.6095 147.858 25.4477L148.454 25.0502H148.455ZM145.493 24.895H148.157V25.6024H145.493L145.194 25.0497L145.493 24.8944V24.895ZM145.493 25.6024C145.294 25.6024 145.132 25.4439 145.132 25.2487C145.132 25.0535 145.294 24.895 145.493 24.895V25.6024ZM150.838 18.1583L145.791 25.4471L145.194 25.0497L150.242 17.7609L150.54 17.6056L150.838 18.1583ZM150.242 17.7609C150.353 17.5996 150.578 17.5575 150.743 17.6669C150.907 17.7762 150.95 17.9965 150.839 18.1583L150.243 17.7609H150.242ZM156.639 18.3136H150.541V17.6062H156.639L156.934 18.1638L156.639 18.3136ZM156.639 17.6062C156.838 17.6062 157 17.7647 157 17.9599C157 18.1551 156.838 18.3136 156.639 18.3136V17.6062ZM149.615 27.1075L156.345 17.756L156.935 18.1644L150.205 27.5159L149.613 27.5132L149.615 27.1075ZM150.205 27.5159C150.09 27.6756 149.865 27.7133 149.702 27.6007C149.539 27.488 149.501 27.2672 149.615 27.1075L150.205 27.5159H150.205ZM156.273 36.9336L149.614 27.5132L150.207 27.1102L156.866 36.5307L156.57 37.0861L156.273 36.9336ZM156.866 36.5307C156.979 36.6914 156.939 36.9117 156.775 37.0227C156.612 37.1337 156.387 37.0938 156.274 36.9336L156.867 36.5307H156.866ZM150.507 36.3782H156.57V37.0856H150.507L150.206 36.9276L150.507 36.3782ZM150.507 37.0856C150.308 37.0856 150.146 36.9271 150.146 36.7319C150.146 36.5367 150.308 36.3782 150.507 36.3782V37.0856ZM145.864 29.2468L150.807 36.5356L150.206 36.9276L145.264 29.6388L145.565 29.0894L145.865 29.2474L145.864 29.2468ZM145.264 29.6388C145.154 29.4764 145.199 29.2567 145.364 29.1484C145.53 29.0402 145.754 29.0844 145.864 29.2468L145.264 29.6388ZM148.088 29.7968H145.565V29.0894H148.088L148.388 29.6388L148.088 29.7968ZM148.088 29.0894C148.287 29.0894 148.448 29.2479 148.448 29.4431C148.448 29.6383 148.287 29.7968 148.088 29.7968V29.0894ZM142.846 36.5362L147.788 29.2474L148.388 29.6394L143.446 36.9281L143.146 37.0861L142.845 36.5367L142.846 36.5362ZM143.446 36.9281C143.336 37.0905 143.112 37.1348 142.946 37.0266C142.781 36.9183 142.735 36.6985 142.846 36.5362L143.446 36.9281ZM137.047 36.3787H143.146V37.0861H137.047L136.751 36.5301L137.047 36.3787ZM137.047 37.0861C136.848 37.0861 136.686 36.9276 136.686 36.7324C136.686 36.5372 136.848 36.3787 137.047 36.3787V37.0861Z" fill="#3325B2"/>
<path d="M48.1917 37.1457C46.1584 37.1457 44.3944 36.7045 42.899 35.8221C41.403 34.9392 40.2465 33.7534 39.4288 32.2636C38.6106 30.7738 38.2021 29.1232 38.2021 27.3125C38.2021 25.4329 38.6284 23.7594 39.4812 22.2926C40.334 20.8257 41.4849 19.6683 42.9335 18.8204C44.3821 17.9724 46.018 17.5482 47.8411 17.5482C49.36 17.5482 50.7032 17.7833 51.872 18.2534C53.0402 18.7231 54.0273 19.3824 54.8338 20.2298C55.6398 21.0783 56.2535 22.058 56.6743 23.1695C57.0951 24.2815 57.3052 25.4903 57.3052 26.797C57.3052 27.1638 57.2874 27.5246 57.2522 27.88C57.2177 28.2354 57.153 28.5393 57.0594 28.7914H42.7234V25.0097H54.0803L51.5916 26.7975C51.8252 25.8118 51.8135 24.9354 51.5565 24.1673C51.2996 23.3991 50.8498 22.7917 50.2072 22.3451C49.5645 21.8984 48.7758 21.6742 47.8417 21.6742C46.9298 21.6742 46.1473 21.8924 45.493 22.3276C44.8386 22.7633 44.3481 23.4051 44.0204 24.2525C43.6932 25.1005 43.565 26.1322 43.6353 27.347C43.5416 28.401 43.6698 29.3293 44.0204 30.1319C44.371 30.9339 44.9083 31.5588 45.6329 32.0055C46.3574 32.4522 47.2336 32.6763 48.2619 32.6763C49.1966 32.6763 49.997 32.4926 50.6631 32.1258C51.3286 31.7589 51.8492 31.2549 52.2226 30.613L56.4285 32.5724C56.055 33.4893 55.4648 34.2919 54.6583 34.9791C53.8523 35.6669 52.8998 36.1999 51.8012 36.5777C50.7032 36.956 49.4999 37.1452 48.1912 37.1452L48.1917 37.1457ZM69.3972 37.1457C67.5278 37.1457 65.8569 36.71 64.3849 35.8391C62.9129 34.9682 61.7502 33.7878 60.8974 32.298C60.0446 30.8077 59.6183 29.1577 59.6183 27.3475C59.6183 25.5138 60.0502 23.8573 60.9153 22.3795C61.7797 20.9012 62.9485 19.7263 64.4205 18.8554C65.8925 17.9839 67.5395 17.5482 69.3627 17.5482C70.7645 17.5482 72.0091 17.8062 73.0954 18.3218C74.1822 18.8379 75.0411 19.565 75.6721 20.5048L74.8656 21.5365V10.7066H80.1232V36.7329H75.2161V33.2947L75.7072 34.3608C75.0528 35.2776 74.1649 35.9708 73.0435 36.4405C71.9221 36.9106 70.7059 37.1457 69.3972 37.1457ZM70.0282 32.5041C70.9863 32.5041 71.8274 32.286 72.5525 31.8508C73.2765 31.4156 73.8433 30.8077 74.2524 30.0286C74.6616 29.249 74.8661 28.3556 74.8661 27.347C74.8661 26.3383 74.6616 25.4444 74.2524 24.6653C73.8433 23.8862 73.2771 23.2783 72.5525 22.8431C71.8279 22.4074 70.9869 22.1898 70.0282 22.1898C69.0701 22.1898 68.2117 22.4134 67.452 22.8606C66.6929 23.3073 66.1027 23.9147 65.6818 24.6828C65.2616 25.4504 65.0515 26.3388 65.0515 27.3475C65.0515 28.3556 65.2616 29.2495 65.6818 30.0291C66.1027 30.8082 66.6929 31.4161 67.452 31.8513C68.2117 32.2871 69.0701 32.5041 70.0282 32.5041ZM83.9785 36.7329V10.7066H89.2361V36.7329H83.9785ZM102.59 37.1457C100.698 37.1457 98.9738 36.7215 97.4199 35.8735C95.866 35.0256 94.6275 33.8621 93.7045 32.3838C92.7815 30.9055 92.3206 29.2266 92.3206 27.347C92.3206 25.4444 92.7815 23.7594 93.7045 22.2926C94.6281 20.8257 95.866 19.6683 97.4199 18.8204C98.9738 17.9724 100.697 17.5482 102.59 17.5482C104.483 17.5482 106.2 17.9724 107.743 18.8204C109.285 19.6683 110.518 20.8257 111.441 22.2926C112.364 23.7594 112.825 25.4444 112.825 27.347C112.825 29.226 112.364 30.905 111.441 32.3838C110.518 33.8621 109.285 35.0256 107.743 35.8735C106.201 36.7215 104.483 37.1457 102.59 37.1457ZM102.59 32.5041C103.548 32.5041 104.384 32.286 105.096 31.8508C105.809 31.4156 106.37 30.8077 106.779 30.0286C107.188 29.249 107.392 28.3556 107.392 27.347C107.392 26.3383 107.187 25.4504 106.779 24.6823C106.37 23.9141 105.809 23.3067 105.096 22.8601C104.384 22.4129 103.548 22.1892 102.59 22.1892C101.632 22.1892 100.791 22.4129 100.067 22.8601C99.3422 23.3067 98.776 23.9141 98.3669 24.6823C97.9578 25.4499 97.7532 26.3383 97.7532 27.347C97.7532 28.3551 97.9578 29.249 98.3669 30.0286C98.776 30.8077 99.3422 31.4156 100.067 31.8508C100.791 32.2865 101.632 32.5041 102.59 32.5041ZM115.909 36.7329V17.961H120.816V22.4653L120.466 21.812C120.887 20.2304 121.582 19.1594 122.552 18.5973C123.521 18.0359 124.672 17.7548 126.004 17.7548H127.125V22.2242H125.478C124.192 22.2242 123.153 22.608 122.358 23.3756C121.564 24.1438 121.166 25.2268 121.166 26.6247V36.7329H115.909ZM129.439 36.7329V17.961H134.696V36.7329H129.439ZM129.439 16.2765V11.1194H134.696V16.2765H129.439ZM137.045 36.7329L143.74 27.3125L137.01 17.961H143.109L148.156 25.2498H145.492L150.54 17.961H156.638L149.908 27.3125L156.568 36.7329H150.504L145.562 29.4441H148.085L143.143 36.7329H137.044H137.045Z" fill="#3325B2"/>
</svg>
